<?xml version="1.0" encoding="UTF-8" standalone="no"?>
<!DOCTYPE svg PUBLIC "-//W3C//DTD SVG 1.1//EN"
 "http://www.w3.org/Graphics/SVG/1.1/DTD/svg11.dtd">
<!-- Generated by graphviz version 2.44.0 ()
 -->
<!-- Title: include/zpp/condition_variable.hpp Pages: 1 -->
<svg width="480pt" height="263pt"
 viewBox="0.00 0.00 479.66 263.00" xmlns="http://www.w3.org/2000/svg" xmlns:xlink="http://www.w3.org/1999/xlink">
<g id="graph0" class="graph" transform="scale(1 1) rotate(0) translate(4 259)">
<title>include/zpp/condition_variable.hpp</title>
<!-- Node1 -->
<g id="node1" class="node">
<title>Node1</title>
<g id="a_node1"><a xlink:title=" ">
<polygon fill="#bfbfbf" stroke="black" points="229.66,-224.5 229.66,-254.5 336.66,-254.5 336.66,-224.5 229.66,-224.5"/>
<text text-anchor="start" x="237.66" y="-242.5" font-family="Helvetica,sans-Serif" font-size="10.00">include/zpp/condition</text>
<text text-anchor="middle" x="283.16" y="-231.5" font-family="Helvetica,sans-Serif" font-size="10.00">_variable.hpp</text>
</a>
</g>
</g>
<!-- Node2 -->
<g id="node2" class="node">
<title>Node2</title>
<g id="a_node2"><a xlink:title=" ">
<polygon fill="none" stroke="#bfbfbf" points="93.16,-0.5 93.16,-19.5 143.16,-19.5 143.16,-0.5 93.16,-0.5"/>
<text text-anchor="middle" x="118.16" y="-7.5" font-family="Helvetica,sans-Serif" font-size="10.00">kernel.h</text>
</a>
</g>
</g>
<!-- Node1&#45;&gt;Node2 -->
<g id="edge1" class="edge">
<title>Node1&#45;&gt;Node2</title>
<path fill="none" stroke="midnightblue" d="M229.51,-229.14C156.78,-212.95 32.58,-171.77 3.16,-76 0.55,-67.5 -1.85,-63.34 3.16,-56 20.87,-30.05 55.99,-19.06 82.78,-14.41"/>
<polygon fill="midnightblue" stroke="midnightblue" points="83.59,-17.83 92.95,-12.88 82.54,-10.91 83.59,-17.83"/>
</g>
<!-- Node3 -->
<g id="node3" class="node">
<title>Node3</title>
<g id="a_node3"><a xlink:title=" ">
<polygon fill="none" stroke="#bfbfbf" points="270.16,-0.5 270.16,-19.5 350.16,-19.5 350.16,-0.5 270.16,-0.5"/>
<text text-anchor="middle" x="310.16" y="-7.5" font-family="Helvetica,sans-Serif" font-size="10.00">sys/__assert.h</text>
</a>
</g>
</g>
<!-- Node1&#45;&gt;Node3 -->
<g id="edge2" class="edge">
<title>Node1&#45;&gt;Node3</title>
<path fill="none" stroke="midnightblue" d="M301.78,-224.3C312.17,-215.18 324.2,-202.39 330.16,-188 352.69,-133.58 330.62,-62.16 317.85,-29.16"/>
<polygon fill="midnightblue" stroke="midnightblue" points="320.94,-27.48 313.95,-19.52 314.46,-30.1 320.94,-27.48"/>
</g>
<!-- Node4 -->
<g id="node4" class="node">
<title>Node4</title>
<g id="a_node4"><a xlink:title=" ">
<polygon fill="none" stroke="#bfbfbf" points="260.16,-112.5 260.16,-131.5 306.16,-131.5 306.16,-112.5 260.16,-112.5"/>
<text text-anchor="middle" x="283.16" y="-119.5" font-family="Helvetica,sans-Serif" font-size="10.00">chrono</text>
</a>
</g>
</g>
<!-- Node1&#45;&gt;Node4 -->
<g id="edge3" class="edge">
<title>Node1&#45;&gt;Node4</title>
<path fill="none" stroke="midnightblue" d="M283.16,-224.34C283.16,-203.62 283.16,-165.02 283.16,-141.9"/>
<polygon fill="midnightblue" stroke="midnightblue" points="286.66,-141.67 283.16,-131.67 279.66,-141.67 286.66,-141.67"/>
</g>
<!-- Node5 -->
<g id="node5" class="node">
<title>Node5</title>
<g id="a_node5"><a xlink:href="mutex_8hpp.html" target="_top" xlink:title=" ">
<polygon fill="none" stroke="black" points="164.66,-168.5 164.66,-187.5 243.66,-187.5 243.66,-168.5 164.66,-168.5"/>
<text text-anchor="middle" x="204.16" y="-175.5" font-family="Helvetica,sans-Serif" font-size="10.00">zpp/mutex.hpp</text>
</a>
</g>
</g>
<!-- Node1&#45;&gt;Node5 -->
<g id="edge4" class="edge">
<title>Node1&#45;&gt;Node5</title>
<path fill="none" stroke="midnightblue" d="M264.44,-224.4C252.25,-215.22 236.37,-203.26 223.97,-193.92"/>
<polygon fill="midnightblue" stroke="midnightblue" points="225.75,-190.88 215.65,-187.66 221.54,-196.47 225.75,-190.88"/>
</g>
<!-- Node6 -->
<g id="node6" class="node">
<title>Node6</title>
<g id="a_node6"><a xlink:href="result_8hpp.html" target="_top" xlink:title=" ">
<polygon fill="none" stroke="black" points="50.66,-112.5 50.66,-131.5 127.66,-131.5 127.66,-112.5 50.66,-112.5"/>
<text text-anchor="middle" x="89.16" y="-119.5" font-family="Helvetica,sans-Serif" font-size="10.00">zpp/result.hpp</text>
</a>
</g>
</g>
<!-- Node1&#45;&gt;Node6 -->
<g id="edge19" class="edge">
<title>Node1&#45;&gt;Node6</title>
<path fill="none" stroke="midnightblue" d="M234.44,-224.44C209.56,-216.01 179.49,-203.83 155.16,-188 134.62,-174.64 115.15,-154.15 102.75,-139.76"/>
<polygon fill="midnightblue" stroke="midnightblue" points="105.1,-137.12 96,-131.7 99.74,-141.62 105.1,-137.12"/>
</g>
<!-- Node7 -->
<g id="node7" class="node">
<title>Node7</title>
<g id="a_node7"><a xlink:href="error__code_8hpp.html" target="_top" xlink:title=" ">
<polygon fill="none" stroke="black" points="184.16,-56.5 184.16,-75.5 282.16,-75.5 282.16,-56.5 184.16,-56.5"/>
<text text-anchor="middle" x="233.16" y="-63.5" font-family="Helvetica,sans-Serif" font-size="10.00">zpp/error_code.hpp</text>
</a>
</g>
</g>
<!-- Node1&#45;&gt;Node7 -->
<g id="edge20" class="edge">
<title>Node1&#45;&gt;Node7</title>
<path fill="none" stroke="midnightblue" d="M293.32,-224.22C309.42,-199.69 336.85,-148.65 315.16,-112 306.18,-96.84 290.09,-86.45 274.52,-79.5"/>
<polygon fill="midnightblue" stroke="midnightblue" points="275.55,-76.14 264.97,-75.62 272.91,-82.63 275.55,-76.14"/>
</g>
<!-- Node10 -->
<g id="node10" class="node">
<title>Node10</title>
<g id="a_node10"><a xlink:href="utils_8hpp.html" target="_top" xlink:title=" ">
<polygon fill="none" stroke="black" points="400.66,-168.5 400.66,-187.5 471.66,-187.5 471.66,-168.5 400.66,-168.5"/>
<text text-anchor="middle" x="436.16" y="-175.5" font-family="Helvetica,sans-Serif" font-size="10.00">zpp/utils.hpp</text>
</a>
</g>
</g>
<!-- Node1&#45;&gt;Node10 -->
<g id="edge17" class="edge">
<title>Node1&#45;&gt;Node10</title>
<path fill="none" stroke="midnightblue" d="M319.42,-224.4C345.2,-214.37 379.51,-201.03 404.26,-191.4"/>
<polygon fill="midnightblue" stroke="midnightblue" points="405.84,-194.54 413.9,-187.66 403.31,-188.02 405.84,-194.54"/>
</g>
<!-- Node5&#45;&gt;Node2 -->
<g id="edge5" class="edge">
<title>Node5&#45;&gt;Node2</title>
<path fill="none" stroke="midnightblue" d="M199.53,-168.08C185.88,-141.72 145.55,-63.88 127.31,-28.66"/>
<polygon fill="midnightblue" stroke="midnightblue" points="130.3,-26.84 122.6,-19.57 124.09,-30.06 130.3,-26.84"/>
</g>
<!-- Node5&#45;&gt;Node3 -->
<g id="edge6" class="edge">
<title>Node5&#45;&gt;Node3</title>
<path fill="none" stroke="midnightblue" d="M209.7,-168.15C217.97,-155.21 234.4,-130.65 251.16,-112 267.14,-94.21 278.43,-96.25 291.16,-76 300.05,-61.85 304.93,-43.36 307.51,-29.73"/>
<polygon fill="midnightblue" stroke="midnightblue" points="311,-30.05 309.17,-19.61 304.09,-28.91 311,-30.05"/>
</g>
<!-- Node5&#45;&gt;Node4 -->
<g id="edge7" class="edge">
<title>Node5&#45;&gt;Node4</title>
<path fill="none" stroke="midnightblue" d="M216.85,-168.32C229.06,-159.98 247.74,-147.21 262.16,-137.35"/>
<polygon fill="midnightblue" stroke="midnightblue" points="264.22,-140.19 270.5,-131.65 260.27,-134.41 264.22,-140.19"/>
</g>
<!-- Node5&#45;&gt;Node6 -->
<g id="edge8" class="edge">
<title>Node5&#45;&gt;Node6</title>
<path fill="none" stroke="midnightblue" d="M185.94,-168.44C167.26,-159.68 138,-145.94 116.54,-135.86"/>
<polygon fill="midnightblue" stroke="midnightblue" points="117.83,-132.6 107.3,-131.52 114.86,-138.93 117.83,-132.6"/>
</g>
<!-- Node5&#45;&gt;Node7 -->
<g id="edge16" class="edge">
<title>Node5&#45;&gt;Node7</title>
<path fill="none" stroke="midnightblue" d="M205.76,-168.09C208.09,-155.5 212.74,-131.82 218.16,-112 220.61,-103.05 223.8,-93.27 226.62,-85.11"/>
<polygon fill="midnightblue" stroke="midnightblue" points="229.97,-86.14 230,-75.54 223.37,-83.8 229.97,-86.14"/>
</g>
<!-- Node6&#45;&gt;Node2 -->
<g id="edge9" class="edge">
<title>Node6&#45;&gt;Node2</title>
<path fill="none" stroke="midnightblue" d="M90.99,-112.12C93.63,-99.55 98.77,-75.9 104.16,-56 106.56,-47.1 109.56,-37.32 112.17,-29.16"/>
<polygon fill="midnightblue" stroke="midnightblue" points="115.52,-30.16 115.28,-19.57 108.86,-28 115.52,-30.16"/>
</g>
<!-- Node6&#45;&gt;Node3 -->
<g id="edge10" class="edge">
<title>Node6&#45;&gt;Node3</title>
<path fill="none" stroke="midnightblue" d="M98.51,-112.27C113.59,-98.6 144.68,-72.04 175.16,-56 203.36,-41.15 237.43,-29.84 264.28,-22.27"/>
<polygon fill="midnightblue" stroke="midnightblue" points="265.48,-25.58 274.19,-19.56 263.62,-18.83 265.48,-25.58"/>
</g>
<!-- Node6&#45;&gt;Node7 -->
<g id="edge11" class="edge">
<title>Node6&#45;&gt;Node7</title>
<path fill="none" stroke="midnightblue" d="M111.98,-112.44C135.99,-103.44 173.99,-89.19 201.03,-79.05"/>
<polygon fill="midnightblue" stroke="midnightblue" points="202.31,-82.3 210.45,-75.52 199.86,-75.75 202.31,-82.3"/>
</g>
<!-- Node9 -->
<g id="node9" class="node">
<title>Node9</title>
<g id="a_node9"><a xlink:title=" ">
<polygon fill="none" stroke="#bfbfbf" points="12.66,-56.5 12.66,-75.5 51.66,-75.5 51.66,-56.5 12.66,-56.5"/>
<text text-anchor="middle" x="32.16" y="-63.5" font-family="Helvetica,sans-Serif" font-size="10.00">utility</text>
</a>
</g>
</g>
<!-- Node6&#45;&gt;Node9 -->
<g id="edge15" class="edge">
<title>Node6&#45;&gt;Node9</title>
<path fill="none" stroke="midnightblue" d="M80,-112.32C71.66,-104.42 59.13,-92.55 48.98,-82.94"/>
<polygon fill="midnightblue" stroke="midnightblue" points="51.15,-80.17 41.48,-75.83 46.34,-85.25 51.15,-80.17"/>
</g>
<!-- Node7&#45;&gt;Node2 -->
<g id="edge12" class="edge">
<title>Node7&#45;&gt;Node2</title>
<path fill="none" stroke="midnightblue" d="M214.94,-56.44C196.26,-47.68 167,-33.94 145.54,-23.86"/>
<polygon fill="midnightblue" stroke="midnightblue" points="146.83,-20.6 136.3,-19.52 143.86,-26.93 146.83,-20.6"/>
</g>
<!-- Node7&#45;&gt;Node3 -->
<g id="edge13" class="edge">
<title>Node7&#45;&gt;Node3</title>
<path fill="none" stroke="midnightblue" d="M245.53,-56.32C257.32,-48.06 275.29,-35.45 289.29,-25.63"/>
<polygon fill="midnightblue" stroke="midnightblue" points="291.64,-28.26 297.82,-19.65 287.62,-22.53 291.64,-28.26"/>
</g>
<!-- Node8 -->
<g id="node8" class="node">
<title>Node8</title>
<g id="a_node8"><a xlink:title=" ">
<polygon fill="none" stroke="#bfbfbf" points="206.16,-0.5 206.16,-19.5 252.16,-19.5 252.16,-0.5 206.16,-0.5"/>
<text text-anchor="middle" x="229.16" y="-7.5" font-family="Helvetica,sans-Serif" font-size="10.00">errno.h</text>
</a>
</g>
</g>
<!-- Node7&#45;&gt;Node8 -->
<g id="edge14" class="edge">
<title>Node7&#45;&gt;Node8</title>
<path fill="none" stroke="midnightblue" d="M232.5,-56.08C231.97,-49.01 231.22,-38.86 230.56,-29.99"/>
<polygon fill="midnightblue" stroke="midnightblue" points="234.04,-29.47 229.81,-19.75 227.05,-29.98 234.04,-29.47"/>
</g>
<!-- Node11 -->
<g id="node11" class="node">
<title>Node11</title>
<g id="a_node11"><a xlink:title=" ">
<polygon fill="none" stroke="#bfbfbf" points="413.16,-112.5 413.16,-131.5 459.16,-131.5 459.16,-112.5 413.16,-112.5"/>
<text text-anchor="middle" x="436.16" y="-119.5" font-family="Helvetica,sans-Serif" font-size="10.00">cstdint</text>
</a>
</g>
</g>
<!-- Node10&#45;&gt;Node11 -->
<g id="edge18" class="edge">
<title>Node10&#45;&gt;Node11</title>
<path fill="none" stroke="midnightblue" d="M436.16,-168.08C436.16,-161.01 436.16,-150.86 436.16,-141.99"/>
<polygon fill="midnightblue" stroke="midnightblue" points="439.66,-141.75 436.16,-131.75 432.66,-141.75 439.66,-141.75"/>
</g>
</g>
</svg>
