<?xml version="1.0" encoding="UTF-8" standalone="no"?>
<!DOCTYPE svg PUBLIC "-//W3C//DTD SVG 1.1//EN"
 "http://www.w3.org/Graphics/SVG/1.1/DTD/svg11.dtd">
<!-- Generated by graphviz version 2.44.0 ()
 -->
<!-- Title: include/zpp/mem_slab.hpp Pages: 1 -->
<svg width="404pt" height="140pt"
 viewBox="0.00 0.00 403.50 140.00" xmlns="http://www.w3.org/2000/svg" xmlns:xlink="http://www.w3.org/1999/xlink">
<g id="graph0" class="graph" transform="scale(1 1) rotate(0) translate(4 136)">
<title>include/zpp/mem_slab.hpp</title>
<!-- Node1 -->
<g id="node1" class="node">
<title>Node1</title>
<g id="a_node1"><a xlink:title=" ">
<polygon fill="#bfbfbf" stroke="black" points="135.5,-112.5 135.5,-131.5 266.5,-131.5 266.5,-112.5 135.5,-112.5"/>
<text text-anchor="middle" x="201" y="-119.5" font-family="Helvetica,sans-Serif" font-size="10.00">include/zpp/mem_slab.hpp</text>
</a>
</g>
</g>
<!-- Node2 -->
<g id="node2" class="node">
<title>Node2</title>
<g id="a_node2"><a xlink:title=" ">
<polygon fill="none" stroke="#bfbfbf" points="0,-56.5 0,-75.5 50,-75.5 50,-56.5 0,-56.5"/>
<text text-anchor="middle" x="25" y="-63.5" font-family="Helvetica,sans-Serif" font-size="10.00">kernel.h</text>
</a>
</g>
</g>
<!-- Node1&#45;&gt;Node2 -->
<g id="edge1" class="edge">
<title>Node1&#45;&gt;Node2</title>
<path fill="none" stroke="midnightblue" d="M173.11,-112.44C142.46,-103.04 93.16,-87.91 59.94,-77.72"/>
<polygon fill="midnightblue" stroke="midnightblue" points="60.78,-74.32 50.19,-74.73 58.72,-81.01 60.78,-74.32"/>
</g>
<!-- Node3 -->
<g id="node3" class="node">
<title>Node3</title>
<g id="a_node3"><a xlink:title=" ">
<polygon fill="none" stroke="#bfbfbf" points="68,-56.5 68,-75.5 148,-75.5 148,-56.5 68,-56.5"/>
<text text-anchor="middle" x="108" y="-63.5" font-family="Helvetica,sans-Serif" font-size="10.00">sys/__assert.h</text>
</a>
</g>
</g>
<!-- Node1&#45;&gt;Node3 -->
<g id="edge2" class="edge">
<title>Node1&#45;&gt;Node3</title>
<path fill="none" stroke="midnightblue" d="M186.06,-112.32C171.41,-103.82 148.87,-90.73 131.76,-80.8"/>
<polygon fill="midnightblue" stroke="midnightblue" points="133.31,-77.65 122.9,-75.65 129.8,-83.7 133.31,-77.65"/>
</g>
<!-- Node4 -->
<g id="node4" class="node">
<title>Node4</title>
<g id="a_node4"><a xlink:title=" ">
<polygon fill="none" stroke="#bfbfbf" points="245,-0.5 245,-19.5 291,-19.5 291,-0.5 245,-0.5"/>
<text text-anchor="middle" x="268" y="-7.5" font-family="Helvetica,sans-Serif" font-size="10.00">cstdint</text>
</a>
</g>
</g>
<!-- Node1&#45;&gt;Node4 -->
<g id="edge3" class="edge">
<title>Node1&#45;&gt;Node4</title>
<path fill="none" stroke="midnightblue" d="M197.27,-112.36C192.22,-99.26 184.95,-74.01 195,-56 203.71,-40.39 220.31,-29.52 235.49,-22.39"/>
<polygon fill="midnightblue" stroke="midnightblue" points="236.88,-25.6 244.66,-18.41 234.1,-19.17 236.88,-25.6"/>
</g>
<!-- Node5 -->
<g id="node5" class="node">
<title>Node5</title>
<g id="a_node5"><a xlink:title=" ">
<polygon fill="none" stroke="#bfbfbf" points="204,-56.5 204,-75.5 250,-75.5 250,-56.5 204,-56.5"/>
<text text-anchor="middle" x="227" y="-63.5" font-family="Helvetica,sans-Serif" font-size="10.00">chrono</text>
</a>
</g>
</g>
<!-- Node1&#45;&gt;Node5 -->
<g id="edge4" class="edge">
<title>Node1&#45;&gt;Node5</title>
<path fill="none" stroke="midnightblue" d="M205.29,-112.08C208.85,-104.69 214.02,-93.95 218.42,-84.81"/>
<polygon fill="midnightblue" stroke="midnightblue" points="221.6,-86.28 222.79,-75.75 215.29,-83.24 221.6,-86.28"/>
</g>
<!-- Node6 -->
<g id="node6" class="node">
<title>Node6</title>
<g id="a_node6"><a xlink:title=" ">
<polygon fill="none" stroke="#bfbfbf" points="268,-56.5 268,-75.5 306,-75.5 306,-56.5 268,-56.5"/>
<text text-anchor="middle" x="287" y="-63.5" font-family="Helvetica,sans-Serif" font-size="10.00">array</text>
</a>
</g>
</g>
<!-- Node1&#45;&gt;Node6 -->
<g id="edge5" class="edge">
<title>Node1&#45;&gt;Node6</title>
<path fill="none" stroke="midnightblue" d="M214.82,-112.32C228.23,-103.9 248.82,-90.97 264.59,-81.07"/>
<polygon fill="midnightblue" stroke="midnightblue" points="266.61,-83.94 273.22,-75.65 262.89,-78.01 266.61,-83.94"/>
</g>
<!-- Node7 -->
<g id="node7" class="node">
<title>Node7</title>
<g id="a_node7"><a xlink:href="utils_8hpp.html" target="_top" xlink:title=" ">
<polygon fill="none" stroke="black" points="324.5,-56.5 324.5,-75.5 395.5,-75.5 395.5,-56.5 324.5,-56.5"/>
<text text-anchor="middle" x="360" y="-63.5" font-family="Helvetica,sans-Serif" font-size="10.00">zpp/utils.hpp</text>
</a>
</g>
</g>
<!-- Node1&#45;&gt;Node7 -->
<g id="edge6" class="edge">
<title>Node1&#45;&gt;Node7</title>
<path fill="none" stroke="midnightblue" d="M226.19,-112.44C252.94,-103.36 295.4,-88.94 325.31,-78.78"/>
<polygon fill="midnightblue" stroke="midnightblue" points="326.58,-82.05 334.92,-75.52 324.33,-75.42 326.58,-82.05"/>
</g>
<!-- Node7&#45;&gt;Node4 -->
<g id="edge7" class="edge">
<title>Node7&#45;&gt;Node4</title>
<path fill="none" stroke="midnightblue" d="M345.22,-56.32C330.73,-47.82 308.43,-34.73 291.51,-24.8"/>
<polygon fill="midnightblue" stroke="midnightblue" points="293.14,-21.7 282.74,-19.65 289.6,-27.74 293.14,-21.7"/>
</g>
</g>
</svg>
