<?xml version="1.0" encoding="UTF-8" standalone="no"?>
<!DOCTYPE svg PUBLIC "-//W3C//DTD SVG 1.1//EN"
 "http://www.w3.org/Graphics/SVG/1.1/DTD/svg11.dtd">
<!-- Generated by graphviz version 2.44.0 ()
 -->
<!-- Title: include/zpp/poll_event.hpp Pages: 1 -->
<svg width="1853pt" height="308pt"
 viewBox="0.00 0.00 1853.14 308.00" xmlns="http://www.w3.org/2000/svg" xmlns:xlink="http://www.w3.org/1999/xlink">
<g id="graph0" class="graph" transform="scale(1 1) rotate(0) translate(4 304)">
<title>include/zpp/poll_event.hpp</title>
<!-- Node1 -->
<g id="node1" class="node">
<title>Node1</title>
<g id="a_node1"><a xlink:title=" ">
<polygon fill="#bfbfbf" stroke="black" points="1352.5,-280.5 1352.5,-299.5 1483.5,-299.5 1483.5,-280.5 1352.5,-280.5"/>
<text text-anchor="middle" x="1418" y="-287.5" font-family="Helvetica,sans-Serif" font-size="10.00">include/zpp/poll_event.hpp</text>
</a>
</g>
</g>
<!-- Node2 -->
<g id="node2" class="node">
<title>Node2</title>
<g id="a_node2"><a xlink:title=" ">
<polygon fill="none" stroke="#bfbfbf" points="994,-0.5 994,-19.5 1044,-19.5 1044,-0.5 994,-0.5"/>
<text text-anchor="middle" x="1019" y="-7.5" font-family="Helvetica,sans-Serif" font-size="10.00">kernel.h</text>
</a>
</g>
</g>
<!-- Node1&#45;&gt;Node2 -->
<g id="edge1" class="edge">
<title>Node1&#45;&gt;Node2</title>
<path fill="none" stroke="midnightblue" d="M1483.63,-285.62C1603.13,-277.67 1844,-252.52 1844,-179 1844,-179 1844,-179 1844,-121 1844,-90.9 1848.57,-74.72 1825,-56 1764.1,-7.64 1202.97,-9.31 1054.76,-10.61"/>
<polygon fill="midnightblue" stroke="midnightblue" points="1054.39,-7.11 1044.42,-10.71 1054.46,-14.11 1054.39,-7.11"/>
</g>
<!-- Node3 -->
<g id="node3" class="node">
<title>Node3</title>
<g id="a_node3"><a xlink:title=" ">
<polygon fill="none" stroke="#bfbfbf" points="598,-0.5 598,-19.5 678,-19.5 678,-0.5 598,-0.5"/>
<text text-anchor="middle" x="638" y="-7.5" font-family="Helvetica,sans-Serif" font-size="10.00">sys/__assert.h</text>
</a>
</g>
</g>
<!-- Node1&#45;&gt;Node3 -->
<g id="edge2" class="edge">
<title>Node1&#45;&gt;Node3</title>
<path fill="none" stroke="midnightblue" d="M1352.45,-287.39C1073.57,-280.14 0,-247.75 0,-179 0,-179 0,-179 0,-121 0,-75.19 37.4,-72.84 80,-56 182.67,-15.41 461.29,-33.26 587.99,-19.89"/>
<polygon fill="midnightblue" stroke="midnightblue" points="588.42,-23.36 597.95,-18.73 587.61,-16.41 588.42,-23.36"/>
</g>
<!-- Node4 -->
<g id="node4" class="node">
<title>Node4</title>
<g id="a_node4"><a xlink:title=" ">
<polygon fill="none" stroke="#bfbfbf" points="1106,-56.5 1106,-75.5 1152,-75.5 1152,-56.5 1106,-56.5"/>
<text text-anchor="middle" x="1129" y="-63.5" font-family="Helvetica,sans-Serif" font-size="10.00">chrono</text>
</a>
</g>
</g>
<!-- Node1&#45;&gt;Node4 -->
<g id="edge3" class="edge">
<title>Node1&#45;&gt;Node4</title>
<path fill="none" stroke="midnightblue" d="M1406.67,-280.3C1362.79,-246.59 1203.69,-124.37 1148.23,-81.77"/>
<polygon fill="midnightblue" stroke="midnightblue" points="1150.31,-78.96 1140.25,-75.64 1146.05,-84.51 1150.31,-78.96"/>
</g>
<!-- Node5 -->
<g id="node5" class="node">
<title>Node5</title>
<g id="a_node5"><a xlink:title=" ">
<polygon fill="none" stroke="#bfbfbf" points="1552,-56.5 1552,-75.5 1592,-75.5 1592,-56.5 1552,-56.5"/>
<text text-anchor="middle" x="1572" y="-63.5" font-family="Helvetica,sans-Serif" font-size="10.00">limits</text>
</a>
</g>
</g>
<!-- Node1&#45;&gt;Node5 -->
<g id="edge4" class="edge">
<title>Node1&#45;&gt;Node5</title>
<path fill="none" stroke="midnightblue" d="M1432.34,-280.24C1464.89,-259.39 1543.77,-203.22 1573,-132 1579.03,-117.32 1578.13,-99.15 1576.1,-85.76"/>
<polygon fill="midnightblue" stroke="midnightblue" points="1579.52,-85.01 1574.25,-75.82 1572.64,-86.29 1579.52,-85.01"/>
</g>
<!-- Node6 -->
<g id="node6" class="node">
<title>Node6</title>
<g id="a_node6"><a xlink:title=" ">
<polygon fill="none" stroke="#bfbfbf" points="1408,-56.5 1408,-75.5 1458,-75.5 1458,-56.5 1408,-56.5"/>
<text text-anchor="middle" x="1433" y="-63.5" font-family="Helvetica,sans-Serif" font-size="10.00">optional</text>
</a>
</g>
</g>
<!-- Node1&#45;&gt;Node6 -->
<g id="edge5" class="edge">
<title>Node1&#45;&gt;Node6</title>
<path fill="none" stroke="midnightblue" d="M1418.59,-280.3C1420.8,-247.63 1428.62,-131.87 1431.72,-85.96"/>
<polygon fill="midnightblue" stroke="midnightblue" points="1435.22,-86.1 1432.4,-75.88 1428.23,-85.63 1435.22,-86.1"/>
</g>
<!-- Node7 -->
<g id="node7" class="node">
<title>Node7</title>
<g id="a_node7"><a xlink:title=" ">
<polygon fill="none" stroke="#bfbfbf" points="104,-56.5 104,-75.5 142,-75.5 142,-56.5 104,-56.5"/>
<text text-anchor="middle" x="123" y="-63.5" font-family="Helvetica,sans-Serif" font-size="10.00">array</text>
</a>
</g>
</g>
<!-- Node1&#45;&gt;Node7 -->
<g id="edge6" class="edge">
<title>Node1&#45;&gt;Node7</title>
<path fill="none" stroke="midnightblue" d="M1352.25,-289.1C1169.85,-287.53 644.01,-270.4 236,-132 200.93,-120.1 164.53,-96.86 142.82,-81.64"/>
<polygon fill="midnightblue" stroke="midnightblue" points="144.64,-78.63 134.47,-75.66 140.56,-84.32 144.64,-78.63"/>
</g>
<!-- Node8 -->
<g id="node8" class="node">
<title>Node8</title>
<g id="a_node8"><a xlink:href="sem_8hpp.html" target="_top" xlink:title=" ">
<polygon fill="none" stroke="black" points="1175.5,-224.5 1175.5,-243.5 1246.5,-243.5 1246.5,-224.5 1175.5,-224.5"/>
<text text-anchor="middle" x="1211" y="-231.5" font-family="Helvetica,sans-Serif" font-size="10.00">zpp/sem.hpp</text>
</a>
</g>
</g>
<!-- Node1&#45;&gt;Node8 -->
<g id="edge7" class="edge">
<title>Node1&#45;&gt;Node8</title>
<path fill="none" stroke="midnightblue" d="M1385.2,-280.44C1349.62,-271.16 1292.69,-256.31 1253.65,-246.13"/>
<polygon fill="midnightblue" stroke="midnightblue" points="1254.21,-242.65 1243.65,-243.52 1252.44,-249.43 1254.21,-242.65"/>
</g>
<!-- Node28 -->
<g id="node28" class="node">
<title>Node28</title>
<g id="a_node28"><a xlink:href="fifo_8hpp.html" target="_top" xlink:title=" ">
<polygon fill="none" stroke="black" points="1638.5,-112.5 1638.5,-131.5 1703.5,-131.5 1703.5,-112.5 1638.5,-112.5"/>
<text text-anchor="middle" x="1671" y="-119.5" font-family="Helvetica,sans-Serif" font-size="10.00">zpp/fifo.hpp</text>
</a>
</g>
</g>
<!-- Node1&#45;&gt;Node28 -->
<g id="edge62" class="edge">
<title>Node1&#45;&gt;Node28</title>
<path fill="none" stroke="midnightblue" d="M1483.72,-281.46C1535.77,-274.27 1603.1,-261.88 1624,-244 1654.87,-217.59 1665.57,-168.39 1669.2,-141.58"/>
<polygon fill="midnightblue" stroke="midnightblue" points="1672.68,-141.93 1670.36,-131.59 1665.73,-141.12 1672.68,-141.93"/>
</g>
<!-- Node31 -->
<g id="node31" class="node">
<title>Node31</title>
<g id="a_node31"><a xlink:href="poll__signal_8hpp.html" target="_top" xlink:title=" ">
<polygon fill="none" stroke="black" points="1446,-112.5 1446,-131.5 1544,-131.5 1544,-112.5 1446,-112.5"/>
<text text-anchor="middle" x="1495" y="-119.5" font-family="Helvetica,sans-Serif" font-size="10.00">zpp/poll_signal.hpp</text>
</a>
</g>
</g>
<!-- Node1&#45;&gt;Node31 -->
<g id="edge69" class="edge">
<title>Node1&#45;&gt;Node31</title>
<path fill="none" stroke="midnightblue" d="M1422.14,-280.08C1434.37,-253.72 1470.47,-175.88 1486.81,-140.66"/>
<polygon fill="midnightblue" stroke="midnightblue" points="1489.99,-142.11 1491.03,-131.57 1483.64,-139.17 1489.99,-142.11"/>
</g>
<!-- Node8&#45;&gt;Node2 -->
<g id="edge58" class="edge">
<title>Node8&#45;&gt;Node2</title>
<path fill="none" stroke="midnightblue" d="M1230.93,-224.46C1261.08,-210.3 1317.21,-178.8 1340,-132 1350.63,-110.18 1331.17,-62.28 1324,-56 1284.46,-21.36 1126.05,-13.38 1054.45,-11.55"/>
<polygon fill="midnightblue" stroke="midnightblue" points="1054.22,-8.04 1044.14,-11.31 1054.05,-15.04 1054.22,-8.04"/>
</g>
<!-- Node8&#45;&gt;Node3 -->
<g id="edge59" class="edge">
<title>Node8&#45;&gt;Node3</title>
<path fill="none" stroke="midnightblue" d="M1175.24,-229.9C1092.72,-222.74 882.59,-204.37 707,-188 428.19,-162 178.53,-340.63 87,-76 84.09,-67.6 80.94,-62.51 87,-56 123.46,-16.83 499.11,-26.13 587.79,-19.7"/>
<polygon fill="midnightblue" stroke="midnightblue" points="588.32,-23.16 597.94,-18.73 587.66,-16.19 588.32,-23.16"/>
</g>
<!-- Node8&#45;&gt;Node4 -->
<g id="edge60" class="edge">
<title>Node8&#45;&gt;Node4</title>
<path fill="none" stroke="midnightblue" d="M1206.59,-224.08C1193.57,-197.72 1155.12,-119.88 1137.72,-84.66"/>
<polygon fill="midnightblue" stroke="midnightblue" points="1140.8,-82.98 1133.23,-75.57 1134.52,-86.08 1140.8,-82.98"/>
</g>
<!-- Node8&#45;&gt;Node5 -->
<g id="edge61" class="edge">
<title>Node8&#45;&gt;Node5</title>
<path fill="none" stroke="midnightblue" d="M1246.54,-233.06C1315.52,-231.2 1468.19,-217.05 1553,-132 1565.05,-119.91 1569.55,-100.63 1571.18,-86.2"/>
<polygon fill="midnightblue" stroke="midnightblue" points="1574.69,-86.13 1571.96,-75.9 1567.71,-85.6 1574.69,-86.13"/>
</g>
<!-- Node9 -->
<g id="node9" class="node">
<title>Node9</title>
<g id="a_node9"><a xlink:href="thread_8hpp.html" target="_top" xlink:title=" ">
<polygon fill="none" stroke="black" points="716,-168.5 716,-187.5 796,-187.5 796,-168.5 716,-168.5"/>
<text text-anchor="middle" x="756" y="-175.5" font-family="Helvetica,sans-Serif" font-size="10.00">zpp/thread.hpp</text>
</a>
</g>
</g>
<!-- Node8&#45;&gt;Node9 -->
<g id="edge8" class="edge">
<title>Node8&#45;&gt;Node9</title>
<path fill="none" stroke="midnightblue" d="M1175.3,-228.76C1094.73,-219.2 898.62,-195.93 806.01,-184.94"/>
<polygon fill="midnightblue" stroke="midnightblue" points="806.38,-181.46 796.04,-183.75 805.56,-188.41 806.38,-181.46"/>
</g>
<!-- Node9&#45;&gt;Node2 -->
<g id="edge50" class="edge">
<title>Node9&#45;&gt;Node2</title>
<path fill="none" stroke="midnightblue" d="M796.03,-176.88C919.36,-176.11 1287.36,-170.58 1323,-132 1340.9,-112.62 1324.41,-74.3 1302,-56 1264.69,-25.53 1121.91,-15.41 1054.56,-12.29"/>
<polygon fill="midnightblue" stroke="midnightblue" points="1054.56,-8.78 1044.42,-11.84 1054.26,-15.78 1054.56,-8.78"/>
</g>
<!-- Node9&#45;&gt;Node3 -->
<g id="edge51" class="edge">
<title>Node9&#45;&gt;Node3</title>
<path fill="none" stroke="midnightblue" d="M715.91,-177.47C627.82,-177.66 411.26,-173.44 236,-132 170.38,-116.48 132.87,-131.79 95,-76 90.01,-68.65 88.95,-62.51 95,-56 130.86,-17.43 500.54,-26.11 587.94,-19.69"/>
<polygon fill="midnightblue" stroke="midnightblue" points="588.32,-23.16 597.94,-18.72 587.66,-16.2 588.32,-23.16"/>
</g>
<!-- Node9&#45;&gt;Node4 -->
<g id="edge54" class="edge">
<title>Node9&#45;&gt;Node4</title>
<path fill="none" stroke="midnightblue" d="M796.19,-177.59C879.95,-177.94 1069.21,-173.96 1115,-132 1127.62,-120.44 1130.32,-100.48 1130.35,-85.72"/>
<polygon fill="midnightblue" stroke="midnightblue" points="1133.85,-85.53 1129.98,-75.67 1126.85,-85.79 1133.85,-85.53"/>
</g>
<!-- Node10 -->
<g id="node10" class="node">
<title>Node10</title>
<g id="a_node10"><a xlink:href="thread__prio_8hpp.html" target="_top" xlink:title=" ">
<polygon fill="none" stroke="black" points="910.5,-56.5 910.5,-75.5 1011.5,-75.5 1011.5,-56.5 910.5,-56.5"/>
<text text-anchor="middle" x="961" y="-63.5" font-family="Helvetica,sans-Serif" font-size="10.00">zpp/thread_prio.hpp</text>
</a>
</g>
</g>
<!-- Node9&#45;&gt;Node10 -->
<g id="edge9" class="edge">
<title>Node9&#45;&gt;Node10</title>
<path fill="none" stroke="midnightblue" d="M796.24,-173.82C849.38,-168.7 938.62,-156.6 959,-132 969.46,-119.38 968.69,-100.16 966.08,-85.9"/>
<polygon fill="midnightblue" stroke="midnightblue" points="969.4,-84.71 963.76,-75.74 962.57,-86.26 969.4,-84.71"/>
</g>
<!-- Node11 -->
<g id="node11" class="node">
<title>Node11</title>
<g id="a_node11"><a xlink:href="thread__id_8hpp.html" target="_top" xlink:title=" ">
<polygon fill="none" stroke="black" points="762,-56.5 762,-75.5 854,-75.5 854,-56.5 762,-56.5"/>
<text text-anchor="middle" x="808" y="-63.5" font-family="Helvetica,sans-Serif" font-size="10.00">zpp/thread_id.hpp</text>
</a>
</g>
</g>
<!-- Node9&#45;&gt;Node11 -->
<g id="edge12" class="edge">
<title>Node9&#45;&gt;Node11</title>
<path fill="none" stroke="midnightblue" d="M732.16,-168.31C704.94,-157.01 666.22,-135.88 683,-112 692.3,-98.76 728.96,-86.52 760.19,-78.15"/>
<polygon fill="midnightblue" stroke="midnightblue" points="761.3,-81.48 770.1,-75.58 759.54,-74.71 761.3,-81.48"/>
</g>
<!-- Node12 -->
<g id="node12" class="node">
<title>Node12</title>
<g id="a_node12"><a xlink:href="thread__attr_8hpp.html" target="_top" xlink:title=" ">
<polygon fill="none" stroke="black" points="1006.5,-112.5 1006.5,-131.5 1105.5,-131.5 1105.5,-112.5 1006.5,-112.5"/>
<text text-anchor="middle" x="1056" y="-119.5" font-family="Helvetica,sans-Serif" font-size="10.00">zpp/thread_attr.hpp</text>
</a>
</g>
</g>
<!-- Node9&#45;&gt;Node12 -->
<g id="edge15" class="edge">
<title>Node9&#45;&gt;Node12</title>
<path fill="none" stroke="midnightblue" d="M796.15,-169.77C848.22,-160.4 939.39,-143.99 998.72,-133.31"/>
<polygon fill="midnightblue" stroke="midnightblue" points="999.46,-136.73 1008.68,-131.52 998.22,-129.84 999.46,-136.73"/>
</g>
<!-- Node13 -->
<g id="node13" class="node">
<title>Node13</title>
<g id="a_node13"><a xlink:title=" ">
<polygon fill="none" stroke="#bfbfbf" points="704.5,-56.5 704.5,-75.5 743.5,-75.5 743.5,-56.5 704.5,-56.5"/>
<text text-anchor="middle" x="724" y="-63.5" font-family="Helvetica,sans-Serif" font-size="10.00">utility</text>
</a>
</g>
</g>
<!-- Node9&#45;&gt;Node13 -->
<g id="edge56" class="edge">
<title>Node9&#45;&gt;Node13</title>
<path fill="none" stroke="midnightblue" d="M715.9,-171.28C692.13,-165.6 663.83,-154.33 649,-132 633.55,-108.74 667.73,-88.87 694.89,-77.43"/>
<polygon fill="midnightblue" stroke="midnightblue" points="696.48,-80.56 704.47,-73.61 693.89,-74.06 696.48,-80.56"/>
</g>
<!-- Node14 -->
<g id="node14" class="node">
<title>Node14</title>
<g id="a_node14"><a xlink:href="thread__data_8hpp.html" target="_top" xlink:title=" ">
<polygon fill="none" stroke="black" points="262,-56.5 262,-75.5 366,-75.5 366,-56.5 262,-56.5"/>
<text text-anchor="middle" x="314" y="-63.5" font-family="Helvetica,sans-Serif" font-size="10.00">zpp/thread_data.hpp</text>
</a>
</g>
</g>
<!-- Node9&#45;&gt;Node14 -->
<g id="edge21" class="edge">
<title>Node9&#45;&gt;Node14</title>
<path fill="none" stroke="midnightblue" d="M715.86,-173.61C660.27,-168.25 557.07,-155.88 472,-132 424.07,-118.54 371.08,-94.79 340.26,-80.03"/>
<polygon fill="midnightblue" stroke="midnightblue" points="341.59,-76.79 331.07,-75.58 338.54,-83.09 341.59,-76.79"/>
</g>
<!-- Node16 -->
<g id="node16" class="node">
<title>Node16</title>
<g id="a_node16"><a xlink:href="thread__stack_8hpp.html" target="_top" xlink:title=" ">
<polygon fill="none" stroke="black" points="384.5,-56.5 384.5,-75.5 493.5,-75.5 493.5,-56.5 384.5,-56.5"/>
<text text-anchor="middle" x="439" y="-63.5" font-family="Helvetica,sans-Serif" font-size="10.00">zpp/thread_stack.hpp</text>
</a>
</g>
</g>
<!-- Node9&#45;&gt;Node16 -->
<g id="edge25" class="edge">
<title>Node9&#45;&gt;Node16</title>
<path fill="none" stroke="midnightblue" d="M715.7,-177.36C663.43,-176.2 570.82,-168.55 502,-132 480.62,-120.65 462.16,-99.42 450.85,-84.32"/>
<polygon fill="midnightblue" stroke="midnightblue" points="453.44,-81.93 444.76,-75.85 447.75,-86.01 453.44,-81.93"/>
</g>
<!-- Node17 -->
<g id="node17" class="node">
<title>Node17</title>
<g id="a_node17"><a xlink:href="clock_8hpp.html" target="_top" xlink:title=" ">
<polygon fill="none" stroke="black" points="1238,-112.5 1238,-131.5 1314,-131.5 1314,-112.5 1238,-112.5"/>
<text text-anchor="middle" x="1276" y="-119.5" font-family="Helvetica,sans-Serif" font-size="10.00">zpp/clock.hpp</text>
</a>
</g>
</g>
<!-- Node9&#45;&gt;Node17 -->
<g id="edge29" class="edge">
<title>Node9&#45;&gt;Node17</title>
<path fill="none" stroke="midnightblue" d="M796.37,-172.81C890.84,-163 1125.99,-138.58 1227.77,-128.01"/>
<polygon fill="midnightblue" stroke="midnightblue" points="1228.19,-131.48 1237.78,-126.97 1227.47,-124.52 1228.19,-131.48"/>
</g>
<!-- Node19 -->
<g id="node19" class="node">
<title>Node19</title>
<g id="a_node19"><a xlink:href="result_8hpp.html" target="_top" xlink:title=" ">
<polygon fill="none" stroke="black" points="519.5,-112.5 519.5,-131.5 596.5,-131.5 596.5,-112.5 519.5,-112.5"/>
<text text-anchor="middle" x="558" y="-119.5" font-family="Helvetica,sans-Serif" font-size="10.00">zpp/result.hpp</text>
</a>
</g>
</g>
<!-- Node9&#45;&gt;Node19 -->
<g id="edge35" class="edge">
<title>Node9&#45;&gt;Node19</title>
<path fill="none" stroke="midnightblue" d="M724.63,-168.44C690.74,-159.2 636.6,-144.44 599.28,-134.26"/>
<polygon fill="midnightblue" stroke="midnightblue" points="599.8,-130.77 589.23,-131.52 597.95,-137.52 599.8,-130.77"/>
</g>
<!-- Node20 -->
<g id="node20" class="node">
<title>Node20</title>
<g id="a_node20"><a xlink:href="error__code_8hpp.html" target="_top" xlink:title=" ">
<polygon fill="none" stroke="black" points="512,-56.5 512,-75.5 610,-75.5 610,-56.5 512,-56.5"/>
<text text-anchor="middle" x="561" y="-63.5" font-family="Helvetica,sans-Serif" font-size="10.00">zpp/error_code.hpp</text>
</a>
</g>
</g>
<!-- Node9&#45;&gt;Node20 -->
<g id="edge43" class="edge">
<title>Node9&#45;&gt;Node20</title>
<path fill="none" stroke="midnightblue" d="M715.83,-175.63C653.15,-172.55 536.6,-162.74 511,-132 496.78,-114.93 518.49,-94.51 537.6,-81.17"/>
<polygon fill="midnightblue" stroke="midnightblue" points="539.65,-84.01 546.06,-75.58 535.79,-78.17 539.65,-84.01"/>
</g>
<!-- Node22 -->
<g id="node22" class="node">
<title>Node22</title>
<g id="a_node22"><a xlink:href="heap_8hpp.html" target="_top" xlink:title=" ">
<polygon fill="none" stroke="black" points="245,-112.5 245,-131.5 319,-131.5 319,-112.5 245,-112.5"/>
<text text-anchor="middle" x="282" y="-119.5" font-family="Helvetica,sans-Serif" font-size="10.00">zpp/heap.hpp</text>
</a>
</g>
</g>
<!-- Node9&#45;&gt;Node22 -->
<g id="edge44" class="edge">
<title>Node9&#45;&gt;Node22</title>
<path fill="none" stroke="midnightblue" d="M715.9,-172.96C642.59,-165.5 482.05,-148.78 347,-132 341.21,-131.28 335.13,-130.49 329.11,-129.68"/>
<polygon fill="midnightblue" stroke="midnightblue" points="329.48,-126.2 319.1,-128.32 328.54,-133.14 329.48,-126.2"/>
</g>
<!-- Node24 -->
<g id="node24" class="node">
<title>Node24</title>
<g id="a_node24"><a xlink:title=" ">
<polygon fill="none" stroke="#bfbfbf" points="691.5,-112.5 691.5,-131.5 746.5,-131.5 746.5,-112.5 691.5,-112.5"/>
<text text-anchor="middle" x="719" y="-119.5" font-family="Helvetica,sans-Serif" font-size="10.00">sys/util.h</text>
</a>
</g>
</g>
<!-- Node9&#45;&gt;Node24 -->
<g id="edge52" class="edge">
<title>Node9&#45;&gt;Node24</title>
<path fill="none" stroke="midnightblue" d="M749.89,-168.08C744.72,-160.53 737.15,-149.49 730.81,-140.23"/>
<polygon fill="midnightblue" stroke="midnightblue" points="733.54,-138.02 725,-131.75 727.76,-141.98 733.54,-138.02"/>
</g>
<!-- Node25 -->
<g id="node25" class="node">
<title>Node25</title>
<g id="a_node25"><a xlink:title=" ">
<polygon fill="none" stroke="#bfbfbf" points="764.5,-112.5 764.5,-131.5 823.5,-131.5 823.5,-112.5 764.5,-112.5"/>
<text text-anchor="middle" x="794" y="-119.5" font-family="Helvetica,sans-Serif" font-size="10.00">functional</text>
</a>
</g>
</g>
<!-- Node9&#45;&gt;Node25 -->
<g id="edge53" class="edge">
<title>Node9&#45;&gt;Node25</title>
<path fill="none" stroke="midnightblue" d="M762.27,-168.08C767.64,-160.46 775.52,-149.26 782.08,-139.94"/>
<polygon fill="midnightblue" stroke="midnightblue" points="784.95,-141.94 787.84,-131.75 779.22,-137.91 784.95,-141.94"/>
</g>
<!-- Node26 -->
<g id="node26" class="node">
<title>Node26</title>
<g id="a_node26"><a xlink:title=" ">
<polygon fill="none" stroke="#bfbfbf" points="842,-112.5 842,-131.5 880,-131.5 880,-112.5 842,-112.5"/>
<text text-anchor="middle" x="861" y="-119.5" font-family="Helvetica,sans-Serif" font-size="10.00">tuple</text>
</a>
</g>
</g>
<!-- Node9&#45;&gt;Node26 -->
<g id="edge55" class="edge">
<title>Node9&#45;&gt;Node26</title>
<path fill="none" stroke="midnightblue" d="M772.87,-168.32C789.71,-159.66 815.81,-146.24 835.24,-136.25"/>
<polygon fill="midnightblue" stroke="midnightblue" points="836.88,-139.34 844.17,-131.65 833.68,-133.12 836.88,-139.34"/>
</g>
<!-- Node27 -->
<g id="node27" class="node">
<title>Node27</title>
<g id="a_node27"><a xlink:title=" ">
<polygon fill="none" stroke="#bfbfbf" points="898.5,-112.5 898.5,-131.5 949.5,-131.5 949.5,-112.5 898.5,-112.5"/>
<text text-anchor="middle" x="924" y="-119.5" font-family="Helvetica,sans-Serif" font-size="10.00">memory</text>
</a>
</g>
</g>
<!-- Node9&#45;&gt;Node27 -->
<g id="edge57" class="edge">
<title>Node9&#45;&gt;Node27</title>
<path fill="none" stroke="midnightblue" d="M782.62,-168.44C811.26,-159.24 856.93,-144.56 888.59,-134.38"/>
<polygon fill="midnightblue" stroke="midnightblue" points="889.88,-137.64 898.33,-131.25 887.74,-130.98 889.88,-137.64"/>
</g>
<!-- Node10&#45;&gt;Node2 -->
<g id="edge10" class="edge">
<title>Node10&#45;&gt;Node2</title>
<path fill="none" stroke="midnightblue" d="M970.32,-56.32C978.89,-48.34 991.81,-36.31 1002.19,-26.65"/>
<polygon fill="midnightblue" stroke="midnightblue" points="1004.58,-29.21 1009.51,-19.83 999.81,-24.09 1004.58,-29.21"/>
</g>
<!-- Node10&#45;&gt;Node3 -->
<g id="edge11" class="edge">
<title>Node10&#45;&gt;Node3</title>
<path fill="none" stroke="midnightblue" d="M910.18,-56.5C849.55,-46.37 748.83,-29.53 688.39,-19.42"/>
<polygon fill="midnightblue" stroke="midnightblue" points="688.76,-15.94 678.32,-17.74 687.61,-22.84 688.76,-15.94"/>
</g>
<!-- Node11&#45;&gt;Node2 -->
<g id="edge13" class="edge">
<title>Node11&#45;&gt;Node2</title>
<path fill="none" stroke="midnightblue" d="M841.43,-56.44C880.45,-46.46 944.66,-30.03 984.24,-19.9"/>
<polygon fill="midnightblue" stroke="midnightblue" points="985.16,-23.27 993.98,-17.4 983.43,-16.49 985.16,-23.27"/>
</g>
<!-- Node11&#45;&gt;Node3 -->
<g id="edge14" class="edge">
<title>Node11&#45;&gt;Node3</title>
<path fill="none" stroke="midnightblue" d="M781.06,-56.44C752.34,-47.32 706.67,-32.81 674.68,-22.65"/>
<polygon fill="midnightblue" stroke="midnightblue" points="675.4,-19.21 664.81,-19.52 673.28,-25.88 675.4,-19.21"/>
</g>
<!-- Node12&#45;&gt;Node2 -->
<g id="edge17" class="edge">
<title>Node12&#45;&gt;Node2</title>
<path fill="none" stroke="midnightblue" d="M1057.4,-112.27C1059.08,-99.49 1060.89,-75.12 1054,-56 1050.11,-45.22 1042.58,-34.99 1035.5,-27.01"/>
<polygon fill="midnightblue" stroke="midnightblue" points="1037.88,-24.43 1028.45,-19.59 1032.8,-29.25 1037.88,-24.43"/>
</g>
<!-- Node12&#45;&gt;Node3 -->
<g id="edge18" class="edge">
<title>Node12&#45;&gt;Node3</title>
<path fill="none" stroke="midnightblue" d="M1054,-112.08C1050.26,-97.64 1040.72,-69.4 1021,-56 967.95,-19.95 779.74,-12.65 688.43,-11.27"/>
<polygon fill="midnightblue" stroke="midnightblue" points="688.36,-7.76 678.31,-11.13 688.27,-14.76 688.36,-7.76"/>
</g>
<!-- Node12&#45;&gt;Node4 -->
<g id="edge19" class="edge">
<title>Node12&#45;&gt;Node4</title>
<path fill="none" stroke="midnightblue" d="M1067.73,-112.32C1078.84,-104.11 1095.74,-91.6 1108.98,-81.81"/>
<polygon fill="midnightblue" stroke="midnightblue" points="1111.1,-84.59 1117.06,-75.83 1106.94,-78.97 1111.1,-84.59"/>
</g>
<!-- Node12&#45;&gt;Node10 -->
<g id="edge16" class="edge">
<title>Node12&#45;&gt;Node10</title>
<path fill="none" stroke="midnightblue" d="M1040.74,-112.32C1025.78,-103.82 1002.75,-90.73 985.27,-80.8"/>
<polygon fill="midnightblue" stroke="midnightblue" points="986.65,-77.55 976.23,-75.65 983.19,-83.64 986.65,-77.55"/>
</g>
<!-- Node12&#45;&gt;Node13 -->
<g id="edge20" class="edge">
<title>Node12&#45;&gt;Node13</title>
<path fill="none" stroke="midnightblue" d="M1006.5,-116.01C948.15,-109.61 848.19,-97 753.3,-75.73"/>
<polygon fill="midnightblue" stroke="midnightblue" points="754.07,-72.32 743.54,-73.51 752.52,-79.15 754.07,-72.32"/>
</g>
<!-- Node14&#45;&gt;Node2 -->
<g id="edge22" class="edge">
<title>Node14&#45;&gt;Node2</title>
<path fill="none" stroke="midnightblue" d="M366.06,-57.16C369.42,-56.74 372.76,-56.35 376,-56 607.11,-31.17 886.5,-17.01 983.67,-12.55"/>
<polygon fill="midnightblue" stroke="midnightblue" points="983.99,-16.04 993.82,-12.09 983.67,-9.05 983.99,-16.04"/>
</g>
<!-- Node14&#45;&gt;Node3 -->
<g id="edge24" class="edge">
<title>Node14&#45;&gt;Node3</title>
<path fill="none" stroke="midnightblue" d="M366,-56.8C419.23,-48.34 504.61,-34.57 588.01,-20.15"/>
<polygon fill="midnightblue" stroke="midnightblue" points="588.65,-23.59 597.9,-18.43 587.45,-16.69 588.65,-23.59"/>
</g>
<!-- Node15 -->
<g id="node15" class="node">
<title>Node15</title>
<g id="a_node15"><a xlink:title=" ">
<polygon fill="none" stroke="#bfbfbf" points="325,-0.5 325,-19.5 429,-19.5 429,-0.5 325,-0.5"/>
<text text-anchor="middle" x="377" y="-7.5" font-family="Helvetica,sans-Serif" font-size="10.00">sys/arch_interface.h</text>
</a>
</g>
</g>
<!-- Node14&#45;&gt;Node15 -->
<g id="edge23" class="edge">
<title>Node14&#45;&gt;Node15</title>
<path fill="none" stroke="midnightblue" d="M324.12,-56.32C333.53,-48.26 347.74,-36.08 359.07,-26.37"/>
<polygon fill="midnightblue" stroke="midnightblue" points="361.38,-29 366.69,-19.83 356.82,-23.68 361.38,-29"/>
</g>
<!-- Node16&#45;&gt;Node2 -->
<g id="edge26" class="edge">
<title>Node16&#45;&gt;Node2</title>
<path fill="none" stroke="midnightblue" d="M493.79,-57.1C496.9,-56.71 499.99,-56.34 503,-56 683.39,-35.46 900.2,-19.33 983.78,-13.43"/>
<polygon fill="midnightblue" stroke="midnightblue" points="984.25,-16.9 993.98,-12.71 983.76,-9.92 984.25,-16.9"/>
</g>
<!-- Node16&#45;&gt;Node3 -->
<g id="edge28" class="edge">
<title>Node16&#45;&gt;Node3</title>
<path fill="none" stroke="midnightblue" d="M470.53,-56.44C504.59,-47.2 559.01,-32.44 596.52,-22.26"/>
<polygon fill="midnightblue" stroke="midnightblue" points="597.88,-25.51 606.62,-19.52 596.05,-18.76 597.88,-25.51"/>
</g>
<!-- Node16&#45;&gt;Node15 -->
<g id="edge27" class="edge">
<title>Node16&#45;&gt;Node15</title>
<path fill="none" stroke="midnightblue" d="M429.04,-56.32C419.87,-48.34 406.06,-36.31 394.97,-26.65"/>
<polygon fill="midnightblue" stroke="midnightblue" points="396.98,-23.76 387.14,-19.83 392.38,-29.04 396.98,-23.76"/>
</g>
<!-- Node17&#45;&gt;Node2 -->
<g id="edge30" class="edge">
<title>Node17&#45;&gt;Node2</title>
<path fill="none" stroke="midnightblue" d="M1280.95,-112.27C1287.96,-98.59 1298.53,-72.01 1285,-56 1255.86,-21.52 1119.78,-13.45 1054.33,-11.57"/>
<polygon fill="midnightblue" stroke="midnightblue" points="1054.18,-8.06 1044.09,-11.31 1054,-15.06 1054.18,-8.06"/>
</g>
<!-- Node17&#45;&gt;Node3 -->
<g id="edge32" class="edge">
<title>Node17&#45;&gt;Node3</title>
<path fill="none" stroke="midnightblue" d="M1261.35,-112.5C1231.59,-95.26 1166.39,-57.67 1161,-56 1073.62,-28.96 801.71,-16.66 688.38,-12.61"/>
<polygon fill="midnightblue" stroke="midnightblue" points="688.36,-9.1 678.24,-12.25 688.12,-16.1 688.36,-9.1"/>
</g>
<!-- Node17&#45;&gt;Node4 -->
<g id="edge33" class="edge">
<title>Node17&#45;&gt;Node4</title>
<path fill="none" stroke="midnightblue" d="M1252.71,-112.44C1228.19,-103.44 1189.4,-89.19 1161.8,-79.05"/>
<polygon fill="midnightblue" stroke="midnightblue" points="1162.78,-75.68 1152.18,-75.52 1160.36,-82.25 1162.78,-75.68"/>
</g>
<!-- Node17&#45;&gt;Node5 -->
<g id="edge34" class="edge">
<title>Node17&#45;&gt;Node5</title>
<path fill="none" stroke="midnightblue" d="M1314.09,-114.05C1373.67,-103.18 1487.69,-82.38 1541.91,-72.49"/>
<polygon fill="midnightblue" stroke="midnightblue" points="1542.72,-75.9 1551.93,-70.66 1541.46,-69.01 1542.72,-75.9"/>
</g>
<!-- Node18 -->
<g id="node18" class="node">
<title>Node18</title>
<g id="a_node18"><a xlink:title=" ">
<polygon fill="none" stroke="#bfbfbf" points="1208,-56.5 1208,-75.5 1276,-75.5 1276,-56.5 1208,-56.5"/>
<text text-anchor="middle" x="1242" y="-63.5" font-family="Helvetica,sans-Serif" font-size="10.00">sys_clock.h</text>
</a>
</g>
</g>
<!-- Node17&#45;&gt;Node18 -->
<g id="edge31" class="edge">
<title>Node17&#45;&gt;Node18</title>
<path fill="none" stroke="midnightblue" d="M1270.39,-112.08C1265.63,-104.53 1258.68,-93.49 1252.85,-84.23"/>
<polygon fill="midnightblue" stroke="midnightblue" points="1255.8,-82.35 1247.51,-75.75 1249.88,-86.08 1255.8,-82.35"/>
</g>
<!-- Node19&#45;&gt;Node2 -->
<g id="edge36" class="edge">
<title>Node19&#45;&gt;Node2</title>
<path fill="none" stroke="midnightblue" d="M596.95,-119.32C655.84,-115.88 770.49,-105.65 863,-76 881.55,-70.05 884.22,-63.95 902,-56 929.47,-43.72 961.39,-31.58 984.94,-23.01"/>
<polygon fill="midnightblue" stroke="midnightblue" points="986.27,-26.25 994.49,-19.56 983.9,-19.67 986.27,-26.25"/>
</g>
<!-- Node19&#45;&gt;Node3 -->
<g id="edge37" class="edge">
<title>Node19&#45;&gt;Node3</title>
<path fill="none" stroke="midnightblue" d="M575.18,-112.41C588.95,-104.68 607.77,-92.07 619,-76 628.57,-62.3 633.37,-43.76 635.75,-29.99"/>
<polygon fill="midnightblue" stroke="midnightblue" points="639.26,-30.15 637.23,-19.76 632.33,-29.15 639.26,-30.15"/>
</g>
<!-- Node19&#45;&gt;Node13 -->
<g id="edge42" class="edge">
<title>Node19&#45;&gt;Node13</title>
<path fill="none" stroke="midnightblue" d="M584.3,-112.44C614.2,-102.72 662.9,-86.88 694.18,-76.7"/>
<polygon fill="midnightblue" stroke="midnightblue" points="695.65,-79.9 704.07,-73.48 693.48,-73.25 695.65,-79.9"/>
</g>
<!-- Node19&#45;&gt;Node20 -->
<g id="edge38" class="edge">
<title>Node19&#45;&gt;Node20</title>
<path fill="none" stroke="midnightblue" d="M558.5,-112.08C558.89,-105.01 559.45,-94.86 559.95,-85.99"/>
<polygon fill="midnightblue" stroke="midnightblue" points="563.45,-85.93 560.51,-75.75 556.46,-85.54 563.45,-85.93"/>
</g>
<!-- Node20&#45;&gt;Node2 -->
<g id="edge39" class="edge">
<title>Node20&#45;&gt;Node2</title>
<path fill="none" stroke="midnightblue" d="M610.01,-59.22C702.88,-48.27 902.43,-24.74 983.59,-15.18"/>
<polygon fill="midnightblue" stroke="midnightblue" points="984.26,-18.62 993.78,-13.97 983.44,-11.67 984.26,-18.62"/>
</g>
<!-- Node20&#45;&gt;Node3 -->
<g id="edge40" class="edge">
<title>Node20&#45;&gt;Node3</title>
<path fill="none" stroke="midnightblue" d="M573.37,-56.32C585.16,-48.06 603.13,-35.45 617.14,-25.63"/>
<polygon fill="midnightblue" stroke="midnightblue" points="619.48,-28.26 625.66,-19.65 615.46,-22.53 619.48,-28.26"/>
</g>
<!-- Node21 -->
<g id="node21" class="node">
<title>Node21</title>
<g id="a_node21"><a xlink:title=" ">
<polygon fill="none" stroke="#bfbfbf" points="534,-0.5 534,-19.5 580,-19.5 580,-0.5 534,-0.5"/>
<text text-anchor="middle" x="557" y="-7.5" font-family="Helvetica,sans-Serif" font-size="10.00">errno.h</text>
</a>
</g>
</g>
<!-- Node20&#45;&gt;Node21 -->
<g id="edge41" class="edge">
<title>Node20&#45;&gt;Node21</title>
<path fill="none" stroke="midnightblue" d="M560.34,-56.08C559.82,-49.01 559.06,-38.86 558.41,-29.99"/>
<polygon fill="midnightblue" stroke="midnightblue" points="561.88,-29.47 557.65,-19.75 554.9,-29.98 561.88,-29.47"/>
</g>
<!-- Node22&#45;&gt;Node2 -->
<g id="edge45" class="edge">
<title>Node22&#45;&gt;Node2</title>
<path fill="none" stroke="midnightblue" d="M319.14,-117.53C381.48,-111.37 510.97,-97.16 619,-76 653.7,-69.2 661.32,-62.9 696,-56 799.72,-35.38 924.04,-20.89 983.68,-14.57"/>
<polygon fill="midnightblue" stroke="midnightblue" points="984.12,-18.04 993.7,-13.52 983.39,-11.08 984.12,-18.04"/>
</g>
<!-- Node22&#45;&gt;Node3 -->
<g id="edge46" class="edge">
<title>Node22&#45;&gt;Node3</title>
<path fill="none" stroke="midnightblue" d="M250.53,-112.48C215.4,-101.51 166.27,-80.86 189,-56 217.58,-24.73 512.47,-25.83 587.81,-19.72"/>
<polygon fill="midnightblue" stroke="midnightblue" points="588.35,-23.18 597.94,-18.67 587.63,-16.22 588.35,-23.18"/>
</g>
<!-- Node22&#45;&gt;Node4 -->
<g id="edge47" class="edge">
<title>Node22&#45;&gt;Node4</title>
<path fill="none" stroke="midnightblue" d="M319.32,-119.02C427.74,-113.21 752.09,-95.39 1021,-76 1046.04,-74.19 1074.33,-71.83 1095.67,-69.97"/>
<polygon fill="midnightblue" stroke="midnightblue" points="1096.18,-73.44 1105.84,-69.08 1095.57,-66.47 1096.18,-73.44"/>
</g>
<!-- Node22&#45;&gt;Node7 -->
<g id="edge48" class="edge">
<title>Node22&#45;&gt;Node7</title>
<path fill="none" stroke="midnightblue" d="M256.81,-112.44C228.17,-102.72 181.52,-86.88 151.56,-76.7"/>
<polygon fill="midnightblue" stroke="midnightblue" points="152.68,-73.38 142.09,-73.48 150.43,-80.01 152.68,-73.38"/>
</g>
<!-- Node23 -->
<g id="node23" class="node">
<title>Node23</title>
<g id="a_node23"><a xlink:title=" ">
<polygon fill="none" stroke="#bfbfbf" points="198,-56.5 198,-75.5 244,-75.5 244,-56.5 198,-56.5"/>
<text text-anchor="middle" x="221" y="-63.5" font-family="Helvetica,sans-Serif" font-size="10.00">cstdint</text>
</a>
</g>
</g>
<!-- Node22&#45;&gt;Node23 -->
<g id="edge49" class="edge">
<title>Node22&#45;&gt;Node23</title>
<path fill="none" stroke="midnightblue" d="M272.2,-112.32C263.18,-104.34 249.59,-92.31 238.68,-82.65"/>
<polygon fill="midnightblue" stroke="midnightblue" points="240.79,-79.84 230.98,-75.83 236.15,-85.08 240.79,-79.84"/>
</g>
<!-- Node28&#45;&gt;Node2 -->
<g id="edge63" class="edge">
<title>Node28&#45;&gt;Node2</title>
<path fill="none" stroke="midnightblue" d="M1668.92,-112.44C1664.92,-97.98 1654.64,-69.03 1634,-56 1584.91,-25 1177.42,-14.23 1054.18,-11.66"/>
<polygon fill="midnightblue" stroke="midnightblue" points="1054.21,-8.16 1044.14,-11.45 1054.07,-15.16 1054.21,-8.16"/>
</g>
<!-- Node28&#45;&gt;Node3 -->
<g id="edge64" class="edge">
<title>Node28&#45;&gt;Node3</title>
<path fill="none" stroke="midnightblue" d="M1664.89,-112.23C1654.02,-97.47 1629.75,-68.07 1601,-56 1558.64,-38.21 880.43,-17.83 688.34,-12.39"/>
<polygon fill="midnightblue" stroke="midnightblue" points="688.33,-8.89 678.24,-12.11 688.14,-15.89 688.33,-8.89"/>
</g>
<!-- Node28&#45;&gt;Node4 -->
<g id="edge65" class="edge">
<title>Node28&#45;&gt;Node4</title>
<path fill="none" stroke="midnightblue" d="M1638.34,-118.26C1561.61,-111.73 1363.84,-94.45 1199,-76 1187.07,-74.66 1174.01,-73.03 1162.44,-71.53"/>
<polygon fill="midnightblue" stroke="midnightblue" points="1162.68,-68.03 1152.31,-70.19 1161.77,-74.97 1162.68,-68.03"/>
</g>
<!-- Node28&#45;&gt;Node5 -->
<g id="edge66" class="edge">
<title>Node28&#45;&gt;Node5</title>
<path fill="none" stroke="midnightblue" d="M1655.09,-112.32C1639.36,-103.74 1615.06,-90.49 1596.79,-80.52"/>
<polygon fill="midnightblue" stroke="midnightblue" points="1598.32,-77.37 1587.87,-75.65 1594.97,-83.52 1598.32,-77.37"/>
</g>
<!-- Node29 -->
<g id="node29" class="node">
<title>Node29</title>
<g id="a_node29"><a xlink:title=" ">
<polygon fill="none" stroke="#bfbfbf" points="1686,-56.5 1686,-75.5 1748,-75.5 1748,-56.5 1686,-56.5"/>
<text text-anchor="middle" x="1717" y="-63.5" font-family="Helvetica,sans-Serif" font-size="10.00">type_traits</text>
</a>
</g>
</g>
<!-- Node28&#45;&gt;Node29 -->
<g id="edge67" class="edge">
<title>Node28&#45;&gt;Node29</title>
<path fill="none" stroke="midnightblue" d="M1678.6,-112.08C1685.23,-104.3 1695.02,-92.8 1703.06,-83.37"/>
<polygon fill="midnightblue" stroke="midnightblue" points="1705.73,-85.63 1709.55,-75.75 1700.4,-81.09 1705.73,-85.63"/>
</g>
<!-- Node30 -->
<g id="node30" class="node">
<title>Node30</title>
<g id="a_node30"><a xlink:title=" ">
<polygon fill="none" stroke="#bfbfbf" points="1766.5,-56.5 1766.5,-75.5 1815.5,-75.5 1815.5,-56.5 1766.5,-56.5"/>
<text text-anchor="middle" x="1791" y="-63.5" font-family="Helvetica,sans-Serif" font-size="10.00">cstddef</text>
</a>
</g>
</g>
<!-- Node28&#45;&gt;Node30 -->
<g id="edge68" class="edge">
<title>Node28&#45;&gt;Node30</title>
<path fill="none" stroke="midnightblue" d="M1690.01,-112.44C1709.59,-103.64 1740.31,-89.81 1762.73,-79.72"/>
<polygon fill="midnightblue" stroke="midnightblue" points="1764.39,-82.81 1772.07,-75.52 1761.52,-76.43 1764.39,-82.81"/>
</g>
<!-- Node31&#45;&gt;Node2 -->
<g id="edge70" class="edge">
<title>Node31&#45;&gt;Node2</title>
<path fill="none" stroke="midnightblue" d="M1499.29,-112.12C1505.3,-98.24 1514.02,-71.4 1500,-56 1470.11,-23.18 1160.64,-13.87 1054.5,-11.63"/>
<polygon fill="midnightblue" stroke="midnightblue" points="1054.37,-8.12 1044.3,-11.42 1054.23,-15.12 1054.37,-8.12"/>
</g>
<!-- Node31&#45;&gt;Node3 -->
<g id="edge71" class="edge">
<title>Node31&#45;&gt;Node3</title>
<path fill="none" stroke="midnightblue" d="M1494.13,-112.48C1492.17,-98.08 1485.95,-69.22 1467,-56 1434.98,-33.66 863.17,-16.9 688.35,-12.28"/>
<polygon fill="midnightblue" stroke="midnightblue" points="688.23,-8.77 678.14,-12.01 688.05,-15.77 688.23,-8.77"/>
</g>
<!-- Node31&#45;&gt;Node5 -->
<g id="edge72" class="edge">
<title>Node31&#45;&gt;Node5</title>
<path fill="none" stroke="midnightblue" d="M1507.37,-112.32C1519.16,-104.06 1537.13,-91.45 1551.14,-81.63"/>
<polygon fill="midnightblue" stroke="midnightblue" points="1553.48,-84.26 1559.66,-75.65 1549.46,-78.53 1553.48,-84.26"/>
</g>
<!-- Node31&#45;&gt;Node6 -->
<g id="edge73" class="edge">
<title>Node31&#45;&gt;Node6</title>
<path fill="none" stroke="midnightblue" d="M1485.04,-112.32C1475.87,-104.34 1462.06,-92.31 1450.97,-82.65"/>
<polygon fill="midnightblue" stroke="midnightblue" points="1452.98,-79.76 1443.14,-75.83 1448.38,-85.04 1452.98,-79.76"/>
</g>
</g>
</svg>
