<?xml version="1.0" encoding="UTF-8" standalone="no"?>
<!DOCTYPE svg PUBLIC "-//W3C//DTD SVG 1.1//EN"
 "http://www.w3.org/Graphics/SVG/1.1/DTD/svg11.dtd">
<!-- Generated by graphviz version 2.44.0 ()
 -->
<!-- Title: include/zpp/poll_event_set.hpp Pages: 1 -->
<svg width="1964pt" height="375pt"
 viewBox="0.00 0.00 1964.00 375.00" xmlns="http://www.w3.org/2000/svg" xmlns:xlink="http://www.w3.org/1999/xlink">
<g id="graph0" class="graph" transform="scale(1 1) rotate(0) translate(4 371)">
<title>include/zpp/poll_event_set.hpp</title>
<!-- Node1 -->
<g id="node1" class="node">
<title>Node1</title>
<g id="a_node1"><a xlink:title=" ">
<polygon fill="#bfbfbf" stroke="black" points="1440.5,-336.5 1440.5,-366.5 1553.5,-366.5 1553.5,-336.5 1440.5,-336.5"/>
<text text-anchor="start" x="1448.5" y="-354.5" font-family="Helvetica,sans-Serif" font-size="10.00">include/zpp/poll_event</text>
<text text-anchor="middle" x="1497" y="-343.5" font-family="Helvetica,sans-Serif" font-size="10.00">_set.hpp</text>
</a>
</g>
</g>
<!-- Node2 -->
<g id="node2" class="node">
<title>Node2</title>
<g id="a_node2"><a xlink:title=" ">
<polygon fill="none" stroke="#bfbfbf" points="667,-0.5 667,-19.5 717,-19.5 717,-0.5 667,-0.5"/>
<text text-anchor="middle" x="692" y="-7.5" font-family="Helvetica,sans-Serif" font-size="10.00">kernel.h</text>
</a>
</g>
</g>
<!-- Node1&#45;&gt;Node2 -->
<g id="edge1" class="edge">
<title>Node1&#45;&gt;Node2</title>
<path fill="none" stroke="midnightblue" d="M1440.39,-350.72C1273.69,-350.78 770.26,-346.77 356,-300 196.18,-281.96 0,-395.84 0,-235 0,-235 0,-235 0,-121 0,-84.82 17.21,-73.26 49,-56 102.51,-26.95 529.84,-14.77 656.65,-11.77"/>
<polygon fill="midnightblue" stroke="midnightblue" points="657.04,-15.26 666.95,-11.53 656.87,-8.26 657.04,-15.26"/>
</g>
<!-- Node3 -->
<g id="node3" class="node">
<title>Node3</title>
<g id="a_node3"><a xlink:title=" ">
<polygon fill="none" stroke="#bfbfbf" points="1165,-0.5 1165,-19.5 1245,-19.5 1245,-0.5 1165,-0.5"/>
<text text-anchor="middle" x="1205" y="-7.5" font-family="Helvetica,sans-Serif" font-size="10.00">sys/__assert.h</text>
</a>
</g>
</g>
<!-- Node1&#45;&gt;Node3 -->
<g id="edge2" class="edge">
<title>Node1&#45;&gt;Node3</title>
<path fill="none" stroke="midnightblue" d="M1553.74,-348.11C1676.55,-341.38 1956,-317.07 1956,-235 1956,-235 1956,-235 1956,-121 1956,-49.56 1878.38,-73.02 1809,-56 1572.1,2.11 1501.18,-48.99 1255.01,-19.96"/>
<polygon fill="midnightblue" stroke="midnightblue" points="1255.4,-16.48 1245.05,-18.75 1254.56,-23.43 1255.4,-16.48"/>
</g>
<!-- Node4 -->
<g id="node4" class="node">
<title>Node4</title>
<g id="a_node4"><a xlink:title=" ">
<polygon fill="none" stroke="#bfbfbf" points="516,-56.5 516,-75.5 562,-75.5 562,-56.5 516,-56.5"/>
<text text-anchor="middle" x="539" y="-63.5" font-family="Helvetica,sans-Serif" font-size="10.00">chrono</text>
</a>
</g>
</g>
<!-- Node1&#45;&gt;Node4 -->
<g id="edge3" class="edge">
<title>Node1&#45;&gt;Node4</title>
<path fill="none" stroke="midnightblue" d="M1440.28,-348.59C1186.42,-339.7 167,-299.93 167,-235 167,-235 167,-235 167,-177 167,-106.71 414.32,-77.91 505.64,-69.68"/>
<polygon fill="midnightblue" stroke="midnightblue" points="506.07,-73.15 515.73,-68.79 505.46,-66.18 506.07,-73.15"/>
</g>
<!-- Node5 -->
<g id="node5" class="node">
<title>Node5</title>
<g id="a_node5"><a xlink:title=" ">
<polygon fill="none" stroke="#bfbfbf" points="1651,-56.5 1651,-75.5 1691,-75.5 1691,-56.5 1651,-56.5"/>
<text text-anchor="middle" x="1671" y="-63.5" font-family="Helvetica,sans-Serif" font-size="10.00">limits</text>
</a>
</g>
</g>
<!-- Node1&#45;&gt;Node5 -->
<g id="edge4" class="edge">
<title>Node1&#45;&gt;Node5</title>
<path fill="none" stroke="midnightblue" d="M1553.53,-341.03C1609.85,-327.99 1688,-298.46 1688,-235 1688,-235 1688,-235 1688,-177 1688,-144.58 1680.7,-107.42 1675.67,-85.64"/>
<polygon fill="midnightblue" stroke="midnightblue" points="1679.03,-84.67 1673.29,-75.77 1672.23,-86.31 1679.03,-84.67"/>
</g>
<!-- Node6 -->
<g id="node6" class="node">
<title>Node6</title>
<g id="a_node6"><a xlink:title=" ">
<polygon fill="none" stroke="#bfbfbf" points="1840,-168.5 1840,-187.5 1890,-187.5 1890,-168.5 1840,-168.5"/>
<text text-anchor="middle" x="1865" y="-175.5" font-family="Helvetica,sans-Serif" font-size="10.00">optional</text>
</a>
</g>
</g>
<!-- Node1&#45;&gt;Node6 -->
<g id="edge5" class="edge">
<title>Node1&#45;&gt;Node6</title>
<path fill="none" stroke="midnightblue" d="M1553.75,-350.77C1632.3,-347.83 1772.74,-329.92 1846,-244 1857.08,-231.01 1861.7,-211.85 1863.63,-197.69"/>
<polygon fill="midnightblue" stroke="midnightblue" points="1867.12,-197.93 1864.67,-187.63 1860.16,-197.21 1867.12,-197.93"/>
</g>
<!-- Node7 -->
<g id="node7" class="node">
<title>Node7</title>
<g id="a_node7"><a xlink:title=" ">
<polygon fill="none" stroke="#bfbfbf" points="1709,-56.5 1709,-75.5 1747,-75.5 1747,-56.5 1709,-56.5"/>
<text text-anchor="middle" x="1728" y="-63.5" font-family="Helvetica,sans-Serif" font-size="10.00">array</text>
</a>
</g>
</g>
<!-- Node1&#45;&gt;Node7 -->
<g id="edge6" class="edge">
<title>Node1&#45;&gt;Node7</title>
<path fill="none" stroke="midnightblue" d="M1553.78,-346.82C1668.69,-337.81 1918,-309.65 1918,-235 1918,-235 1918,-235 1918,-177 1918,-103.72 1810.84,-78.47 1757.47,-70.43"/>
<polygon fill="midnightblue" stroke="midnightblue" points="1757.65,-66.92 1747.26,-69.01 1756.68,-73.86 1757.65,-66.92"/>
</g>
<!-- Node8 -->
<g id="node8" class="node">
<title>Node8</title>
<g id="a_node8"><a xlink:title=" ">
<polygon fill="none" stroke="#bfbfbf" points="915.5,-56.5 915.5,-75.5 954.5,-75.5 954.5,-56.5 915.5,-56.5"/>
<text text-anchor="middle" x="935" y="-63.5" font-family="Helvetica,sans-Serif" font-size="10.00">utility</text>
</a>
</g>
</g>
<!-- Node1&#45;&gt;Node8 -->
<g id="edge7" class="edge">
<title>Node1&#45;&gt;Node8</title>
<path fill="none" stroke="midnightblue" d="M1440.46,-342.17C1368.92,-329.67 1243.98,-301.16 1152,-244 1083.37,-201.35 1092.11,-159.85 1027,-112 1007.6,-97.74 982.99,-85.98 964.1,-78.06"/>
<polygon fill="midnightblue" stroke="midnightblue" points="965.39,-74.8 954.8,-74.28 962.75,-81.29 965.39,-74.8"/>
</g>
<!-- Node9 -->
<g id="node9" class="node">
<title>Node9</title>
<g id="a_node9"><a xlink:href="clock_8hpp.html" target="_top" xlink:title=" ">
<polygon fill="none" stroke="black" points="309,-112.5 309,-131.5 385,-131.5 385,-112.5 309,-112.5"/>
<text text-anchor="middle" x="347" y="-119.5" font-family="Helvetica,sans-Serif" font-size="10.00">zpp/clock.hpp</text>
</a>
</g>
</g>
<!-- Node1&#45;&gt;Node9 -->
<g id="edge8" class="edge">
<title>Node1&#45;&gt;Node9</title>
<path fill="none" stroke="midnightblue" d="M1440.31,-347.43C1284.52,-337.72 838.15,-301.29 487,-188 444.8,-174.38 398.65,-151.21 371.3,-136.52"/>
<polygon fill="midnightblue" stroke="midnightblue" points="372.9,-133.41 362.45,-131.71 369.56,-139.56 372.9,-133.41"/>
</g>
<!-- Node11 -->
<g id="node11" class="node">
<title>Node11</title>
<g id="a_node11"><a xlink:href="sem_8hpp.html" target="_top" xlink:title=" ">
<polygon fill="none" stroke="black" points="978.5,-224.5 978.5,-243.5 1049.5,-243.5 1049.5,-224.5 978.5,-224.5"/>
<text text-anchor="middle" x="1014" y="-231.5" font-family="Helvetica,sans-Serif" font-size="10.00">zpp/sem.hpp</text>
</a>
</g>
</g>
<!-- Node1&#45;&gt;Node11 -->
<g id="edge14" class="edge">
<title>Node1&#45;&gt;Node11</title>
<path fill="none" stroke="midnightblue" d="M1440.28,-350.76C1363.84,-349.4 1224.57,-340.83 1114,-300 1082.5,-288.37 1050.78,-265.39 1031.76,-250.11"/>
<polygon fill="midnightblue" stroke="midnightblue" points="1033.91,-247.34 1023.96,-243.7 1029.46,-252.75 1033.91,-247.34"/>
</g>
<!-- Node28 -->
<g id="node28" class="node">
<title>Node28</title>
<g id="a_node28"><a xlink:href="fifo_8hpp.html" target="_top" xlink:title=" ">
<polygon fill="none" stroke="black" points="1442.5,-112.5 1442.5,-131.5 1507.5,-131.5 1507.5,-112.5 1442.5,-112.5"/>
<text text-anchor="middle" x="1475" y="-119.5" font-family="Helvetica,sans-Serif" font-size="10.00">zpp/fifo.hpp</text>
</a>
</g>
</g>
<!-- Node1&#45;&gt;Node28 -->
<g id="edge64" class="edge">
<title>Node1&#45;&gt;Node28</title>
<path fill="none" stroke="midnightblue" d="M1490.54,-336.25C1486.38,-326.32 1481.33,-312.63 1479,-300 1468.52,-243.2 1471.27,-174.41 1473.47,-141.84"/>
<polygon fill="midnightblue" stroke="midnightblue" points="1476.99,-141.8 1474.24,-131.57 1470.01,-141.29 1476.99,-141.8"/>
</g>
<!-- Node31 -->
<g id="node31" class="node">
<title>Node31</title>
<g id="a_node31"><a xlink:href="poll__event_8hpp.html" target="_top" xlink:title=" ">
<polygon fill="none" stroke="black" points="1487.5,-280.5 1487.5,-299.5 1584.5,-299.5 1584.5,-280.5 1487.5,-280.5"/>
<text text-anchor="middle" x="1536" y="-287.5" font-family="Helvetica,sans-Serif" font-size="10.00">zpp/poll_event.hpp</text>
</a>
</g>
</g>
<!-- Node1&#45;&gt;Node31 -->
<g id="edge71" class="edge">
<title>Node1&#45;&gt;Node31</title>
<path fill="none" stroke="midnightblue" d="M1506.24,-336.4C1511.79,-327.93 1518.89,-317.1 1524.77,-308.14"/>
<polygon fill="midnightblue" stroke="midnightblue" points="1527.77,-309.94 1530.33,-299.66 1521.92,-306.1 1527.77,-309.94"/>
</g>
<!-- Node32 -->
<g id="node32" class="node">
<title>Node32</title>
<g id="a_node32"><a xlink:href="poll__signal_8hpp.html" target="_top" xlink:title=" ">
<polygon fill="none" stroke="black" points="1716,-224.5 1716,-243.5 1814,-243.5 1814,-224.5 1716,-224.5"/>
<text text-anchor="middle" x="1765" y="-231.5" font-family="Helvetica,sans-Serif" font-size="10.00">zpp/poll_signal.hpp</text>
</a>
</g>
</g>
<!-- Node1&#45;&gt;Node32 -->
<g id="edge85" class="edge">
<title>Node1&#45;&gt;Node32</title>
<path fill="none" stroke="midnightblue" d="M1553.65,-345.12C1596.68,-339.07 1656.07,-326.38 1702,-300 1722.99,-287.95 1741.53,-266.87 1752.97,-251.98"/>
<polygon fill="midnightblue" stroke="midnightblue" points="1756,-253.78 1759.13,-243.66 1750.37,-249.61 1756,-253.78"/>
</g>
<!-- Node9&#45;&gt;Node2 -->
<g id="edge9" class="edge">
<title>Node9&#45;&gt;Node2</title>
<path fill="none" stroke="midnightblue" d="M363.26,-112.37C394.88,-95.62 462.61,-60.01 474,-56 536.47,-34.02 612.99,-21.3 656.76,-15.3"/>
<polygon fill="midnightblue" stroke="midnightblue" points="657.44,-18.74 666.89,-13.95 656.52,-11.8 657.44,-18.74"/>
</g>
<!-- Node9&#45;&gt;Node3 -->
<g id="edge11" class="edge">
<title>Node9&#45;&gt;Node3</title>
<path fill="none" stroke="midnightblue" d="M372.13,-112.44C396.62,-103.9 434.78,-90.05 467,-76 485.22,-68.06 487.81,-61.19 507,-56 629.25,-22.95 1015.6,-13.88 1154.58,-11.66"/>
<polygon fill="midnightblue" stroke="midnightblue" points="1154.99,-15.15 1164.93,-11.5 1154.88,-8.15 1154.99,-15.15"/>
</g>
<!-- Node9&#45;&gt;Node4 -->
<g id="edge12" class="edge">
<title>Node9&#45;&gt;Node4</title>
<path fill="none" stroke="midnightblue" d="M377.42,-112.44C412.45,-102.59 469.8,-86.46 505.92,-76.3"/>
<polygon fill="midnightblue" stroke="midnightblue" points="507.27,-79.56 515.95,-73.48 505.38,-72.82 507.27,-79.56"/>
</g>
<!-- Node9&#45;&gt;Node5 -->
<g id="edge13" class="edge">
<title>Node9&#45;&gt;Node5</title>
<path fill="none" stroke="midnightblue" d="M385.05,-116.41C399.98,-114.77 417.27,-113.06 433,-112 952.5,-76.88 1085.06,-118.72 1604,-76 1616.09,-75 1629.34,-73.35 1640.84,-71.72"/>
<polygon fill="midnightblue" stroke="midnightblue" points="1641.44,-75.17 1650.83,-70.26 1640.43,-68.25 1641.44,-75.17"/>
</g>
<!-- Node10 -->
<g id="node10" class="node">
<title>Node10</title>
<g id="a_node10"><a xlink:title=" ">
<polygon fill="none" stroke="#bfbfbf" points="354,-56.5 354,-75.5 422,-75.5 422,-56.5 354,-56.5"/>
<text text-anchor="middle" x="388" y="-63.5" font-family="Helvetica,sans-Serif" font-size="10.00">sys_clock.h</text>
</a>
</g>
</g>
<!-- Node9&#45;&gt;Node10 -->
<g id="edge10" class="edge">
<title>Node9&#45;&gt;Node10</title>
<path fill="none" stroke="midnightblue" d="M353.77,-112.08C359.56,-104.46 368.06,-93.26 375.14,-83.94"/>
<polygon fill="midnightblue" stroke="midnightblue" points="378.1,-85.83 381.36,-75.75 372.52,-81.6 378.1,-85.83"/>
</g>
<!-- Node11&#45;&gt;Node2 -->
<g id="edge60" class="edge">
<title>Node11&#45;&gt;Node2</title>
<path fill="none" stroke="midnightblue" d="M978.37,-233.57C817.59,-235.25 162.84,-232.32 57,-76 52.02,-68.64 50.94,-62.5 57,-56 98.03,-11.95 529.17,-10.29 656.67,-10.77"/>
<polygon fill="midnightblue" stroke="midnightblue" points="656.68,-14.27 666.69,-10.81 656.71,-7.27 656.68,-14.27"/>
</g>
<!-- Node11&#45;&gt;Node3 -->
<g id="edge61" class="edge">
<title>Node11&#45;&gt;Node3</title>
<path fill="none" stroke="midnightblue" d="M1049.71,-227.59C1129.16,-214.77 1316.67,-180.01 1356,-132 1377.45,-105.81 1381.35,-83.05 1361,-56 1354.32,-47.12 1296.66,-32.1 1253.37,-21.88"/>
<polygon fill="midnightblue" stroke="midnightblue" points="1254.08,-18.45 1243.55,-19.58 1252.49,-25.27 1254.08,-18.45"/>
</g>
<!-- Node11&#45;&gt;Node4 -->
<g id="edge62" class="edge">
<title>Node11&#45;&gt;Node4</title>
<path fill="none" stroke="midnightblue" d="M978.27,-232.55C862.78,-230.28 503,-216.43 433,-132 427.33,-125.16 428.09,-119.41 433,-112 441.5,-99.16 478.17,-85.47 506.02,-76.61"/>
<polygon fill="midnightblue" stroke="midnightblue" points="507.29,-79.88 515.81,-73.58 505.22,-73.19 507.29,-79.88"/>
</g>
<!-- Node11&#45;&gt;Node5 -->
<g id="edge63" class="edge">
<title>Node11&#45;&gt;Node5</title>
<path fill="none" stroke="midnightblue" d="M1049.81,-228.78C1133.29,-218.3 1346.67,-187.83 1517,-132 1537.03,-125.43 1540.67,-120.41 1560,-112 1587.41,-100.08 1619.03,-87.36 1641.49,-78.5"/>
<polygon fill="midnightblue" stroke="midnightblue" points="1642.79,-81.74 1650.82,-74.83 1640.23,-75.23 1642.79,-81.74"/>
</g>
<!-- Node12 -->
<g id="node12" class="node">
<title>Node12</title>
<g id="a_node12"><a xlink:href="thread_8hpp.html" target="_top" xlink:title=" ">
<polygon fill="none" stroke="black" points="739,-168.5 739,-187.5 819,-187.5 819,-168.5 739,-168.5"/>
<text text-anchor="middle" x="779" y="-175.5" font-family="Helvetica,sans-Serif" font-size="10.00">zpp/thread.hpp</text>
</a>
</g>
</g>
<!-- Node11&#45;&gt;Node12 -->
<g id="edge15" class="edge">
<title>Node11&#45;&gt;Node12</title>
<path fill="none" stroke="midnightblue" d="M978.31,-224.8C937.6,-215.44 870.89,-200.12 825.99,-189.8"/>
<polygon fill="midnightblue" stroke="midnightblue" points="826.72,-186.38 816.19,-187.55 825.16,-193.2 826.72,-186.38"/>
</g>
<!-- Node12&#45;&gt;Node2 -->
<g id="edge52" class="edge">
<title>Node12&#45;&gt;Node2</title>
<path fill="none" stroke="midnightblue" d="M738.67,-176.25C628.61,-173.8 329.31,-164.19 300,-132 272.21,-101.47 310.74,-75.23 345,-56 397.87,-26.33 579.26,-15.57 656.61,-12.27"/>
<polygon fill="midnightblue" stroke="midnightblue" points="656.96,-15.76 666.8,-11.85 656.67,-8.76 656.96,-15.76"/>
</g>
<!-- Node12&#45;&gt;Node3 -->
<g id="edge53" class="edge">
<title>Node12&#45;&gt;Node3</title>
<path fill="none" stroke="midnightblue" d="M819.21,-175.13C943.84,-169.14 1316.37,-149.83 1335,-132 1359.5,-108.54 1361.89,-83.47 1342,-56 1331.48,-41.47 1289.78,-29.1 1255.12,-21.03"/>
<polygon fill="midnightblue" stroke="midnightblue" points="1255.63,-17.56 1245.1,-18.77 1254.09,-24.38 1255.63,-17.56"/>
</g>
<!-- Node12&#45;&gt;Node4 -->
<g id="edge56" class="edge">
<title>Node12&#45;&gt;Node4</title>
<path fill="none" stroke="midnightblue" d="M772.22,-168.42C760.73,-154.45 736.02,-126.89 709,-112 685.53,-99.07 614.33,-82.72 571.88,-73.71"/>
<polygon fill="midnightblue" stroke="midnightblue" points="572.51,-70.27 562.01,-71.64 571.07,-77.12 572.51,-70.27"/>
</g>
<!-- Node12&#45;&gt;Node8 -->
<g id="edge58" class="edge">
<title>Node12&#45;&gt;Node8</title>
<path fill="none" stroke="midnightblue" d="M819.01,-175.17C878.83,-171.51 987.12,-160.96 1011,-132 1029.08,-110.07 992.96,-89.61 964.57,-77.7"/>
<polygon fill="midnightblue" stroke="midnightblue" points="965.53,-74.32 954.95,-73.86 962.93,-80.82 965.53,-74.32"/>
</g>
<!-- Node12&#45;&gt;Node9 -->
<g id="edge36" class="edge">
<title>Node12&#45;&gt;Node9</title>
<path fill="none" stroke="midnightblue" d="M738.75,-171.97C658.94,-161.99 480.97,-139.75 395.13,-129.02"/>
<polygon fill="midnightblue" stroke="midnightblue" points="395.49,-125.53 385.13,-127.77 394.62,-132.48 395.49,-125.53"/>
</g>
<!-- Node13 -->
<g id="node13" class="node">
<title>Node13</title>
<g id="a_node13"><a xlink:href="thread__prio_8hpp.html" target="_top" xlink:title=" ">
<polygon fill="none" stroke="black" points="796.5,-56.5 796.5,-75.5 897.5,-75.5 897.5,-56.5 796.5,-56.5"/>
<text text-anchor="middle" x="847" y="-63.5" font-family="Helvetica,sans-Serif" font-size="10.00">zpp/thread_prio.hpp</text>
</a>
</g>
</g>
<!-- Node12&#45;&gt;Node13 -->
<g id="edge16" class="edge">
<title>Node12&#45;&gt;Node13</title>
<path fill="none" stroke="midnightblue" d="M819.06,-174.53C875.3,-170.13 973.25,-158.75 995,-132 1000.61,-125.1 1000.29,-119.14 995,-112 984.07,-97.26 942.64,-85.43 906.38,-77.61"/>
<polygon fill="midnightblue" stroke="midnightblue" points="906.83,-74.13 896.32,-75.51 905.4,-80.98 906.83,-74.13"/>
</g>
<!-- Node14 -->
<g id="node14" class="node">
<title>Node14</title>
<g id="a_node14"><a xlink:href="thread__id_8hpp.html" target="_top" xlink:title=" ">
<polygon fill="none" stroke="black" points="1049,-56.5 1049,-75.5 1141,-75.5 1141,-56.5 1049,-56.5"/>
<text text-anchor="middle" x="1095" y="-63.5" font-family="Helvetica,sans-Serif" font-size="10.00">zpp/thread_id.hpp</text>
</a>
</g>
</g>
<!-- Node12&#45;&gt;Node14 -->
<g id="edge19" class="edge">
<title>Node12&#45;&gt;Node14</title>
<path fill="none" stroke="midnightblue" d="M819.03,-176.71C870,-174.83 959.55,-166.36 1027,-132 1049.63,-120.47 1069.85,-98.97 1082.25,-83.86"/>
<polygon fill="midnightblue" stroke="midnightblue" points="1085.14,-85.84 1088.6,-75.83 1079.65,-81.5 1085.14,-85.84"/>
</g>
<!-- Node15 -->
<g id="node15" class="node">
<title>Node15</title>
<g id="a_node15"><a xlink:href="thread__attr_8hpp.html" target="_top" xlink:title=" ">
<polygon fill="none" stroke="black" points="886.5,-112.5 886.5,-131.5 985.5,-131.5 985.5,-112.5 886.5,-112.5"/>
<text text-anchor="middle" x="936" y="-119.5" font-family="Helvetica,sans-Serif" font-size="10.00">zpp/thread_attr.hpp</text>
</a>
</g>
</g>
<!-- Node12&#45;&gt;Node15 -->
<g id="edge22" class="edge">
<title>Node12&#45;&gt;Node15</title>
<path fill="none" stroke="midnightblue" d="M803.88,-168.44C830.29,-159.36 872.22,-144.94 901.74,-134.78"/>
<polygon fill="midnightblue" stroke="midnightblue" points="902.92,-138.08 911.24,-131.52 900.64,-131.46 902.92,-138.08"/>
</g>
<!-- Node16 -->
<g id="node16" class="node">
<title>Node16</title>
<g id="a_node16"><a xlink:href="thread__data_8hpp.html" target="_top" xlink:title=" ">
<polygon fill="none" stroke="black" points="66,-56.5 66,-75.5 170,-75.5 170,-56.5 66,-56.5"/>
<text text-anchor="middle" x="118" y="-63.5" font-family="Helvetica,sans-Serif" font-size="10.00">zpp/thread_data.hpp</text>
</a>
</g>
</g>
<!-- Node12&#45;&gt;Node16 -->
<g id="edge28" class="edge">
<title>Node12&#45;&gt;Node16</title>
<path fill="none" stroke="midnightblue" d="M738.69,-175.53C631.46,-171.31 341.16,-157.77 249,-132 208.24,-120.6 165.01,-96.49 139.82,-81.05"/>
<polygon fill="midnightblue" stroke="midnightblue" points="141.43,-77.93 131.09,-75.6 137.72,-83.86 141.43,-77.93"/>
</g>
<!-- Node18 -->
<g id="node18" class="node">
<title>Node18</title>
<g id="a_node18"><a xlink:href="thread__stack_8hpp.html" target="_top" xlink:title=" ">
<polygon fill="none" stroke="black" points="188.5,-56.5 188.5,-75.5 297.5,-75.5 297.5,-56.5 188.5,-56.5"/>
<text text-anchor="middle" x="243" y="-63.5" font-family="Helvetica,sans-Serif" font-size="10.00">zpp/thread_stack.hpp</text>
</a>
</g>
</g>
<!-- Node12&#45;&gt;Node18 -->
<g id="edge32" class="edge">
<title>Node12&#45;&gt;Node18</title>
<path fill="none" stroke="midnightblue" d="M738.95,-175.92C624.91,-172.5 304.23,-160.44 267,-132 252.83,-121.18 247.02,-101.1 244.65,-86.11"/>
<polygon fill="midnightblue" stroke="midnightblue" points="248.08,-85.39 243.41,-75.88 241.13,-86.22 248.08,-85.39"/>
</g>
<!-- Node19 -->
<g id="node19" class="node">
<title>Node19</title>
<g id="a_node19"><a xlink:href="result_8hpp.html" target="_top" xlink:title=" ">
<polygon fill="none" stroke="black" points="1232.5,-112.5 1232.5,-131.5 1309.5,-131.5 1309.5,-112.5 1232.5,-112.5"/>
<text text-anchor="middle" x="1271" y="-119.5" font-family="Helvetica,sans-Serif" font-size="10.00">zpp/result.hpp</text>
</a>
</g>
</g>
<!-- Node12&#45;&gt;Node19 -->
<g id="edge37" class="edge">
<title>Node12&#45;&gt;Node19</title>
<path fill="none" stroke="midnightblue" d="M819.26,-172.58C908.94,-162.74 1124.86,-139.04 1222.09,-128.37"/>
<polygon fill="midnightblue" stroke="midnightblue" points="1222.68,-131.82 1232.24,-127.25 1221.91,-124.87 1222.68,-131.82"/>
</g>
<!-- Node20 -->
<g id="node20" class="node">
<title>Node20</title>
<g id="a_node20"><a xlink:href="error__code_8hpp.html" target="_top" xlink:title=" ">
<polygon fill="none" stroke="black" points="1235,-56.5 1235,-75.5 1333,-75.5 1333,-56.5 1235,-56.5"/>
<text text-anchor="middle" x="1284" y="-63.5" font-family="Helvetica,sans-Serif" font-size="10.00">zpp/error_code.hpp</text>
</a>
</g>
</g>
<!-- Node12&#45;&gt;Node20 -->
<g id="edge45" class="edge">
<title>Node12&#45;&gt;Node20</title>
<path fill="none" stroke="midnightblue" d="M819.01,-175.14C941.17,-169.26 1302.08,-150.39 1319,-132 1332.4,-117.44 1316.9,-96.8 1302.49,-82.71"/>
<polygon fill="midnightblue" stroke="midnightblue" points="1304.52,-79.82 1294.79,-75.63 1299.79,-84.97 1304.52,-79.82"/>
</g>
<!-- Node22 -->
<g id="node22" class="node">
<title>Node22</title>
<g id="a_node22"><a xlink:href="heap_8hpp.html" target="_top" xlink:title=" ">
<polygon fill="none" stroke="black" points="794,-112.5 794,-131.5 868,-131.5 868,-112.5 794,-112.5"/>
<text text-anchor="middle" x="831" y="-119.5" font-family="Helvetica,sans-Serif" font-size="10.00">zpp/heap.hpp</text>
</a>
</g>
</g>
<!-- Node12&#45;&gt;Node22 -->
<g id="edge46" class="edge">
<title>Node12&#45;&gt;Node22</title>
<path fill="none" stroke="midnightblue" d="M787.59,-168.08C795.16,-160.22 806.38,-148.57 815.51,-139.08"/>
<polygon fill="midnightblue" stroke="midnightblue" points="818.16,-141.38 822.57,-131.75 813.12,-136.53 818.16,-141.38"/>
</g>
<!-- Node24 -->
<g id="node24" class="node">
<title>Node24</title>
<g id="a_node24"><a xlink:title=" ">
<polygon fill="none" stroke="#bfbfbf" points="441.5,-112.5 441.5,-131.5 496.5,-131.5 496.5,-112.5 441.5,-112.5"/>
<text text-anchor="middle" x="469" y="-119.5" font-family="Helvetica,sans-Serif" font-size="10.00">sys/util.h</text>
</a>
</g>
</g>
<!-- Node12&#45;&gt;Node24 -->
<g id="edge54" class="edge">
<title>Node12&#45;&gt;Node24</title>
<path fill="none" stroke="midnightblue" d="M738.58,-171.31C687.07,-163.84 595.09,-149.8 506.75,-132.02"/>
<polygon fill="midnightblue" stroke="midnightblue" points="507.33,-128.57 496.83,-130.01 505.93,-135.43 507.33,-128.57"/>
</g>
<!-- Node25 -->
<g id="node25" class="node">
<title>Node25</title>
<g id="a_node25"><a xlink:title=" ">
<polygon fill="none" stroke="#bfbfbf" points="514.5,-112.5 514.5,-131.5 573.5,-131.5 573.5,-112.5 514.5,-112.5"/>
<text text-anchor="middle" x="544" y="-119.5" font-family="Helvetica,sans-Serif" font-size="10.00">functional</text>
</a>
</g>
</g>
<!-- Node12&#45;&gt;Node25 -->
<g id="edge55" class="edge">
<title>Node12&#45;&gt;Node25</title>
<path fill="none" stroke="midnightblue" d="M741.79,-168.47C704.36,-159.89 644.73,-146.2 583.63,-132.14"/>
<polygon fill="midnightblue" stroke="midnightblue" points="584.34,-128.72 573.81,-129.88 582.77,-135.54 584.34,-128.72"/>
</g>
<!-- Node26 -->
<g id="node26" class="node">
<title>Node26</title>
<g id="a_node26"><a xlink:title=" ">
<polygon fill="none" stroke="#bfbfbf" points="592,-112.5 592,-131.5 630,-131.5 630,-112.5 592,-112.5"/>
<text text-anchor="middle" x="611" y="-119.5" font-family="Helvetica,sans-Serif" font-size="10.00">tuple</text>
</a>
</g>
</g>
<!-- Node12&#45;&gt;Node26 -->
<g id="edge57" class="edge">
<title>Node12&#45;&gt;Node26</title>
<path fill="none" stroke="midnightblue" d="M752.38,-168.44C721.66,-158.57 671.32,-142.39 639.73,-132.23"/>
<polygon fill="midnightblue" stroke="midnightblue" points="640.77,-128.89 630.18,-129.16 638.63,-135.56 640.77,-128.89"/>
</g>
<!-- Node27 -->
<g id="node27" class="node">
<title>Node27</title>
<g id="a_node27"><a xlink:title=" ">
<polygon fill="none" stroke="#bfbfbf" points="648.5,-112.5 648.5,-131.5 699.5,-131.5 699.5,-112.5 648.5,-112.5"/>
<text text-anchor="middle" x="674" y="-119.5" font-family="Helvetica,sans-Serif" font-size="10.00">memory</text>
</a>
</g>
</g>
<!-- Node12&#45;&gt;Node27 -->
<g id="edge59" class="edge">
<title>Node12&#45;&gt;Node27</title>
<path fill="none" stroke="midnightblue" d="M762.13,-168.32C745.29,-159.66 719.19,-146.24 699.76,-136.25"/>
<polygon fill="midnightblue" stroke="midnightblue" points="701.32,-133.12 690.83,-131.65 698.12,-139.34 701.32,-133.12"/>
</g>
<!-- Node13&#45;&gt;Node2 -->
<g id="edge17" class="edge">
<title>Node13&#45;&gt;Node2</title>
<path fill="none" stroke="midnightblue" d="M822.44,-56.44C796.48,-47.4 755.33,-33.06 726.2,-22.92"/>
<polygon fill="midnightblue" stroke="midnightblue" points="727.04,-19.5 716.45,-19.52 724.74,-26.11 727.04,-19.5"/>
</g>
<!-- Node13&#45;&gt;Node3 -->
<g id="edge18" class="edge">
<title>Node13&#45;&gt;Node3</title>
<path fill="none" stroke="midnightblue" d="M897.53,-57.38C965.82,-47.08 1086.84,-28.82 1154.9,-18.56"/>
<polygon fill="midnightblue" stroke="midnightblue" points="1155.59,-21.99 1164.95,-17.04 1154.54,-15.07 1155.59,-21.99"/>
</g>
<!-- Node14&#45;&gt;Node2 -->
<g id="edge20" class="edge">
<title>Node14&#45;&gt;Node2</title>
<path fill="none" stroke="midnightblue" d="M1048.82,-57.99C1044.16,-57.3 1039.49,-56.63 1035,-56 922.84,-40.23 789.79,-23.27 727.49,-15.44"/>
<polygon fill="midnightblue" stroke="midnightblue" points="727.77,-11.94 717.41,-14.17 726.9,-18.89 727.77,-11.94"/>
</g>
<!-- Node14&#45;&gt;Node3 -->
<g id="edge21" class="edge">
<title>Node14&#45;&gt;Node3</title>
<path fill="none" stroke="midnightblue" d="M1112.67,-56.32C1130.39,-47.62 1157.9,-34.12 1178.29,-24.11"/>
<polygon fill="midnightblue" stroke="midnightblue" points="1179.94,-27.2 1187.37,-19.65 1176.85,-20.92 1179.94,-27.2"/>
</g>
<!-- Node15&#45;&gt;Node2 -->
<g id="edge24" class="edge">
<title>Node15&#45;&gt;Node2</title>
<path fill="none" stroke="midnightblue" d="M888.77,-112.44C842.81,-103.56 776.66,-89.15 754,-76 733.22,-63.95 715,-42.87 703.78,-27.98"/>
<polygon fill="midnightblue" stroke="midnightblue" points="706.45,-25.7 697.74,-19.66 700.78,-29.81 706.45,-25.7"/>
</g>
<!-- Node15&#45;&gt;Node3 -->
<g id="edge25" class="edge">
<title>Node15&#45;&gt;Node3</title>
<path fill="none" stroke="midnightblue" d="M886.68,-112.49C848.42,-104.77 799.95,-92.13 788,-76 782.71,-68.86 782.06,-62.61 788,-56 812.13,-29.13 1049.3,-16.88 1154.82,-12.73"/>
<polygon fill="midnightblue" stroke="midnightblue" points="1155.05,-16.22 1164.91,-12.34 1154.79,-9.23 1155.05,-16.22"/>
</g>
<!-- Node15&#45;&gt;Node4 -->
<g id="edge26" class="edge">
<title>Node15&#45;&gt;Node4</title>
<path fill="none" stroke="midnightblue" d="M886.44,-113.37C883.24,-112.9 880.08,-112.44 877,-112 818.49,-103.64 645.62,-80.95 572.38,-71.36"/>
<polygon fill="midnightblue" stroke="midnightblue" points="572.7,-67.87 562.33,-70.05 571.79,-74.81 572.7,-67.87"/>
</g>
<!-- Node15&#45;&gt;Node8 -->
<g id="edge27" class="edge">
<title>Node15&#45;&gt;Node8</title>
<path fill="none" stroke="midnightblue" d="M935.83,-112.08C935.7,-105.01 935.52,-94.86 935.35,-85.99"/>
<polygon fill="midnightblue" stroke="midnightblue" points="938.85,-85.68 935.16,-75.75 931.85,-85.81 938.85,-85.68"/>
</g>
<!-- Node15&#45;&gt;Node13 -->
<g id="edge23" class="edge">
<title>Node15&#45;&gt;Node13</title>
<path fill="none" stroke="midnightblue" d="M921.7,-112.32C907.82,-103.9 886.51,-90.97 870.2,-81.07"/>
<polygon fill="midnightblue" stroke="midnightblue" points="871.63,-77.85 861.26,-75.65 868,-83.83 871.63,-77.85"/>
</g>
<!-- Node16&#45;&gt;Node2 -->
<g id="edge29" class="edge">
<title>Node16&#45;&gt;Node2</title>
<path fill="none" stroke="midnightblue" d="M170.22,-57.09C173.19,-56.7 176.13,-56.34 179,-56 358.06,-34.96 573.35,-19.14 656.67,-13.38"/>
<polygon fill="midnightblue" stroke="midnightblue" points="657.12,-16.85 666.86,-12.68 656.64,-9.87 657.12,-16.85"/>
</g>
<!-- Node16&#45;&gt;Node3 -->
<g id="edge31" class="edge">
<title>Node16&#45;&gt;Node3</title>
<path fill="none" stroke="midnightblue" d="M170.2,-56.94C173.17,-56.59 176.12,-56.27 179,-56 552.53,-20.35 1005.29,-12.9 1154.59,-11.38"/>
<polygon fill="midnightblue" stroke="midnightblue" points="1154.84,-14.88 1164.81,-11.28 1154.77,-7.88 1154.84,-14.88"/>
</g>
<!-- Node17 -->
<g id="node17" class="node">
<title>Node17</title>
<g id="a_node17"><a xlink:title=" ">
<polygon fill="none" stroke="#bfbfbf" points="129,-0.5 129,-19.5 233,-19.5 233,-0.5 129,-0.5"/>
<text text-anchor="middle" x="181" y="-7.5" font-family="Helvetica,sans-Serif" font-size="10.00">sys/arch_interface.h</text>
</a>
</g>
</g>
<!-- Node16&#45;&gt;Node17 -->
<g id="edge30" class="edge">
<title>Node16&#45;&gt;Node17</title>
<path fill="none" stroke="midnightblue" d="M128.12,-56.32C137.53,-48.26 151.74,-36.08 163.07,-26.37"/>
<polygon fill="midnightblue" stroke="midnightblue" points="165.38,-29 170.69,-19.83 160.82,-23.68 165.38,-29"/>
</g>
<!-- Node18&#45;&gt;Node2 -->
<g id="edge33" class="edge">
<title>Node18&#45;&gt;Node2</title>
<path fill="none" stroke="midnightblue" d="M297.61,-57.82C302.47,-57.2 307.32,-56.58 312,-56 438.72,-40.23 589.38,-22.77 656.59,-15.05"/>
<polygon fill="midnightblue" stroke="midnightblue" points="657.1,-18.52 666.64,-13.9 656.31,-11.56 657.1,-18.52"/>
</g>
<!-- Node18&#45;&gt;Node3 -->
<g id="edge35" class="edge">
<title>Node18&#45;&gt;Node3</title>
<path fill="none" stroke="midnightblue" d="M297.76,-59.81C313.04,-58.45 329.66,-57.08 345,-56 652.12,-34.42 1021.61,-18.44 1154.41,-13.02"/>
<polygon fill="midnightblue" stroke="midnightblue" points="1154.82,-16.5 1164.67,-12.6 1154.54,-9.51 1154.82,-16.5"/>
</g>
<!-- Node18&#45;&gt;Node17 -->
<g id="edge34" class="edge">
<title>Node18&#45;&gt;Node17</title>
<path fill="none" stroke="midnightblue" d="M233.04,-56.32C223.87,-48.34 210.06,-36.31 198.97,-26.65"/>
<polygon fill="midnightblue" stroke="midnightblue" points="200.98,-23.76 191.14,-19.83 196.38,-29.04 200.98,-23.76"/>
</g>
<!-- Node19&#45;&gt;Node2 -->
<g id="edge38" class="edge">
<title>Node19&#45;&gt;Node2</title>
<path fill="none" stroke="midnightblue" d="M1259,-112.44C1238.04,-97.99 1192.89,-69.05 1150,-56 1070.88,-31.92 820.21,-17.36 727.19,-12.67"/>
<polygon fill="midnightblue" stroke="midnightblue" points="727.32,-9.17 717.16,-12.17 726.97,-16.16 727.32,-9.17"/>
</g>
<!-- Node19&#45;&gt;Node3 -->
<g id="edge39" class="edge">
<title>Node19&#45;&gt;Node3</title>
<path fill="none" stroke="midnightblue" d="M1259.88,-112.5C1249.74,-104.2 1234.99,-90.7 1226,-76 1217.2,-61.62 1211.7,-43.16 1208.54,-29.59"/>
<polygon fill="midnightblue" stroke="midnightblue" points="1211.91,-28.6 1206.43,-19.54 1205.06,-30.05 1211.91,-28.6"/>
</g>
<!-- Node19&#45;&gt;Node8 -->
<g id="edge44" class="edge">
<title>Node19&#45;&gt;Node8</title>
<path fill="none" stroke="midnightblue" d="M1232.46,-114.81C1164.81,-103.93 1026.11,-81.64 965.02,-71.82"/>
<polygon fill="midnightblue" stroke="midnightblue" points="965.32,-68.33 954.89,-70.2 964.21,-75.24 965.32,-68.33"/>
</g>
<!-- Node19&#45;&gt;Node20 -->
<g id="edge40" class="edge">
<title>Node19&#45;&gt;Node20</title>
<path fill="none" stroke="midnightblue" d="M1273.15,-112.08C1274.87,-104.93 1277.35,-94.64 1279.5,-85.69"/>
<polygon fill="midnightblue" stroke="midnightblue" points="1282.96,-86.29 1281.89,-75.75 1276.15,-84.65 1282.96,-86.29"/>
</g>
<!-- Node20&#45;&gt;Node2 -->
<g id="edge41" class="edge">
<title>Node20&#45;&gt;Node2</title>
<path fill="none" stroke="midnightblue" d="M1234.8,-60.51C1118.36,-49.89 828.15,-23.42 727.24,-14.21"/>
<polygon fill="midnightblue" stroke="midnightblue" points="727.53,-10.73 717.26,-13.3 726.9,-17.7 727.53,-10.73"/>
</g>
<!-- Node20&#45;&gt;Node3 -->
<g id="edge42" class="edge">
<title>Node20&#45;&gt;Node3</title>
<path fill="none" stroke="midnightblue" d="M1271.31,-56.32C1259.1,-47.98 1240.42,-35.21 1226,-25.35"/>
<polygon fill="midnightblue" stroke="midnightblue" points="1227.89,-22.41 1217.66,-19.65 1223.94,-28.19 1227.89,-22.41"/>
</g>
<!-- Node21 -->
<g id="node21" class="node">
<title>Node21</title>
<g id="a_node21"><a xlink:title=" ">
<polygon fill="none" stroke="#bfbfbf" points="1263,-0.5 1263,-19.5 1309,-19.5 1309,-0.5 1263,-0.5"/>
<text text-anchor="middle" x="1286" y="-7.5" font-family="Helvetica,sans-Serif" font-size="10.00">errno.h</text>
</a>
</g>
</g>
<!-- Node20&#45;&gt;Node21 -->
<g id="edge43" class="edge">
<title>Node20&#45;&gt;Node21</title>
<path fill="none" stroke="midnightblue" d="M1284.33,-56.08C1284.59,-49.01 1284.97,-38.86 1285.3,-29.99"/>
<polygon fill="midnightblue" stroke="midnightblue" points="1288.8,-29.87 1285.68,-19.75 1281.81,-29.61 1288.8,-29.87"/>
</g>
<!-- Node22&#45;&gt;Node2 -->
<g id="edge47" class="edge">
<title>Node22&#45;&gt;Node2</title>
<path fill="none" stroke="midnightblue" d="M793.94,-114.11C731.54,-102.41 611.94,-79.6 609,-76 590.6,-53.5 626.97,-33.9 657.24,-22.26"/>
<polygon fill="midnightblue" stroke="midnightblue" points="658.59,-25.5 666.78,-18.77 656.18,-18.92 658.59,-25.5"/>
</g>
<!-- Node22&#45;&gt;Node3 -->
<g id="edge48" class="edge">
<title>Node22&#45;&gt;Node3</title>
<path fill="none" stroke="midnightblue" d="M815.37,-112.33C794.38,-99.62 761.6,-75.34 779,-56 803.73,-28.51 1047.14,-16.58 1154.53,-12.62"/>
<polygon fill="midnightblue" stroke="midnightblue" points="1154.92,-16.1 1164.79,-12.25 1154.67,-9.11 1154.92,-16.1"/>
</g>
<!-- Node22&#45;&gt;Node4 -->
<g id="edge49" class="edge">
<title>Node22&#45;&gt;Node4</title>
<path fill="none" stroke="midnightblue" d="M793.76,-114.43C723.14,-101.98 576.67,-76.14 576,-76 574.73,-75.73 573.43,-75.45 572.12,-75.17"/>
<polygon fill="midnightblue" stroke="midnightblue" points="572.57,-71.68 562.04,-72.85 571,-78.5 572.57,-71.68"/>
</g>
<!-- Node22&#45;&gt;Node7 -->
<g id="edge50" class="edge">
<title>Node22&#45;&gt;Node7</title>
<path fill="none" stroke="midnightblue" d="M868.12,-113.37C871.45,-112.85 874.78,-112.38 878,-112 1237.92,-69.88 1338.25,-139.25 1698.96,-75.66"/>
<polygon fill="midnightblue" stroke="midnightblue" points="1699.66,-79.09 1708.89,-73.89 1698.43,-72.2 1699.66,-79.09"/>
</g>
<!-- Node23 -->
<g id="node23" class="node">
<title>Node23</title>
<g id="a_node23"><a xlink:title=" ">
<polygon fill="none" stroke="#bfbfbf" points="618,-56.5 618,-75.5 664,-75.5 664,-56.5 618,-56.5"/>
<text text-anchor="middle" x="641" y="-63.5" font-family="Helvetica,sans-Serif" font-size="10.00">cstdint</text>
</a>
</g>
</g>
<!-- Node22&#45;&gt;Node23 -->
<g id="edge51" class="edge">
<title>Node22&#45;&gt;Node23</title>
<path fill="none" stroke="midnightblue" d="M800.89,-112.44C766.32,-102.62 709.79,-86.55 674.03,-76.39"/>
<polygon fill="midnightblue" stroke="midnightblue" points="674.67,-72.93 664.09,-73.56 672.75,-79.66 674.67,-72.93"/>
</g>
<!-- Node28&#45;&gt;Node2 -->
<g id="edge65" class="edge">
<title>Node28&#45;&gt;Node2</title>
<path fill="none" stroke="midnightblue" d="M1461.71,-112.33C1438.52,-97.7 1388.67,-68.51 1342,-56 1224.52,-24.52 845.78,-14.17 727.58,-11.67"/>
<polygon fill="midnightblue" stroke="midnightblue" points="727.36,-8.16 717.29,-11.46 727.21,-15.16 727.36,-8.16"/>
</g>
<!-- Node28&#45;&gt;Node3 -->
<g id="edge66" class="edge">
<title>Node28&#45;&gt;Node3</title>
<path fill="none" stroke="midnightblue" d="M1507.7,-114.1C1542.05,-106.12 1592.63,-92 1604,-76 1609.15,-68.75 1609.96,-62.6 1604,-56 1553.56,-0.11 1347.51,-28.74 1255.22,-19.83"/>
<polygon fill="midnightblue" stroke="midnightblue" points="1255.41,-16.33 1245.07,-18.63 1254.59,-23.28 1255.41,-16.33"/>
</g>
<!-- Node28&#45;&gt;Node4 -->
<g id="edge67" class="edge">
<title>Node28&#45;&gt;Node4</title>
<path fill="none" stroke="midnightblue" d="M1442.44,-119.06C1410.88,-117.19 1361.66,-114.31 1319,-112 1003.5,-94.9 923.7,-104.17 609,-76 597.04,-74.93 583.98,-73.36 572.41,-71.83"/>
<polygon fill="midnightblue" stroke="midnightblue" points="572.66,-68.33 562.28,-70.45 571.72,-75.27 572.66,-68.33"/>
</g>
<!-- Node28&#45;&gt;Node5 -->
<g id="edge68" class="edge">
<title>Node28&#45;&gt;Node5</title>
<path fill="none" stroke="midnightblue" d="M1506.06,-112.44C1543,-102.27 1604.24,-85.39 1640.8,-75.32"/>
<polygon fill="midnightblue" stroke="midnightblue" points="1642.15,-78.58 1650.86,-72.55 1640.29,-71.83 1642.15,-78.58"/>
</g>
<!-- Node29 -->
<g id="node29" class="node">
<title>Node29</title>
<g id="a_node29"><a xlink:title=" ">
<polygon fill="none" stroke="#bfbfbf" points="1465,-56.5 1465,-75.5 1527,-75.5 1527,-56.5 1465,-56.5"/>
<text text-anchor="middle" x="1496" y="-63.5" font-family="Helvetica,sans-Serif" font-size="10.00">type_traits</text>
</a>
</g>
</g>
<!-- Node28&#45;&gt;Node29 -->
<g id="edge69" class="edge">
<title>Node28&#45;&gt;Node29</title>
<path fill="none" stroke="midnightblue" d="M1478.47,-112.08C1481.31,-104.77 1485.43,-94.18 1488.96,-85.1"/>
<polygon fill="midnightblue" stroke="midnightblue" points="1492.23,-86.34 1492.6,-75.75 1485.71,-83.8 1492.23,-86.34"/>
</g>
<!-- Node30 -->
<g id="node30" class="node">
<title>Node30</title>
<g id="a_node30"><a xlink:title=" ">
<polygon fill="none" stroke="#bfbfbf" points="1545.5,-56.5 1545.5,-75.5 1594.5,-75.5 1594.5,-56.5 1545.5,-56.5"/>
<text text-anchor="middle" x="1570" y="-63.5" font-family="Helvetica,sans-Serif" font-size="10.00">cstddef</text>
</a>
</g>
</g>
<!-- Node28&#45;&gt;Node30 -->
<g id="edge70" class="edge">
<title>Node28&#45;&gt;Node30</title>
<path fill="none" stroke="midnightblue" d="M1490.26,-112.32C1505.22,-103.82 1528.25,-90.73 1545.73,-80.8"/>
<polygon fill="midnightblue" stroke="midnightblue" points="1547.81,-83.64 1554.77,-75.65 1544.35,-77.55 1547.81,-83.64"/>
</g>
<!-- Node31&#45;&gt;Node2 -->
<g id="edge72" class="edge">
<title>Node31&#45;&gt;Node2</title>
<path fill="none" stroke="midnightblue" d="M1509.8,-280.41C1430.6,-254.07 1187.4,-170.48 997,-76 981.64,-68.38 980.08,-61.95 964,-56 882.74,-25.93 780.39,-15.89 727.41,-12.58"/>
<polygon fill="midnightblue" stroke="midnightblue" points="727.37,-9.07 717.19,-11.99 726.97,-16.06 727.37,-9.07"/>
</g>
<!-- Node31&#45;&gt;Node3 -->
<g id="edge73" class="edge">
<title>Node31&#45;&gt;Node3</title>
<path fill="none" stroke="midnightblue" d="M1555.96,-280.37C1623.98,-249.85 1838.07,-144.16 1756,-56 1719.54,-16.83 1343.89,-26.13 1255.21,-19.7"/>
<polygon fill="midnightblue" stroke="midnightblue" points="1255.34,-16.19 1245.06,-18.73 1254.68,-23.16 1255.34,-16.19"/>
</g>
<!-- Node31&#45;&gt;Node4 -->
<g id="edge74" class="edge">
<title>Node31&#45;&gt;Node4</title>
<path fill="none" stroke="midnightblue" d="M1487.36,-286.11C1414.03,-281.12 1271.08,-268.94 1152,-244 985.08,-209.05 945.67,-189.17 785,-132 762.84,-124.11 758.43,-119.09 736,-112 679.34,-94.1 611.43,-80.19 571.95,-72.82"/>
<polygon fill="midnightblue" stroke="midnightblue" points="572.54,-69.37 562.07,-71.01 571.28,-76.26 572.54,-69.37"/>
</g>
<!-- Node31&#45;&gt;Node5 -->
<g id="edge75" class="edge">
<title>Node31&#45;&gt;Node5</title>
<path fill="none" stroke="midnightblue" d="M1536.98,-280.27C1540.47,-252.68 1554.52,-166.03 1598,-112 1609.41,-97.82 1626.56,-86.93 1641.38,-79.41"/>
<polygon fill="midnightblue" stroke="midnightblue" points="1643.18,-82.43 1650.69,-74.96 1640.16,-76.11 1643.18,-82.43"/>
</g>
<!-- Node31&#45;&gt;Node6 -->
<g id="edge76" class="edge">
<title>Node31&#45;&gt;Node6</title>
<path fill="none" stroke="midnightblue" d="M1584.73,-286.14C1656.05,-281.17 1784.57,-268.98 1823,-244 1840.02,-232.94 1851.59,-212.28 1858.2,-197.22"/>
<polygon fill="midnightblue" stroke="midnightblue" points="1861.48,-198.45 1862,-187.87 1854.99,-195.82 1861.48,-198.45"/>
</g>
<!-- Node31&#45;&gt;Node7 -->
<g id="edge77" class="edge">
<title>Node31&#45;&gt;Node7</title>
<path fill="none" stroke="midnightblue" d="M1540.54,-280.27C1558.17,-246.46 1621.87,-125.31 1636,-112 1645.79,-102.77 1676.17,-88.72 1699.37,-78.78"/>
<polygon fill="midnightblue" stroke="midnightblue" points="1700.94,-81.92 1708.79,-74.8 1698.21,-75.47 1700.94,-81.92"/>
</g>
<!-- Node31&#45;&gt;Node11 -->
<g id="edge78" class="edge">
<title>Node31&#45;&gt;Node11</title>
<path fill="none" stroke="midnightblue" d="M1487.24,-284.98C1403.17,-277.89 1225.56,-262.16 1076,-244 1070.8,-243.37 1065.37,-242.66 1059.97,-241.92"/>
<polygon fill="midnightblue" stroke="midnightblue" points="1060.09,-238.4 1049.7,-240.47 1059.11,-245.33 1060.09,-238.4"/>
</g>
<!-- Node31&#45;&gt;Node28 -->
<g id="edge79" class="edge">
<title>Node31&#45;&gt;Node28</title>
<path fill="none" stroke="midnightblue" d="M1532.72,-280.08C1523.08,-253.83 1494.68,-176.55 1481.66,-141.12"/>
<polygon fill="midnightblue" stroke="midnightblue" points="1484.88,-139.75 1478.15,-131.57 1478.31,-142.16 1484.88,-139.75"/>
</g>
<!-- Node31&#45;&gt;Node32 -->
<g id="edge80" class="edge">
<title>Node31&#45;&gt;Node32</title>
<path fill="none" stroke="midnightblue" d="M1572.29,-280.44C1611.98,-271.08 1675.71,-256.06 1718.91,-245.87"/>
<polygon fill="midnightblue" stroke="midnightblue" points="1719.95,-249.22 1728.88,-243.52 1718.35,-242.41 1719.95,-249.22"/>
</g>
<!-- Node32&#45;&gt;Node2 -->
<g id="edge81" class="edge">
<title>Node32&#45;&gt;Node2</title>
<path fill="none" stroke="midnightblue" d="M1715.91,-227.87C1619.74,-216.94 1400.54,-187.7 1224,-132 1203.51,-125.54 1200.26,-119.15 1180,-112 1119.41,-90.63 1100.49,-97.64 1040,-76 1020.15,-68.9 1017.19,-62.05 997,-56 901.91,-27.53 784.52,-16.69 727.05,-12.88"/>
<polygon fill="midnightblue" stroke="midnightblue" points="727.24,-9.39 717.04,-12.25 726.8,-16.37 727.24,-9.39"/>
</g>
<!-- Node32&#45;&gt;Node3 -->
<g id="edge82" class="edge">
<title>Node32&#45;&gt;Node3</title>
<path fill="none" stroke="midnightblue" d="M1770.39,-224.18C1787.1,-195.59 1834.32,-104.47 1789,-56 1749.98,-14.27 1348.15,-26.27 1255.23,-19.69"/>
<polygon fill="midnightblue" stroke="midnightblue" points="1255.34,-16.19 1245.05,-18.74 1254.68,-23.16 1255.34,-16.19"/>
</g>
<!-- Node32&#45;&gt;Node5 -->
<g id="edge83" class="edge">
<title>Node32&#45;&gt;Node5</title>
<path fill="none" stroke="midnightblue" d="M1760.92,-224.29C1751.38,-204.12 1726.54,-152.79 1702,-112 1696.25,-102.45 1689.25,-92.18 1683.36,-83.88"/>
<polygon fill="midnightblue" stroke="midnightblue" points="1686.19,-81.82 1677.51,-75.75 1680.51,-85.91 1686.19,-81.82"/>
</g>
<!-- Node32&#45;&gt;Node6 -->
<g id="edge84" class="edge">
<title>Node32&#45;&gt;Node6</title>
<path fill="none" stroke="midnightblue" d="M1781.07,-224.32C1796.96,-215.74 1821.51,-202.49 1839.96,-192.52"/>
<polygon fill="midnightblue" stroke="midnightblue" points="1841.84,-195.49 1848.97,-187.65 1838.51,-189.33 1841.84,-195.49"/>
</g>
</g>
</svg>
