<?xml version="1.0" encoding="UTF-8" standalone="no"?>
<!DOCTYPE svg PUBLIC "-//W3C//DTD SVG 1.1//EN"
 "http://www.w3.org/Graphics/SVG/1.1/DTD/svg11.dtd">
<!-- Generated by graphviz version 2.44.0 ()
 -->
<!-- Title: include/zpp/poll.hpp Pages: 1 -->
<svg width="1912pt" height="420pt"
 viewBox="0.00 0.00 1912.13 420.00" xmlns="http://www.w3.org/2000/svg" xmlns:xlink="http://www.w3.org/1999/xlink">
<g id="graph0" class="graph" transform="scale(1 1) rotate(0) translate(4 416)">
<title>include/zpp/poll.hpp</title>
<!-- Node1 -->
<g id="node1" class="node">
<title>Node1</title>
<g id="a_node1"><a xlink:title=" ">
<polygon fill="#bfbfbf" stroke="black" points="307.5,-392.5 307.5,-411.5 408.5,-411.5 408.5,-392.5 307.5,-392.5"/>
<text text-anchor="middle" x="358" y="-399.5" font-family="Helvetica,sans-Serif" font-size="10.00">include/zpp/poll.hpp</text>
</a>
</g>
</g>
<!-- Node2 -->
<g id="node2" class="node">
<title>Node2</title>
<g id="a_node2"><a xlink:href="poll__signal_8hpp.html" target="_top" xlink:title=" ">
<polygon fill="none" stroke="black" points="142,-224.5 142,-243.5 240,-243.5 240,-224.5 142,-224.5"/>
<text text-anchor="middle" x="191" y="-231.5" font-family="Helvetica,sans-Serif" font-size="10.00">zpp/poll_signal.hpp</text>
</a>
</g>
</g>
<!-- Node1&#45;&gt;Node2 -->
<g id="edge1" class="edge">
<title>Node1&#45;&gt;Node2</title>
<path fill="none" stroke="midnightblue" d="M342.71,-392.47C316.01,-376.96 260.37,-341.85 225,-300 213.08,-285.89 203.75,-266.91 197.91,-253.1"/>
<polygon fill="midnightblue" stroke="midnightblue" points="201.11,-251.69 194.13,-243.72 194.62,-254.3 201.11,-251.69"/>
</g>
<!-- Node7 -->
<g id="node7" class="node">
<title>Node7</title>
<g id="a_node7"><a xlink:href="poll__event_8hpp.html" target="_top" xlink:title=" ">
<polygon fill="none" stroke="black" points="309.5,-280.5 309.5,-299.5 406.5,-299.5 406.5,-280.5 309.5,-280.5"/>
<text text-anchor="middle" x="358" y="-287.5" font-family="Helvetica,sans-Serif" font-size="10.00">zpp/poll_event.hpp</text>
</a>
</g>
</g>
<!-- Node1&#45;&gt;Node7 -->
<g id="edge6" class="edge">
<title>Node1&#45;&gt;Node7</title>
<path fill="none" stroke="midnightblue" d="M358,-392.37C358,-374.62 358,-333.67 358,-309.6"/>
<polygon fill="midnightblue" stroke="midnightblue" points="361.5,-309.59 358,-299.59 354.5,-309.59 361.5,-309.59"/>
</g>
<!-- Node33 -->
<g id="node33" class="node">
<title>Node33</title>
<g id="a_node33"><a xlink:href="poll__event__set_8hpp.html" target="_top" xlink:title=" ">
<polygon fill="none" stroke="black" points="405,-336.5 405,-355.5 521,-355.5 521,-336.5 405,-336.5"/>
<text text-anchor="middle" x="463" y="-343.5" font-family="Helvetica,sans-Serif" font-size="10.00">zpp/poll_event_set.hpp</text>
</a>
</g>
</g>
<!-- Node1&#45;&gt;Node33 -->
<g id="edge76" class="edge">
<title>Node1&#45;&gt;Node33</title>
<path fill="none" stroke="midnightblue" d="M374.87,-392.32C391.71,-383.66 417.81,-370.24 437.24,-360.25"/>
<polygon fill="midnightblue" stroke="midnightblue" points="438.88,-363.34 446.17,-355.65 435.68,-357.12 438.88,-363.34"/>
</g>
<!-- Node3 -->
<g id="node3" class="node">
<title>Node3</title>
<g id="a_node3"><a xlink:title=" ">
<polygon fill="none" stroke="#bfbfbf" points="1202,-0.5 1202,-19.5 1252,-19.5 1252,-0.5 1202,-0.5"/>
<text text-anchor="middle" x="1227" y="-7.5" font-family="Helvetica,sans-Serif" font-size="10.00">kernel.h</text>
</a>
</g>
</g>
<!-- Node2&#45;&gt;Node3 -->
<g id="edge2" class="edge">
<title>Node2&#45;&gt;Node3</title>
<path fill="none" stroke="midnightblue" d="M227.85,-224.46C279.91,-211.1 376.29,-181.54 445,-132 480.82,-106.17 469.56,-75.87 509,-56 539.78,-40.49 1051.35,-18.27 1191.66,-12.44"/>
<polygon fill="midnightblue" stroke="midnightblue" points="1192.01,-15.93 1201.85,-12.02 1191.72,-8.94 1192.01,-15.93"/>
</g>
<!-- Node4 -->
<g id="node4" class="node">
<title>Node4</title>
<g id="a_node4"><a xlink:title=" ">
<polygon fill="none" stroke="#bfbfbf" points="821,-0.5 821,-19.5 901,-19.5 901,-0.5 821,-0.5"/>
<text text-anchor="middle" x="861" y="-7.5" font-family="Helvetica,sans-Serif" font-size="10.00">sys/__assert.h</text>
</a>
</g>
</g>
<!-- Node2&#45;&gt;Node4 -->
<g id="edge3" class="edge">
<title>Node2&#45;&gt;Node4</title>
<path fill="none" stroke="midnightblue" d="M184.01,-224.26C162.2,-195.92 99.55,-105.46 146,-56 168.73,-31.79 651.27,-16.65 810.51,-12.3"/>
<polygon fill="midnightblue" stroke="midnightblue" points="811.06,-15.79 820.97,-12.02 810.87,-8.79 811.06,-15.79"/>
</g>
<!-- Node5 -->
<g id="node5" class="node">
<title>Node5</title>
<g id="a_node5"><a xlink:title=" ">
<polygon fill="none" stroke="#bfbfbf" points="155,-56.5 155,-75.5 195,-75.5 195,-56.5 155,-56.5"/>
<text text-anchor="middle" x="175" y="-63.5" font-family="Helvetica,sans-Serif" font-size="10.00">limits</text>
</a>
</g>
</g>
<!-- Node2&#45;&gt;Node5 -->
<g id="edge4" class="edge">
<title>Node2&#45;&gt;Node5</title>
<path fill="none" stroke="midnightblue" d="M190.14,-224.08C187.62,-197.95 180.23,-121.21 176.79,-85.58"/>
<polygon fill="midnightblue" stroke="midnightblue" points="180.27,-85.19 175.83,-75.57 173.3,-85.86 180.27,-85.19"/>
</g>
<!-- Node6 -->
<g id="node6" class="node">
<title>Node6</title>
<g id="a_node6"><a xlink:title=" ">
<polygon fill="none" stroke="#bfbfbf" points="75,-168.5 75,-187.5 125,-187.5 125,-168.5 75,-168.5"/>
<text text-anchor="middle" x="100" y="-175.5" font-family="Helvetica,sans-Serif" font-size="10.00">optional</text>
</a>
</g>
</g>
<!-- Node2&#45;&gt;Node6 -->
<g id="edge5" class="edge">
<title>Node2&#45;&gt;Node6</title>
<path fill="none" stroke="midnightblue" d="M176.38,-224.32C162.05,-215.82 139.99,-202.73 123.25,-192.8"/>
<polygon fill="midnightblue" stroke="midnightblue" points="124.97,-189.75 114.58,-187.65 121.4,-195.77 124.97,-189.75"/>
</g>
<!-- Node7&#45;&gt;Node2 -->
<g id="edge75" class="edge">
<title>Node7&#45;&gt;Node2</title>
<path fill="none" stroke="midnightblue" d="M331.54,-280.44C303.32,-271.32 258.46,-256.81 227.03,-246.65"/>
<polygon fill="midnightblue" stroke="midnightblue" points="227.93,-243.26 217.34,-243.52 225.78,-249.92 227.93,-243.26"/>
</g>
<!-- Node7&#45;&gt;Node3 -->
<g id="edge7" class="edge">
<title>Node7&#45;&gt;Node3</title>
<path fill="none" stroke="midnightblue" d="M364.12,-280.44C393.1,-240.01 516.28,-69.52 542,-56 599.72,-25.66 1059.36,-14.31 1191.55,-11.65"/>
<polygon fill="midnightblue" stroke="midnightblue" points="1191.98,-15.14 1201.91,-11.45 1191.84,-8.14 1191.98,-15.14"/>
</g>
<!-- Node7&#45;&gt;Node4 -->
<g id="edge8" class="edge">
<title>Node7&#45;&gt;Node4</title>
<path fill="none" stroke="midnightblue" d="M309.09,-289.55C257.1,-288.06 174.11,-279.57 113,-244 78.68,-224.02 55.81,-206.38 66,-168 80.72,-112.59 81.32,-86.29 130,-56 187.45,-20.26 654.75,-12.84 810.61,-11.36"/>
<polygon fill="midnightblue" stroke="midnightblue" points="810.89,-14.86 820.85,-11.26 810.82,-7.86 810.89,-14.86"/>
</g>
<!-- Node7&#45;&gt;Node5 -->
<g id="edge10" class="edge">
<title>Node7&#45;&gt;Node5</title>
<path fill="none" stroke="midnightblue" d="M354.01,-280.39C341.07,-253.15 297.96,-167.43 243,-112 230.61,-99.5 214.22,-88.53 200.63,-80.55"/>
<polygon fill="midnightblue" stroke="midnightblue" points="202.18,-77.41 191.76,-75.52 198.73,-83.5 202.18,-77.41"/>
</g>
<!-- Node7&#45;&gt;Node6 -->
<g id="edge11" class="edge">
<title>Node7&#45;&gt;Node6</title>
<path fill="none" stroke="midnightblue" d="M309.28,-284.25C251.67,-277.79 160.17,-264.62 133,-244 117.91,-232.55 109.19,-212.27 104.54,-197.4"/>
<polygon fill="midnightblue" stroke="midnightblue" points="107.9,-196.42 101.85,-187.73 101.16,-198.3 107.9,-196.42"/>
</g>
<!-- Node8 -->
<g id="node8" class="node">
<title>Node8</title>
<g id="a_node8"><a xlink:title=" ">
<polygon fill="none" stroke="#bfbfbf" points="551,-56.5 551,-75.5 597,-75.5 597,-56.5 551,-56.5"/>
<text text-anchor="middle" x="574" y="-63.5" font-family="Helvetica,sans-Serif" font-size="10.00">chrono</text>
</a>
</g>
</g>
<!-- Node7&#45;&gt;Node8 -->
<g id="edge9" class="edge">
<title>Node7&#45;&gt;Node8</title>
<path fill="none" stroke="midnightblue" d="M378.51,-280.41C411.35,-265.76 476.08,-233.1 516,-188 543.44,-157 560.73,-110.73 568.74,-85.33"/>
<polygon fill="midnightblue" stroke="midnightblue" points="572.16,-86.13 571.69,-75.54 565.46,-84.11 572.16,-86.13"/>
</g>
<!-- Node9 -->
<g id="node9" class="node">
<title>Node9</title>
<g id="a_node9"><a xlink:title=" ">
<polygon fill="none" stroke="#bfbfbf" points="1837,-56.5 1837,-75.5 1875,-75.5 1875,-56.5 1837,-56.5"/>
<text text-anchor="middle" x="1856" y="-63.5" font-family="Helvetica,sans-Serif" font-size="10.00">array</text>
</a>
</g>
</g>
<!-- Node7&#45;&gt;Node9 -->
<g id="edge12" class="edge">
<title>Node7&#45;&gt;Node9</title>
<path fill="none" stroke="midnightblue" d="M406.73,-287.13C564.04,-280.56 1072.26,-255.2 1487,-188 1593.84,-170.69 1622.14,-168.58 1724,-132 1763.44,-117.84 1806.53,-95.13 1832.41,-80.65"/>
<polygon fill="midnightblue" stroke="midnightblue" points="1834.46,-83.51 1841.43,-75.54 1831.01,-77.42 1834.46,-83.51"/>
</g>
<!-- Node10 -->
<g id="node10" class="node">
<title>Node10</title>
<g id="a_node10"><a xlink:href="sem_8hpp.html" target="_top" xlink:title=" ">
<polygon fill="none" stroke="black" points="491.5,-224.5 491.5,-243.5 562.5,-243.5 562.5,-224.5 491.5,-224.5"/>
<text text-anchor="middle" x="527" y="-231.5" font-family="Helvetica,sans-Serif" font-size="10.00">zpp/sem.hpp</text>
</a>
</g>
</g>
<!-- Node7&#45;&gt;Node10 -->
<g id="edge13" class="edge">
<title>Node7&#45;&gt;Node10</title>
<path fill="none" stroke="midnightblue" d="M384.78,-280.44C413.33,-271.32 458.73,-256.81 490.54,-246.65"/>
<polygon fill="midnightblue" stroke="midnightblue" points="491.89,-249.89 500.35,-243.52 489.76,-243.23 491.89,-249.89"/>
</g>
<!-- Node30 -->
<g id="node30" class="node">
<title>Node30</title>
<g id="a_node30"><a xlink:href="fifo_8hpp.html" target="_top" xlink:title=" ">
<polygon fill="none" stroke="black" points="371.5,-112.5 371.5,-131.5 436.5,-131.5 436.5,-112.5 371.5,-112.5"/>
<text text-anchor="middle" x="404" y="-119.5" font-family="Helvetica,sans-Serif" font-size="10.00">zpp/fifo.hpp</text>
</a>
</g>
</g>
<!-- Node7&#45;&gt;Node30 -->
<g id="edge68" class="edge">
<title>Node7&#45;&gt;Node30</title>
<path fill="none" stroke="midnightblue" d="M357.69,-280.45C357.25,-260.2 357.81,-207.97 373,-168 376.91,-157.71 383.65,-147.5 389.84,-139.42"/>
<polygon fill="midnightblue" stroke="midnightblue" points="392.62,-141.55 396.19,-131.57 387.18,-137.14 392.62,-141.55"/>
</g>
<!-- Node10&#45;&gt;Node3 -->
<g id="edge64" class="edge">
<title>Node10&#45;&gt;Node3</title>
<path fill="none" stroke="midnightblue" d="M562.7,-226.05C567.5,-225.27 572.36,-224.56 577,-224 1060.6,-166.08 1200.19,-264.04 1669,-132 1725.65,-116.04 1757.38,-125.64 1789,-76 1793.77,-68.5 1795.05,-62.52 1789,-56 1752.7,-16.87 1363.15,-24.88 1310,-20 1294.32,-18.56 1277,-16.72 1262.26,-15.08"/>
<polygon fill="midnightblue" stroke="midnightblue" points="1262.37,-11.57 1252.04,-13.93 1261.59,-18.53 1262.37,-11.57"/>
</g>
<!-- Node10&#45;&gt;Node4 -->
<g id="edge65" class="edge">
<title>Node10&#45;&gt;Node4</title>
<path fill="none" stroke="midnightblue" d="M515.9,-224.44C498.82,-211.45 464.81,-186.33 434,-168 398.42,-146.83 292.11,-112.19 272,-76 267.68,-68.23 265.96,-62.52 272,-56 308.26,-16.87 674.7,-11.62 810.62,-11.03"/>
<polygon fill="midnightblue" stroke="midnightblue" points="810.78,-14.53 820.77,-10.99 810.75,-7.53 810.78,-14.53"/>
</g>
<!-- Node10&#45;&gt;Node5 -->
<g id="edge67" class="edge">
<title>Node10&#45;&gt;Node5</title>
<path fill="none" stroke="midnightblue" d="M510.45,-224.46C471.04,-204.22 368.42,-152.02 281,-112 255.42,-100.29 225.94,-87.86 204.57,-79.03"/>
<polygon fill="midnightblue" stroke="midnightblue" points="205.65,-75.7 195.07,-75.13 202.99,-82.17 205.65,-75.7"/>
</g>
<!-- Node10&#45;&gt;Node8 -->
<g id="edge66" class="edge">
<title>Node10&#45;&gt;Node8</title>
<path fill="none" stroke="midnightblue" d="M533.94,-224.26C540.45,-215.57 549.93,-201.63 555,-188 567.87,-153.4 572.02,-110.09 573.36,-85.79"/>
<polygon fill="midnightblue" stroke="midnightblue" points="576.87,-85.65 573.82,-75.51 569.88,-85.34 576.87,-85.65"/>
</g>
<!-- Node11 -->
<g id="node11" class="node">
<title>Node11</title>
<g id="a_node11"><a xlink:href="thread_8hpp.html" target="_top" xlink:title=" ">
<polygon fill="none" stroke="black" points="1084,-168.5 1084,-187.5 1164,-187.5 1164,-168.5 1084,-168.5"/>
<text text-anchor="middle" x="1124" y="-175.5" font-family="Helvetica,sans-Serif" font-size="10.00">zpp/thread.hpp</text>
</a>
</g>
</g>
<!-- Node10&#45;&gt;Node11 -->
<g id="edge14" class="edge">
<title>Node10&#45;&gt;Node11</title>
<path fill="none" stroke="midnightblue" d="M562.71,-226.14C567.51,-225.35 572.36,-224.61 577,-224 759.09,-200.18 977.03,-186.72 1073.64,-181.52"/>
<polygon fill="midnightblue" stroke="midnightblue" points="1073.91,-185.01 1083.71,-180.99 1073.54,-178.02 1073.91,-185.01"/>
</g>
<!-- Node11&#45;&gt;Node3 -->
<g id="edge56" class="edge">
<title>Node11&#45;&gt;Node3</title>
<path fill="none" stroke="midnightblue" d="M1139.35,-168.38C1169.23,-151.66 1233.2,-116.09 1244,-112 1310.55,-86.83 1355.7,-131.68 1400,-76 1405.53,-69.04 1405.44,-63.03 1400,-56 1383.31,-34.42 1307.96,-21.26 1262.38,-15.13"/>
<polygon fill="midnightblue" stroke="midnightblue" points="1262.68,-11.64 1252.32,-13.82 1261.78,-18.58 1262.68,-11.64"/>
</g>
<!-- Node11&#45;&gt;Node4 -->
<g id="edge57" class="edge">
<title>Node11&#45;&gt;Node4</title>
<path fill="none" stroke="midnightblue" d="M1083.89,-175.01C1014.6,-170.89 876.16,-159.39 837,-132 807.11,-111.09 790.38,-88.97 806,-56 812.13,-43.07 823.99,-32.62 835.14,-25.05"/>
<polygon fill="midnightblue" stroke="midnightblue" points="837.19,-27.9 843.8,-19.61 833.47,-21.97 837.19,-27.9"/>
</g>
<!-- Node11&#45;&gt;Node8 -->
<g id="edge60" class="edge">
<title>Node11&#45;&gt;Node8</title>
<path fill="none" stroke="midnightblue" d="M1083.79,-175.41C988.09,-171.24 749.18,-158.43 674,-132 642.15,-120.81 610.31,-97.51 591.39,-82.06"/>
<polygon fill="midnightblue" stroke="midnightblue" points="593.56,-79.32 583.65,-75.59 589.07,-84.69 593.56,-79.32"/>
</g>
<!-- Node12 -->
<g id="node12" class="node">
<title>Node12</title>
<g id="a_node12"><a xlink:href="thread__prio_8hpp.html" target="_top" xlink:title=" ">
<polygon fill="none" stroke="black" points="963.5,-56.5 963.5,-75.5 1064.5,-75.5 1064.5,-56.5 963.5,-56.5"/>
<text text-anchor="middle" x="1014" y="-63.5" font-family="Helvetica,sans-Serif" font-size="10.00">zpp/thread_prio.hpp</text>
</a>
</g>
</g>
<!-- Node11&#45;&gt;Node12 -->
<g id="edge15" class="edge">
<title>Node11&#45;&gt;Node12</title>
<path fill="none" stroke="midnightblue" d="M1083.9,-172.02C1038.78,-165.51 969.74,-152.44 954,-132 939.43,-113.07 964.72,-93.14 986.81,-80.42"/>
<polygon fill="midnightblue" stroke="midnightblue" points="988.55,-83.46 995.65,-75.6 985.19,-77.32 988.55,-83.46"/>
</g>
<!-- Node13 -->
<g id="node13" class="node">
<title>Node13</title>
<g id="a_node13"><a xlink:href="thread__id_8hpp.html" target="_top" xlink:title=" ">
<polygon fill="none" stroke="black" points="815,-56.5 815,-75.5 907,-75.5 907,-56.5 815,-56.5"/>
<text text-anchor="middle" x="861" y="-63.5" font-family="Helvetica,sans-Serif" font-size="10.00">zpp/thread_id.hpp</text>
</a>
</g>
</g>
<!-- Node11&#45;&gt;Node13 -->
<g id="edge18" class="edge">
<title>Node11&#45;&gt;Node13</title>
<path fill="none" stroke="midnightblue" d="M1083.82,-176.62C1014.29,-175.01 876.07,-167.32 846,-132 834.78,-118.82 841.78,-98.86 849.55,-84.54"/>
<polygon fill="midnightblue" stroke="midnightblue" points="852.71,-86.06 854.83,-75.68 846.7,-82.48 852.71,-86.06"/>
</g>
<!-- Node14 -->
<g id="node14" class="node">
<title>Node14</title>
<g id="a_node14"><a xlink:href="thread__attr_8hpp.html" target="_top" xlink:title=" ">
<polygon fill="none" stroke="black" points="963.5,-112.5 963.5,-131.5 1062.5,-131.5 1062.5,-112.5 963.5,-112.5"/>
<text text-anchor="middle" x="1013" y="-119.5" font-family="Helvetica,sans-Serif" font-size="10.00">zpp/thread_attr.hpp</text>
</a>
</g>
</g>
<!-- Node11&#45;&gt;Node14 -->
<g id="edge21" class="edge">
<title>Node11&#45;&gt;Node14</title>
<path fill="none" stroke="midnightblue" d="M1106.17,-168.32C1088.28,-159.62 1060.52,-146.12 1039.95,-136.11"/>
<polygon fill="midnightblue" stroke="midnightblue" points="1041.31,-132.88 1030.79,-131.65 1038.25,-139.18 1041.31,-132.88"/>
</g>
<!-- Node15 -->
<g id="node15" class="node">
<title>Node15</title>
<g id="a_node15"><a xlink:title=" ">
<polygon fill="none" stroke="#bfbfbf" points="1121.5,-56.5 1121.5,-75.5 1160.5,-75.5 1160.5,-56.5 1121.5,-56.5"/>
<text text-anchor="middle" x="1141" y="-63.5" font-family="Helvetica,sans-Serif" font-size="10.00">utility</text>
</a>
</g>
</g>
<!-- Node11&#45;&gt;Node15 -->
<g id="edge62" class="edge">
<title>Node11&#45;&gt;Node15</title>
<path fill="none" stroke="midnightblue" d="M1119.4,-168.46C1113.26,-155.92 1103.83,-131.84 1110,-112 1113.23,-101.62 1119.78,-91.52 1126.02,-83.53"/>
<polygon fill="midnightblue" stroke="midnightblue" points="1128.79,-85.68 1132.52,-75.77 1123.42,-81.19 1128.79,-85.68"/>
</g>
<!-- Node16 -->
<g id="node16" class="node">
<title>Node16</title>
<g id="a_node16"><a xlink:href="thread__data_8hpp.html" target="_top" xlink:title=" ">
<polygon fill="none" stroke="black" points="1549,-56.5 1549,-75.5 1653,-75.5 1653,-56.5 1549,-56.5"/>
<text text-anchor="middle" x="1601" y="-63.5" font-family="Helvetica,sans-Serif" font-size="10.00">zpp/thread_data.hpp</text>
</a>
</g>
</g>
<!-- Node11&#45;&gt;Node16 -->
<g id="edge27" class="edge">
<title>Node11&#45;&gt;Node16</title>
<path fill="none" stroke="midnightblue" d="M1164.05,-176.39C1276.42,-174.26 1588.52,-165.37 1619,-132 1630.92,-118.95 1622.53,-98.69 1613.63,-84.26"/>
<polygon fill="midnightblue" stroke="midnightblue" points="1616.4,-82.11 1607.92,-75.76 1610.59,-86.01 1616.4,-82.11"/>
</g>
<!-- Node18 -->
<g id="node18" class="node">
<title>Node18</title>
<g id="a_node18"><a xlink:href="thread__stack_8hpp.html" target="_top" xlink:title=" ">
<polygon fill="none" stroke="black" points="1671.5,-56.5 1671.5,-75.5 1780.5,-75.5 1780.5,-56.5 1671.5,-56.5"/>
<text text-anchor="middle" x="1726" y="-63.5" font-family="Helvetica,sans-Serif" font-size="10.00">zpp/thread_stack.hpp</text>
</a>
</g>
</g>
<!-- Node11&#45;&gt;Node18 -->
<g id="edge31" class="edge">
<title>Node11&#45;&gt;Node18</title>
<path fill="none" stroke="midnightblue" d="M1164.34,-176.21C1269.47,-173.72 1549.66,-164.16 1636,-132 1665.18,-121.13 1693.38,-98.09 1710.21,-82.57"/>
<polygon fill="midnightblue" stroke="midnightblue" points="1712.66,-85.07 1717.51,-75.64 1707.85,-79.99 1712.66,-85.07"/>
</g>
<!-- Node19 -->
<g id="node19" class="node">
<title>Node19</title>
<g id="a_node19"><a xlink:href="clock_8hpp.html" target="_top" xlink:title=" ">
<polygon fill="none" stroke="black" points="683,-112.5 683,-131.5 759,-131.5 759,-112.5 683,-112.5"/>
<text text-anchor="middle" x="721" y="-119.5" font-family="Helvetica,sans-Serif" font-size="10.00">zpp/clock.hpp</text>
</a>
</g>
</g>
<!-- Node11&#45;&gt;Node19 -->
<g id="edge35" class="edge">
<title>Node11&#45;&gt;Node19</title>
<path fill="none" stroke="midnightblue" d="M1083.91,-172.44C1018.64,-164.89 885.39,-148.92 773,-132 771.73,-131.81 770.43,-131.61 769.13,-131.41"/>
<polygon fill="midnightblue" stroke="midnightblue" points="769.45,-127.91 759.02,-129.78 768.34,-134.83 769.45,-127.91"/>
</g>
<!-- Node21 -->
<g id="node21" class="node">
<title>Node21</title>
<g id="a_node21"><a xlink:href="result_8hpp.html" target="_top" xlink:title=" ">
<polygon fill="none" stroke="black" points="1119.5,-112.5 1119.5,-131.5 1196.5,-131.5 1196.5,-112.5 1119.5,-112.5"/>
<text text-anchor="middle" x="1158" y="-119.5" font-family="Helvetica,sans-Serif" font-size="10.00">zpp/result.hpp</text>
</a>
</g>
</g>
<!-- Node11&#45;&gt;Node21 -->
<g id="edge41" class="edge">
<title>Node11&#45;&gt;Node21</title>
<path fill="none" stroke="midnightblue" d="M1129.61,-168.08C1134.37,-160.53 1141.32,-149.49 1147.15,-140.23"/>
<polygon fill="midnightblue" stroke="midnightblue" points="1150.12,-142.08 1152.49,-131.75 1144.2,-138.35 1150.12,-142.08"/>
</g>
<!-- Node22 -->
<g id="node22" class="node">
<title>Node22</title>
<g id="a_node22"><a xlink:href="error__code_8hpp.html" target="_top" xlink:title=" ">
<polygon fill="none" stroke="black" points="1293,-56.5 1293,-75.5 1391,-75.5 1391,-56.5 1293,-56.5"/>
<text text-anchor="middle" x="1342" y="-63.5" font-family="Helvetica,sans-Serif" font-size="10.00">zpp/error_code.hpp</text>
</a>
</g>
</g>
<!-- Node11&#45;&gt;Node22 -->
<g id="edge49" class="edge">
<title>Node11&#45;&gt;Node22</title>
<path fill="none" stroke="midnightblue" d="M1164.29,-177.72C1243.33,-178.19 1414.24,-174.17 1451,-132 1472.86,-106.92 1431.01,-88.81 1393,-78.18"/>
<polygon fill="midnightblue" stroke="midnightblue" points="1393.51,-74.69 1382.95,-75.51 1391.71,-81.46 1393.51,-74.69"/>
</g>
<!-- Node24 -->
<g id="node24" class="node">
<title>Node24</title>
<g id="a_node24"><a xlink:href="heap_8hpp.html" target="_top" xlink:title=" ">
<polygon fill="none" stroke="black" points="1536,-112.5 1536,-131.5 1610,-131.5 1610,-112.5 1536,-112.5"/>
<text text-anchor="middle" x="1573" y="-119.5" font-family="Helvetica,sans-Serif" font-size="10.00">zpp/heap.hpp</text>
</a>
</g>
</g>
<!-- Node11&#45;&gt;Node24 -->
<g id="edge50" class="edge">
<title>Node11&#45;&gt;Node24</title>
<path fill="none" stroke="midnightblue" d="M1164.24,-172.16C1247.27,-162.17 1437.19,-139.33 1525.83,-128.67"/>
<polygon fill="midnightblue" stroke="midnightblue" points="1526.35,-132.14 1535.86,-127.47 1525.52,-125.19 1526.35,-132.14"/>
</g>
<!-- Node26 -->
<g id="node26" class="node">
<title>Node26</title>
<g id="a_node26"><a xlink:title=" ">
<polygon fill="none" stroke="#bfbfbf" points="1253.5,-112.5 1253.5,-131.5 1308.5,-131.5 1308.5,-112.5 1253.5,-112.5"/>
<text text-anchor="middle" x="1281" y="-119.5" font-family="Helvetica,sans-Serif" font-size="10.00">sys/util.h</text>
</a>
</g>
</g>
<!-- Node11&#45;&gt;Node26 -->
<g id="edge58" class="edge">
<title>Node11&#45;&gt;Node26</title>
<path fill="none" stroke="midnightblue" d="M1148.88,-168.44C1175.29,-159.36 1217.22,-144.94 1246.74,-134.78"/>
<polygon fill="midnightblue" stroke="midnightblue" points="1247.92,-138.08 1256.24,-131.52 1245.64,-131.46 1247.92,-138.08"/>
</g>
<!-- Node27 -->
<g id="node27" class="node">
<title>Node27</title>
<g id="a_node27"><a xlink:title=" ">
<polygon fill="none" stroke="#bfbfbf" points="1326.5,-112.5 1326.5,-131.5 1385.5,-131.5 1385.5,-112.5 1326.5,-112.5"/>
<text text-anchor="middle" x="1356" y="-119.5" font-family="Helvetica,sans-Serif" font-size="10.00">functional</text>
</a>
</g>
</g>
<!-- Node11&#45;&gt;Node27 -->
<g id="edge59" class="edge">
<title>Node11&#45;&gt;Node27</title>
<path fill="none" stroke="midnightblue" d="M1160.76,-168.44C1203.23,-158.56 1272.83,-142.36 1316.44,-132.21"/>
<polygon fill="midnightblue" stroke="midnightblue" points="1317.46,-135.56 1326.4,-129.89 1315.87,-128.75 1317.46,-135.56"/>
</g>
<!-- Node28 -->
<g id="node28" class="node">
<title>Node28</title>
<g id="a_node28"><a xlink:title=" ">
<polygon fill="none" stroke="#bfbfbf" points="1404,-112.5 1404,-131.5 1442,-131.5 1442,-112.5 1404,-112.5"/>
<text text-anchor="middle" x="1423" y="-119.5" font-family="Helvetica,sans-Serif" font-size="10.00">tuple</text>
</a>
</g>
</g>
<!-- Node11&#45;&gt;Node28 -->
<g id="edge61" class="edge">
<title>Node11&#45;&gt;Node28</title>
<path fill="none" stroke="midnightblue" d="M1164.14,-172.04C1217.18,-165.1 1313.32,-151.15 1394,-132 1394.1,-131.98 1394.2,-131.95 1394.3,-131.93"/>
<polygon fill="midnightblue" stroke="midnightblue" points="1395.02,-135.36 1403.76,-129.37 1393.19,-128.6 1395.02,-135.36"/>
</g>
<!-- Node29 -->
<g id="node29" class="node">
<title>Node29</title>
<g id="a_node29"><a xlink:title=" ">
<polygon fill="none" stroke="#bfbfbf" points="855.5,-112.5 855.5,-131.5 906.5,-131.5 906.5,-112.5 855.5,-112.5"/>
<text text-anchor="middle" x="881" y="-119.5" font-family="Helvetica,sans-Serif" font-size="10.00">memory</text>
</a>
</g>
</g>
<!-- Node11&#45;&gt;Node29 -->
<g id="edge63" class="edge">
<title>Node11&#45;&gt;Node29</title>
<path fill="none" stroke="midnightblue" d="M1085.45,-168.49C1044.61,-159.47 978.25,-144.79 921,-132 919.57,-131.68 918.11,-131.35 916.63,-131.02"/>
<polygon fill="midnightblue" stroke="midnightblue" points="917.34,-127.6 906.82,-128.82 915.81,-134.43 917.34,-127.6"/>
</g>
<!-- Node12&#45;&gt;Node3 -->
<g id="edge16" class="edge">
<title>Node12&#45;&gt;Node3</title>
<path fill="none" stroke="midnightblue" d="M1047.75,-56.44C1087.14,-46.46 1151.96,-30.03 1191.91,-19.9"/>
<polygon fill="midnightblue" stroke="midnightblue" points="1192.91,-23.25 1201.75,-17.4 1191.19,-16.47 1192.91,-23.25"/>
</g>
<!-- Node12&#45;&gt;Node4 -->
<g id="edge17" class="edge">
<title>Node12&#45;&gt;Node4</title>
<path fill="none" stroke="midnightblue" d="M989.76,-56.44C964.13,-47.4 923.51,-33.06 894.76,-22.92"/>
<polygon fill="midnightblue" stroke="midnightblue" points="895.72,-19.54 885.13,-19.52 893.39,-26.15 895.72,-19.54"/>
</g>
<!-- Node13&#45;&gt;Node3 -->
<g id="edge19" class="edge">
<title>Node13&#45;&gt;Node3</title>
<path fill="none" stroke="midnightblue" d="M907.35,-58.16C981.48,-47.22 1125.12,-26.03 1191.62,-16.22"/>
<polygon fill="midnightblue" stroke="midnightblue" points="1192.23,-19.67 1201.61,-14.75 1191.21,-12.74 1192.23,-19.67"/>
</g>
<!-- Node13&#45;&gt;Node4 -->
<g id="edge20" class="edge">
<title>Node13&#45;&gt;Node4</title>
<path fill="none" stroke="midnightblue" d="M861,-56.08C861,-49.01 861,-38.86 861,-29.99"/>
<polygon fill="midnightblue" stroke="midnightblue" points="864.5,-29.75 861,-19.75 857.5,-29.75 864.5,-29.75"/>
</g>
<!-- Node14&#45;&gt;Node3 -->
<g id="edge23" class="edge">
<title>Node14&#45;&gt;Node3</title>
<path fill="none" stroke="midnightblue" d="M1024.4,-112.37C1042.35,-99.07 1078.57,-73.27 1112,-56 1138,-42.56 1168.97,-30.66 1192.21,-22.48"/>
<polygon fill="midnightblue" stroke="midnightblue" points="1193.36,-25.79 1201.67,-19.21 1191.07,-19.17 1193.36,-25.79"/>
</g>
<!-- Node14&#45;&gt;Node4 -->
<g id="edge24" class="edge">
<title>Node14&#45;&gt;Node4</title>
<path fill="none" stroke="midnightblue" d="M1001.07,-112.37C975.1,-93.57 913.19,-48.77 881.08,-25.53"/>
<polygon fill="midnightblue" stroke="midnightblue" points="883.02,-22.62 872.87,-19.59 878.92,-28.29 883.02,-22.62"/>
</g>
<!-- Node14&#45;&gt;Node8 -->
<g id="edge25" class="edge">
<title>Node14&#45;&gt;Node8</title>
<path fill="none" stroke="midnightblue" d="M963.49,-114.91C873.12,-103.79 683.67,-80.49 607.13,-71.08"/>
<polygon fill="midnightblue" stroke="midnightblue" points="607.45,-67.59 597.1,-69.84 606.6,-74.54 607.45,-67.59"/>
</g>
<!-- Node14&#45;&gt;Node12 -->
<g id="edge22" class="edge">
<title>Node14&#45;&gt;Node12</title>
<path fill="none" stroke="midnightblue" d="M1013.17,-112.08C1013.3,-105.01 1013.48,-94.86 1013.65,-85.99"/>
<polygon fill="midnightblue" stroke="midnightblue" points="1017.15,-85.81 1013.84,-75.75 1010.15,-85.68 1017.15,-85.81"/>
</g>
<!-- Node14&#45;&gt;Node15 -->
<g id="edge26" class="edge">
<title>Node14&#45;&gt;Node15</title>
<path fill="none" stroke="midnightblue" d="M1033.28,-112.44C1054.47,-103.5 1087.91,-89.4 1111.91,-79.27"/>
<polygon fill="midnightblue" stroke="midnightblue" points="1113.38,-82.45 1121.23,-75.34 1110.66,-76 1113.38,-82.45"/>
</g>
<!-- Node16&#45;&gt;Node3 -->
<g id="edge28" class="edge">
<title>Node16&#45;&gt;Node3</title>
<path fill="none" stroke="midnightblue" d="M1549,-57.49C1471.65,-46.32 1328.31,-25.63 1262.15,-16.07"/>
<polygon fill="midnightblue" stroke="midnightblue" points="1262.61,-12.61 1252.21,-14.64 1261.61,-19.53 1262.61,-12.61"/>
</g>
<!-- Node16&#45;&gt;Node4 -->
<g id="edge30" class="edge">
<title>Node16&#45;&gt;Node4</title>
<path fill="none" stroke="midnightblue" d="M1548.87,-60.06C1533.75,-58.68 1517.22,-57.23 1502,-56 1282.2,-38.3 1019.67,-21.1 911.44,-14.19"/>
<polygon fill="midnightblue" stroke="midnightblue" points="911.35,-10.67 901.15,-13.53 910.9,-17.66 911.35,-10.67"/>
</g>
<!-- Node17 -->
<g id="node17" class="node">
<title>Node17</title>
<g id="a_node17"><a xlink:title=" ">
<polygon fill="none" stroke="#bfbfbf" points="1611,-0.5 1611,-19.5 1715,-19.5 1715,-0.5 1611,-0.5"/>
<text text-anchor="middle" x="1663" y="-7.5" font-family="Helvetica,sans-Serif" font-size="10.00">sys/arch_interface.h</text>
</a>
</g>
</g>
<!-- Node16&#45;&gt;Node17 -->
<g id="edge29" class="edge">
<title>Node16&#45;&gt;Node17</title>
<path fill="none" stroke="midnightblue" d="M1610.96,-56.32C1620.13,-48.34 1633.94,-36.31 1645.03,-26.65"/>
<polygon fill="midnightblue" stroke="midnightblue" points="1647.62,-29.04 1652.86,-19.83 1643.02,-23.76 1647.62,-29.04"/>
</g>
<!-- Node18&#45;&gt;Node3 -->
<g id="edge32" class="edge">
<title>Node18&#45;&gt;Node3</title>
<path fill="none" stroke="midnightblue" d="M1671.21,-57.16C1668.09,-56.75 1665.01,-56.37 1662,-56 1505.89,-37.05 1466.39,-36.48 1310,-20 1294.34,-18.35 1277.03,-16.48 1262.28,-14.87"/>
<polygon fill="midnightblue" stroke="midnightblue" points="1262.38,-11.36 1252.06,-13.76 1261.62,-18.32 1262.38,-11.36"/>
</g>
<!-- Node18&#45;&gt;Node4 -->
<g id="edge34" class="edge">
<title>Node18&#45;&gt;Node4</title>
<path fill="none" stroke="midnightblue" d="M1671.22,-56.99C1668.11,-56.63 1665.02,-56.3 1662,-56 1378.87,-28.19 1037.62,-16.11 911.24,-12.36"/>
<polygon fill="midnightblue" stroke="midnightblue" points="911.19,-8.86 901.1,-12.07 910.99,-15.86 911.19,-8.86"/>
</g>
<!-- Node18&#45;&gt;Node17 -->
<g id="edge33" class="edge">
<title>Node18&#45;&gt;Node17</title>
<path fill="none" stroke="midnightblue" d="M1715.88,-56.32C1706.47,-48.26 1692.26,-36.08 1680.93,-26.37"/>
<polygon fill="midnightblue" stroke="midnightblue" points="1683.18,-23.68 1673.31,-19.83 1678.62,-29 1683.18,-23.68"/>
</g>
<!-- Node19&#45;&gt;Node3 -->
<g id="edge36" class="edge">
<title>Node19&#45;&gt;Node3</title>
<path fill="none" stroke="midnightblue" d="M709.32,-112.48C692.63,-99.32 665.69,-73.72 682,-56 699.31,-37.21 1072.91,-18.2 1191.33,-12.63"/>
<polygon fill="midnightblue" stroke="midnightblue" points="1191.83,-16.11 1201.66,-12.14 1191.51,-9.12 1191.83,-16.11"/>
</g>
<!-- Node19&#45;&gt;Node4 -->
<g id="edge38" class="edge">
<title>Node19&#45;&gt;Node4</title>
<path fill="none" stroke="midnightblue" d="M698.37,-112.47C670.91,-100.87 630.45,-78.9 649,-56 668.95,-31.37 754.5,-19.66 810.63,-14.54"/>
<polygon fill="midnightblue" stroke="midnightblue" points="811.09,-18.02 820.75,-13.66 810.49,-11.04 811.09,-18.02"/>
</g>
<!-- Node19&#45;&gt;Node5 -->
<g id="edge40" class="edge">
<title>Node19&#45;&gt;Node5</title>
<path fill="none" stroke="midnightblue" d="M682.61,-117.2C579.52,-107.01 298.21,-79.19 205.26,-69.99"/>
<polygon fill="midnightblue" stroke="midnightblue" points="205.42,-66.49 195.13,-68.99 204.73,-73.46 205.42,-66.49"/>
</g>
<!-- Node19&#45;&gt;Node8 -->
<g id="edge39" class="edge">
<title>Node19&#45;&gt;Node8</title>
<path fill="none" stroke="midnightblue" d="M697.71,-112.44C673.19,-103.44 634.4,-89.19 606.8,-79.05"/>
<polygon fill="midnightblue" stroke="midnightblue" points="607.78,-75.68 597.18,-75.52 605.36,-82.25 607.78,-75.68"/>
</g>
<!-- Node20 -->
<g id="node20" class="node">
<title>Node20</title>
<g id="a_node20"><a xlink:title=" ">
<polygon fill="none" stroke="#bfbfbf" points="691,-56.5 691,-75.5 759,-75.5 759,-56.5 691,-56.5"/>
<text text-anchor="middle" x="725" y="-63.5" font-family="Helvetica,sans-Serif" font-size="10.00">sys_clock.h</text>
</a>
</g>
</g>
<!-- Node19&#45;&gt;Node20 -->
<g id="edge37" class="edge">
<title>Node19&#45;&gt;Node20</title>
<path fill="none" stroke="midnightblue" d="M721.66,-112.08C722.18,-105.01 722.94,-94.86 723.59,-85.99"/>
<polygon fill="midnightblue" stroke="midnightblue" points="727.1,-85.98 724.35,-75.75 720.12,-85.47 727.1,-85.98"/>
</g>
<!-- Node21&#45;&gt;Node3 -->
<g id="edge42" class="edge">
<title>Node21&#45;&gt;Node3</title>
<path fill="none" stroke="midnightblue" d="M1168.98,-112.41C1179.03,-104.05 1193.71,-90.51 1203,-76 1212.22,-61.6 1218.61,-43.14 1222.46,-29.58"/>
<polygon fill="midnightblue" stroke="midnightblue" points="1225.94,-30.09 1225.1,-19.53 1219.17,-28.31 1225.94,-30.09"/>
</g>
<!-- Node21&#45;&gt;Node4 -->
<g id="edge43" class="edge">
<title>Node21&#45;&gt;Node4</title>
<path fill="none" stroke="midnightblue" d="M1163.39,-112.25C1171.06,-98.54 1182.77,-71.93 1169,-56 1136.32,-18.2 990.1,-11.53 911.46,-10.74"/>
<polygon fill="midnightblue" stroke="midnightblue" points="911.31,-7.24 901.29,-10.67 911.26,-14.24 911.31,-7.24"/>
</g>
<!-- Node21&#45;&gt;Node15 -->
<g id="edge48" class="edge">
<title>Node21&#45;&gt;Node15</title>
<path fill="none" stroke="midnightblue" d="M1155.19,-112.08C1152.92,-104.85 1149.63,-94.41 1146.79,-85.4"/>
<polygon fill="midnightblue" stroke="midnightblue" points="1150.1,-84.24 1143.75,-75.75 1143.42,-86.34 1150.1,-84.24"/>
</g>
<!-- Node21&#45;&gt;Node22 -->
<g id="edge44" class="edge">
<title>Node21&#45;&gt;Node22</title>
<path fill="none" stroke="midnightblue" d="M1187.16,-112.44C1218.51,-103.24 1268.53,-88.56 1303.2,-78.39"/>
<polygon fill="midnightblue" stroke="midnightblue" points="1304.37,-81.69 1312.98,-75.52 1302.4,-74.97 1304.37,-81.69"/>
</g>
<!-- Node22&#45;&gt;Node3 -->
<g id="edge45" class="edge">
<title>Node22&#45;&gt;Node3</title>
<path fill="none" stroke="midnightblue" d="M1323.78,-56.44C1305.1,-47.68 1275.84,-33.94 1254.38,-23.86"/>
<polygon fill="midnightblue" stroke="midnightblue" points="1255.68,-20.6 1245.14,-19.52 1252.7,-26.93 1255.68,-20.6"/>
</g>
<!-- Node22&#45;&gt;Node4 -->
<g id="edge46" class="edge">
<title>Node22&#45;&gt;Node4</title>
<path fill="none" stroke="midnightblue" d="M1292.84,-57.81C1288.17,-57.18 1283.49,-56.56 1279,-56 1146.44,-39.4 989.76,-23.53 911.21,-15.84"/>
<polygon fill="midnightblue" stroke="midnightblue" points="911.41,-12.34 901.11,-14.85 910.73,-19.31 911.41,-12.34"/>
</g>
<!-- Node23 -->
<g id="node23" class="node">
<title>Node23</title>
<g id="a_node23"><a xlink:title=" ">
<polygon fill="none" stroke="#bfbfbf" points="1319,-0.5 1319,-19.5 1365,-19.5 1365,-0.5 1319,-0.5"/>
<text text-anchor="middle" x="1342" y="-7.5" font-family="Helvetica,sans-Serif" font-size="10.00">errno.h</text>
</a>
</g>
</g>
<!-- Node22&#45;&gt;Node23 -->
<g id="edge47" class="edge">
<title>Node22&#45;&gt;Node23</title>
<path fill="none" stroke="midnightblue" d="M1342,-56.08C1342,-49.01 1342,-38.86 1342,-29.99"/>
<polygon fill="midnightblue" stroke="midnightblue" points="1345.5,-29.75 1342,-19.75 1338.5,-29.75 1345.5,-29.75"/>
</g>
<!-- Node24&#45;&gt;Node3 -->
<g id="edge51" class="edge">
<title>Node24&#45;&gt;Node3</title>
<path fill="none" stroke="midnightblue" d="M1566.25,-112.12C1554.77,-97.73 1529.97,-69.57 1502,-56 1480.73,-45.68 1331.62,-24.88 1262.29,-15.63"/>
<polygon fill="midnightblue" stroke="midnightblue" points="1262.65,-12.14 1252.27,-14.3 1261.72,-19.08 1262.65,-12.14"/>
</g>
<!-- Node24&#45;&gt;Node4 -->
<g id="edge52" class="edge">
<title>Node24&#45;&gt;Node4</title>
<path fill="none" stroke="midnightblue" d="M1535.97,-114.36C1531.27,-113.54 1526.53,-112.74 1522,-112 1416.43,-94.7 1389.31,-94.81 1284,-76 1240.67,-68.26 1230.38,-63.46 1187,-56 1089.79,-39.29 975.43,-24.65 911.27,-16.89"/>
<polygon fill="midnightblue" stroke="midnightblue" points="911.37,-13.38 901.03,-15.66 910.54,-20.33 911.37,-13.38"/>
</g>
<!-- Node24&#45;&gt;Node8 -->
<g id="edge53" class="edge">
<title>Node24&#45;&gt;Node8</title>
<path fill="none" stroke="midnightblue" d="M1535.91,-118C1511.74,-116.12 1479.51,-113.72 1451,-112 1109.47,-91.41 1023.43,-98.21 682,-76 656.94,-74.37 628.66,-71.99 607.33,-70.09"/>
<polygon fill="midnightblue" stroke="midnightblue" points="607.43,-66.59 597.16,-69.17 606.8,-73.56 607.43,-66.59"/>
</g>
<!-- Node24&#45;&gt;Node9 -->
<g id="edge54" class="edge">
<title>Node24&#45;&gt;Node9</title>
<path fill="none" stroke="midnightblue" d="M1610.29,-113.88C1667.44,-102.98 1775.48,-82.36 1827.11,-72.51"/>
<polygon fill="midnightblue" stroke="midnightblue" points="1827.78,-75.95 1836.94,-70.64 1826.47,-69.07 1827.78,-75.95"/>
</g>
<!-- Node25 -->
<g id="node25" class="node">
<title>Node25</title>
<g id="a_node25"><a xlink:title=" ">
<polygon fill="none" stroke="#bfbfbf" points="1447,-56.5 1447,-75.5 1493,-75.5 1493,-56.5 1447,-56.5"/>
<text text-anchor="middle" x="1470" y="-63.5" font-family="Helvetica,sans-Serif" font-size="10.00">cstdint</text>
</a>
</g>
</g>
<!-- Node24&#45;&gt;Node25 -->
<g id="edge55" class="edge">
<title>Node24&#45;&gt;Node25</title>
<path fill="none" stroke="midnightblue" d="M1556.45,-112.32C1540.01,-103.7 1514.57,-90.36 1495.53,-80.39"/>
<polygon fill="midnightblue" stroke="midnightblue" points="1496.99,-77.2 1486.51,-75.65 1493.74,-83.4 1496.99,-77.2"/>
</g>
<!-- Node30&#45;&gt;Node3 -->
<g id="edge69" class="edge">
<title>Node30&#45;&gt;Node3</title>
<path fill="none" stroke="midnightblue" d="M409.77,-112.28C420.05,-97.58 443.12,-68.28 471,-56 504.35,-41.31 1046.93,-18.31 1191.72,-12.42"/>
<polygon fill="midnightblue" stroke="midnightblue" points="1191.98,-15.91 1201.83,-12.01 1191.7,-8.91 1191.98,-15.91"/>
</g>
<!-- Node30&#45;&gt;Node4 -->
<g id="edge70" class="edge">
<title>Node30&#45;&gt;Node4</title>
<path fill="none" stroke="midnightblue" d="M371.34,-113.63C338.35,-105.43 290.75,-91.33 280,-76 274.9,-68.72 273.96,-62.52 280,-56 315.71,-17.42 676.38,-11.82 810.83,-11.08"/>
<polygon fill="midnightblue" stroke="midnightblue" points="810.89,-14.58 820.87,-11.03 810.85,-7.58 810.89,-14.58"/>
</g>
<!-- Node30&#45;&gt;Node5 -->
<g id="edge72" class="edge">
<title>Node30&#45;&gt;Node5</title>
<path fill="none" stroke="midnightblue" d="M371.19,-113.26C326.75,-102.78 248.04,-84.22 205.06,-74.09"/>
<polygon fill="midnightblue" stroke="midnightblue" points="205.73,-70.65 195.2,-71.76 204.13,-77.46 205.73,-70.65"/>
</g>
<!-- Node30&#45;&gt;Node8 -->
<g id="edge71" class="edge">
<title>Node30&#45;&gt;Node8</title>
<path fill="none" stroke="midnightblue" d="M430.94,-112.44C460.76,-102.97 508.85,-87.7 540.93,-77.5"/>
<polygon fill="midnightblue" stroke="midnightblue" points="542.27,-80.75 550.74,-74.39 540.15,-74.08 542.27,-80.75"/>
</g>
<!-- Node31 -->
<g id="node31" class="node">
<title>Node31</title>
<g id="a_node31"><a xlink:title=" ">
<polygon fill="none" stroke="#bfbfbf" points="357,-56.5 357,-75.5 419,-75.5 419,-56.5 357,-56.5"/>
<text text-anchor="middle" x="388" y="-63.5" font-family="Helvetica,sans-Serif" font-size="10.00">type_traits</text>
</a>
</g>
</g>
<!-- Node30&#45;&gt;Node31 -->
<g id="edge73" class="edge">
<title>Node30&#45;&gt;Node31</title>
<path fill="none" stroke="midnightblue" d="M401.36,-112.08C399.21,-104.85 396.12,-94.41 393.45,-85.4"/>
<polygon fill="midnightblue" stroke="midnightblue" points="396.79,-84.34 390.59,-75.75 390.08,-86.33 396.79,-84.34"/>
</g>
<!-- Node32 -->
<g id="node32" class="node">
<title>Node32</title>
<g id="a_node32"><a xlink:title=" ">
<polygon fill="none" stroke="#bfbfbf" points="289.5,-56.5 289.5,-75.5 338.5,-75.5 338.5,-56.5 289.5,-56.5"/>
<text text-anchor="middle" x="314" y="-63.5" font-family="Helvetica,sans-Serif" font-size="10.00">cstddef</text>
</a>
</g>
</g>
<!-- Node30&#45;&gt;Node32 -->
<g id="edge74" class="edge">
<title>Node30&#45;&gt;Node32</title>
<path fill="none" stroke="midnightblue" d="M389.54,-112.32C375.5,-103.9 353.95,-90.97 337.46,-81.07"/>
<polygon fill="midnightblue" stroke="midnightblue" points="338.8,-77.8 328.42,-75.65 335.2,-83.8 338.8,-77.8"/>
</g>
<!-- Node33&#45;&gt;Node2 -->
<g id="edge88" class="edge">
<title>Node33&#45;&gt;Node2</title>
<path fill="none" stroke="midnightblue" d="M404.83,-341.59C361.02,-336.93 300.74,-325.93 254,-300 232.83,-288.26 214.33,-267.11 202.95,-252.13"/>
<polygon fill="midnightblue" stroke="midnightblue" points="205.55,-249.75 196.82,-243.74 199.89,-253.88 205.55,-249.75"/>
</g>
<!-- Node33&#45;&gt;Node3 -->
<g id="edge77" class="edge">
<title>Node33&#45;&gt;Node3</title>
<path fill="none" stroke="midnightblue" d="M521.05,-343.79C718.23,-339.49 1361.46,-323.93 1567,-300 1718.08,-282.41 1903,-387.1 1903,-235 1903,-235 1903,-235 1903,-121 1903,-90.9 1907.51,-74.8 1884,-56 1834.09,-16.09 1373.67,-25.45 1310,-20 1294.31,-18.66 1276.99,-16.83 1262.25,-15.18"/>
<polygon fill="midnightblue" stroke="midnightblue" points="1262.37,-11.67 1252.03,-14.01 1261.57,-18.62 1262.37,-11.67"/>
</g>
<!-- Node33&#45;&gt;Node4 -->
<g id="edge78" class="edge">
<title>Node33&#45;&gt;Node4</title>
<path fill="none" stroke="midnightblue" d="M404.83,-343.31C280.48,-338.13 0,-317.31 0,-235 0,-235 0,-235 0,-121 0,-67.62 50.25,-72.56 101,-56 233.37,-12.8 662.65,-10.23 810.45,-10.67"/>
<polygon fill="midnightblue" stroke="midnightblue" points="810.59,-14.17 820.6,-10.71 810.61,-7.17 810.59,-14.17"/>
</g>
<!-- Node33&#45;&gt;Node5 -->
<g id="edge80" class="edge">
<title>Node33&#45;&gt;Node5</title>
<path fill="none" stroke="midnightblue" d="M404.69,-340.27C371.07,-334.96 329.71,-323.72 300,-300 281.12,-284.93 208.78,-137.11 183.65,-85.04"/>
<polygon fill="midnightblue" stroke="midnightblue" points="186.66,-83.21 179.17,-75.71 180.35,-86.24 186.66,-83.21"/>
</g>
<!-- Node33&#45;&gt;Node6 -->
<g id="edge81" class="edge">
<title>Node33&#45;&gt;Node6</title>
<path fill="none" stroke="midnightblue" d="M404.63,-338.55C355.73,-332.06 284.57,-320.09 225,-300 172.26,-282.22 146.78,-288.23 113,-244 102.96,-230.85 100.1,-211.98 99.51,-197.95"/>
<polygon fill="midnightblue" stroke="midnightblue" points="103.01,-197.52 99.46,-187.54 96.01,-197.56 103.01,-197.52"/>
</g>
<!-- Node33&#45;&gt;Node7 -->
<g id="edge87" class="edge">
<title>Node33&#45;&gt;Node7</title>
<path fill="none" stroke="midnightblue" d="M446.13,-336.32C429.29,-327.66 403.19,-314.24 383.76,-304.25"/>
<polygon fill="midnightblue" stroke="midnightblue" points="385.32,-301.12 374.83,-299.65 382.12,-307.34 385.32,-301.12"/>
</g>
<!-- Node33&#45;&gt;Node8 -->
<g id="edge79" class="edge">
<title>Node33&#45;&gt;Node8</title>
<path fill="none" stroke="midnightblue" d="M477.55,-336.26C501.62,-320.95 549.19,-286.77 571,-244 597.8,-191.44 592.05,-170.57 585,-112 583.93,-103.11 581.71,-93.43 579.54,-85.34"/>
<polygon fill="midnightblue" stroke="midnightblue" points="582.84,-84.17 576.73,-75.51 576.11,-86.09 582.84,-84.17"/>
</g>
<!-- Node33&#45;&gt;Node9 -->
<g id="edge82" class="edge">
<title>Node33&#45;&gt;Node9</title>
<path fill="none" stroke="midnightblue" d="M521.12,-343.44C782.45,-336.03 1836,-302.03 1836,-235 1836,-235 1836,-235 1836,-177 1836,-144.44 1844.59,-107.32 1850.51,-85.59"/>
<polygon fill="midnightblue" stroke="midnightblue" points="1853.94,-86.32 1853.3,-75.74 1847.21,-84.41 1853.94,-86.32"/>
</g>
<!-- Node33&#45;&gt;Node10 -->
<g id="edge85" class="edge">
<title>Node33&#45;&gt;Node10</title>
<path fill="none" stroke="midnightblue" d="M468.02,-336.37C478.54,-318.3 503.04,-276.18 516.93,-252.31"/>
<polygon fill="midnightblue" stroke="midnightblue" points="520,-254 522,-243.59 513.95,-250.47 520,-254"/>
</g>
<!-- Node33&#45;&gt;Node15 -->
<g id="edge83" class="edge">
<title>Node33&#45;&gt;Node15</title>
<path fill="none" stroke="midnightblue" d="M521.05,-345.03C740.62,-344.4 1508,-335.05 1508,-235 1508,-235 1508,-235 1508,-177 1508,-138.58 1484.86,-130.16 1451,-112 1345.09,-55.21 1301.4,-96.61 1183,-76 1178.98,-75.3 1174.76,-74.49 1170.62,-73.65"/>
<polygon fill="midnightblue" stroke="midnightblue" points="1171.1,-70.17 1160.6,-71.53 1169.66,-77.02 1171.1,-70.17"/>
</g>
<!-- Node33&#45;&gt;Node19 -->
<g id="edge84" class="edge">
<title>Node33&#45;&gt;Node19</title>
<path fill="none" stroke="midnightblue" d="M521.23,-343.35C559.72,-339.41 609.13,-328.55 643,-300 692.81,-258.01 711.92,-178.01 718.26,-141.73"/>
<polygon fill="midnightblue" stroke="midnightblue" points="721.76,-142.01 719.89,-131.59 714.84,-140.9 721.76,-142.01"/>
</g>
<!-- Node33&#45;&gt;Node30 -->
<g id="edge86" class="edge">
<title>Node33&#45;&gt;Node30</title>
<path fill="none" stroke="midnightblue" d="M460.69,-336.3C451.99,-303.56 421.11,-187.38 408.96,-141.67"/>
<polygon fill="midnightblue" stroke="midnightblue" points="412.31,-140.65 406.36,-131.88 405.55,-142.45 412.31,-140.65"/>
</g>
</g>
</svg>
