<?xml version="1.0" encoding="UTF-8" standalone="no"?>
<!DOCTYPE svg PUBLIC "-//W3C//DTD SVG 1.1//EN"
 "http://www.w3.org/Graphics/SVG/1.1/DTD/svg11.dtd">
<!-- Generated by graphviz version 2.44.0 ()
 -->
<!-- Title: include/zpp/result.hpp Pages: 1 -->
<svg width="251pt" height="140pt"
 viewBox="0.00 0.00 250.50 140.00" xmlns="http://www.w3.org/2000/svg" xmlns:xlink="http://www.w3.org/1999/xlink">
<g id="graph0" class="graph" transform="scale(1 1) rotate(0) translate(4 136)">
<title>include/zpp/result.hpp</title>
<!-- Node1 -->
<g id="node1" class="node">
<title>Node1</title>
<g id="a_node1"><a xlink:title=" ">
<polygon fill="#bfbfbf" stroke="black" points="81,-112.5 81,-131.5 191,-131.5 191,-112.5 81,-112.5"/>
<text text-anchor="middle" x="136" y="-119.5" font-family="Helvetica,sans-Serif" font-size="10.00">include/zpp/result.hpp</text>
</a>
</g>
</g>
<!-- Node2 -->
<g id="node2" class="node">
<title>Node2</title>
<g id="a_node2"><a xlink:title=" ">
<polygon fill="none" stroke="#bfbfbf" points="0,-0.5 0,-19.5 50,-19.5 50,-0.5 0,-0.5"/>
<text text-anchor="middle" x="25" y="-7.5" font-family="Helvetica,sans-Serif" font-size="10.00">kernel.h</text>
</a>
</g>
</g>
<!-- Node1&#45;&gt;Node2 -->
<g id="edge1" class="edge">
<title>Node1&#45;&gt;Node2</title>
<path fill="none" stroke="midnightblue" d="M99.58,-112.4C79.18,-105.75 54.92,-94.47 40,-76 29.43,-62.92 26.03,-43.77 25.06,-29.64"/>
<polygon fill="midnightblue" stroke="midnightblue" points="28.55,-29.47 24.71,-19.6 21.56,-29.71 28.55,-29.47"/>
</g>
<!-- Node3 -->
<g id="node3" class="node">
<title>Node3</title>
<g id="a_node3"><a xlink:title=" ">
<polygon fill="none" stroke="#bfbfbf" points="135,-0.5 135,-19.5 215,-19.5 215,-0.5 135,-0.5"/>
<text text-anchor="middle" x="175" y="-7.5" font-family="Helvetica,sans-Serif" font-size="10.00">sys/__assert.h</text>
</a>
</g>
</g>
<!-- Node1&#45;&gt;Node3 -->
<g id="edge2" class="edge">
<title>Node1&#45;&gt;Node3</title>
<path fill="none" stroke="midnightblue" d="M140.34,-112.18C144.66,-103.21 151.29,-88.84 156,-76 161.69,-60.48 166.86,-42.39 170.37,-29.25"/>
<polygon fill="midnightblue" stroke="midnightblue" points="173.77,-30.09 172.9,-19.53 166.99,-28.33 173.77,-30.09"/>
</g>
<!-- Node4 -->
<g id="node4" class="node">
<title>Node4</title>
<g id="a_node4"><a xlink:href="error__code_8hpp.html" target="_top" xlink:title=" ">
<polygon fill="none" stroke="black" points="49,-56.5 49,-75.5 147,-75.5 147,-56.5 49,-56.5"/>
<text text-anchor="middle" x="98" y="-63.5" font-family="Helvetica,sans-Serif" font-size="10.00">zpp/error_code.hpp</text>
</a>
</g>
</g>
<!-- Node1&#45;&gt;Node4 -->
<g id="edge3" class="edge">
<title>Node1&#45;&gt;Node4</title>
<path fill="none" stroke="midnightblue" d="M129.73,-112.08C124.36,-104.46 116.48,-93.26 109.92,-83.94"/>
<polygon fill="midnightblue" stroke="midnightblue" points="112.78,-81.91 104.16,-75.75 107.05,-85.94 112.78,-81.91"/>
</g>
<!-- Node6 -->
<g id="node6" class="node">
<title>Node6</title>
<g id="a_node6"><a xlink:title=" ">
<polygon fill="none" stroke="#bfbfbf" points="203.5,-56.5 203.5,-75.5 242.5,-75.5 242.5,-56.5 203.5,-56.5"/>
<text text-anchor="middle" x="223" y="-63.5" font-family="Helvetica,sans-Serif" font-size="10.00">utility</text>
</a>
</g>
</g>
<!-- Node1&#45;&gt;Node6 -->
<g id="edge7" class="edge">
<title>Node1&#45;&gt;Node6</title>
<path fill="none" stroke="midnightblue" d="M149.98,-112.32C163.55,-103.9 184.38,-90.97 200.32,-81.07"/>
<polygon fill="midnightblue" stroke="midnightblue" points="202.41,-83.9 209.06,-75.65 198.71,-77.95 202.41,-83.9"/>
</g>
<!-- Node4&#45;&gt;Node2 -->
<g id="edge4" class="edge">
<title>Node4&#45;&gt;Node2</title>
<path fill="none" stroke="midnightblue" d="M86.27,-56.32C75.16,-48.11 58.26,-35.6 45.02,-25.81"/>
<polygon fill="midnightblue" stroke="midnightblue" points="47.06,-22.97 36.94,-19.83 42.9,-28.59 47.06,-22.97"/>
</g>
<!-- Node4&#45;&gt;Node3 -->
<g id="edge5" class="edge">
<title>Node4&#45;&gt;Node3</title>
<path fill="none" stroke="midnightblue" d="M110.37,-56.32C122.16,-48.06 140.13,-35.45 154.14,-25.63"/>
<polygon fill="midnightblue" stroke="midnightblue" points="156.48,-28.26 162.66,-19.65 152.46,-22.53 156.48,-28.26"/>
</g>
<!-- Node5 -->
<g id="node5" class="node">
<title>Node5</title>
<g id="a_node5"><a xlink:title=" ">
<polygon fill="none" stroke="#bfbfbf" points="71,-0.5 71,-19.5 117,-19.5 117,-0.5 71,-0.5"/>
<text text-anchor="middle" x="94" y="-7.5" font-family="Helvetica,sans-Serif" font-size="10.00">errno.h</text>
</a>
</g>
</g>
<!-- Node4&#45;&gt;Node5 -->
<g id="edge6" class="edge">
<title>Node4&#45;&gt;Node5</title>
<path fill="none" stroke="midnightblue" d="M97.34,-56.08C96.82,-49.01 96.06,-38.86 95.41,-29.99"/>
<polygon fill="midnightblue" stroke="midnightblue" points="98.88,-29.47 94.65,-19.75 91.9,-29.98 98.88,-29.47"/>
</g>
</g>
</svg>
