<?xml version="1.0" encoding="UTF-8" standalone="no"?>
<!DOCTYPE svg PUBLIC "-//W3C//DTD SVG 1.1//EN"
 "http://www.w3.org/Graphics/SVG/1.1/DTD/svg11.dtd">
<!-- Generated by graphviz version 2.44.0 ()
 -->
<!-- Title: include/zpp/sem.hpp Pages: 1 -->
<svg width="1348pt" height="252pt"
 viewBox="0.00 0.00 1347.63 252.00" xmlns="http://www.w3.org/2000/svg" xmlns:xlink="http://www.w3.org/1999/xlink">
<g id="graph0" class="graph" transform="scale(1 1) rotate(0) translate(4 248)">
<title>include/zpp/sem.hpp</title>
<!-- Node1 -->
<g id="node1" class="node">
<title>Node1</title>
<g id="a_node1"><a xlink:title=" ">
<polygon fill="#bfbfbf" stroke="black" points="716.35,-224.5 716.35,-243.5 821.35,-243.5 821.35,-224.5 716.35,-224.5"/>
<text text-anchor="middle" x="768.85" y="-231.5" font-family="Helvetica,sans-Serif" font-size="10.00">include/zpp/sem.hpp</text>
</a>
</g>
</g>
<!-- Node2 -->
<g id="node2" class="node">
<title>Node2</title>
<g id="a_node2"><a xlink:href="thread_8hpp.html" target="_top" xlink:title=" ">
<polygon fill="none" stroke="black" points="604.85,-168.5 604.85,-187.5 684.85,-187.5 684.85,-168.5 604.85,-168.5"/>
<text text-anchor="middle" x="644.85" y="-175.5" font-family="Helvetica,sans-Serif" font-size="10.00">zpp/thread.hpp</text>
</a>
</g>
</g>
<!-- Node1&#45;&gt;Node2 -->
<g id="edge1" class="edge">
<title>Node1&#45;&gt;Node2</title>
<path fill="none" stroke="midnightblue" d="M749.2,-224.44C728.88,-215.6 696.95,-201.69 673.75,-191.59"/>
<polygon fill="midnightblue" stroke="midnightblue" points="674.97,-188.3 664.41,-187.52 672.18,-194.72 674.97,-188.3"/>
</g>
<!-- Node4 -->
<g id="node4" class="node">
<title>Node4</title>
<g id="a_node4"><a xlink:title=" ">
<polygon fill="none" stroke="#bfbfbf" points="449.85,-0.5 449.85,-19.5 499.85,-19.5 499.85,-0.5 449.85,-0.5"/>
<text text-anchor="middle" x="474.85" y="-7.5" font-family="Helvetica,sans-Serif" font-size="10.00">kernel.h</text>
</a>
</g>
</g>
<!-- Node1&#45;&gt;Node4 -->
<g id="edge51" class="edge">
<title>Node1&#45;&gt;Node4</title>
<path fill="none" stroke="midnightblue" d="M716.24,-229.75C572.6,-220.21 176.74,-189.29 60.85,-132 29.01,-116.26 17.58,-108.75 3.85,-76 0.41,-67.8 -2.13,-62.58 3.85,-56 33.06,-23.86 335.45,-14.11 439.73,-11.69"/>
<polygon fill="midnightblue" stroke="midnightblue" points="439.83,-15.19 449.75,-11.47 439.68,-8.19 439.83,-15.19"/>
</g>
<!-- Node5 -->
<g id="node5" class="node">
<title>Node5</title>
<g id="a_node5"><a xlink:title=" ">
<polygon fill="none" stroke="#bfbfbf" points="768.85,-0.5 768.85,-19.5 848.85,-19.5 848.85,-0.5 768.85,-0.5"/>
<text text-anchor="middle" x="808.85" y="-7.5" font-family="Helvetica,sans-Serif" font-size="10.00">sys/__assert.h</text>
</a>
</g>
</g>
<!-- Node1&#45;&gt;Node5 -->
<g id="edge52" class="edge">
<title>Node1&#45;&gt;Node5</title>
<path fill="none" stroke="midnightblue" d="M821.54,-232.91C983.66,-230.99 1455.71,-212.19 1312.85,-56 1282.64,-22.97 981.08,-14.01 859.38,-11.73"/>
<polygon fill="midnightblue" stroke="midnightblue" points="859.27,-8.23 849.21,-11.55 859.15,-15.23 859.27,-8.23"/>
</g>
<!-- Node8 -->
<g id="node8" class="node">
<title>Node8</title>
<g id="a_node8"><a xlink:title=" ">
<polygon fill="none" stroke="#bfbfbf" points="696.85,-56.5 696.85,-75.5 742.85,-75.5 742.85,-56.5 696.85,-56.5"/>
<text text-anchor="middle" x="719.85" y="-63.5" font-family="Helvetica,sans-Serif" font-size="10.00">chrono</text>
</a>
</g>
</g>
<!-- Node1&#45;&gt;Node8 -->
<g id="edge53" class="edge">
<title>Node1&#45;&gt;Node8</title>
<path fill="none" stroke="midnightblue" d="M766.21,-224.08C758.5,-197.95 735.85,-121.21 725.33,-85.58"/>
<polygon fill="midnightblue" stroke="midnightblue" points="728.57,-84.17 722.38,-75.57 721.85,-86.15 728.57,-84.17"/>
</g>
<!-- Node15 -->
<g id="node15" class="node">
<title>Node15</title>
<g id="a_node15"><a xlink:title=" ">
<polygon fill="none" stroke="#bfbfbf" points="998.85,-56.5 998.85,-75.5 1038.85,-75.5 1038.85,-56.5 998.85,-56.5"/>
<text text-anchor="middle" x="1018.85" y="-63.5" font-family="Helvetica,sans-Serif" font-size="10.00">limits</text>
</a>
</g>
</g>
<!-- Node1&#45;&gt;Node15 -->
<g id="edge54" class="edge">
<title>Node1&#45;&gt;Node15</title>
<path fill="none" stroke="midnightblue" d="M817.11,-224.45C869.48,-212.67 952,-186.39 999.85,-132 1011.12,-119.18 1015.72,-100 1017.59,-85.79"/>
<polygon fill="midnightblue" stroke="midnightblue" points="1021.09,-85.97 1018.58,-75.68 1014.12,-85.29 1021.09,-85.97"/>
</g>
<!-- Node3 -->
<g id="node3" class="node">
<title>Node3</title>
<g id="a_node3"><a xlink:href="thread__prio_8hpp.html" target="_top" xlink:title=" ">
<polygon fill="none" stroke="black" points="577.35,-56.5 577.35,-75.5 678.35,-75.5 678.35,-56.5 577.35,-56.5"/>
<text text-anchor="middle" x="627.85" y="-63.5" font-family="Helvetica,sans-Serif" font-size="10.00">zpp/thread_prio.hpp</text>
</a>
</g>
</g>
<!-- Node2&#45;&gt;Node3 -->
<g id="edge2" class="edge">
<title>Node2&#45;&gt;Node3</title>
<path fill="none" stroke="midnightblue" d="M604.71,-174.21C550.06,-169.48 456.66,-157.77 435.85,-132 430.26,-125.08 430.33,-118.97 435.85,-112 444.17,-101.51 514,-87.04 567.07,-77.37"/>
<polygon fill="midnightblue" stroke="midnightblue" points="567.88,-80.78 577.1,-75.56 566.64,-73.89 567.88,-80.78"/>
</g>
<!-- Node2&#45;&gt;Node4 -->
<g id="edge43" class="edge">
<title>Node2&#45;&gt;Node4</title>
<path fill="none" stroke="midnightblue" d="M604.45,-177.58C475.9,-178.41 80.76,-172.94 11.85,-76 6.7,-68.76 5.88,-62.58 11.85,-56 40.45,-24.48 335.86,-14.36 439.31,-11.77"/>
<polygon fill="midnightblue" stroke="midnightblue" points="439.63,-15.26 449.55,-11.52 439.46,-8.26 439.63,-15.26"/>
</g>
<!-- Node2&#45;&gt;Node5 -->
<g id="edge44" class="edge">
<title>Node2&#45;&gt;Node5</title>
<path fill="none" stroke="midnightblue" d="M685.22,-176.03C796.27,-173 1104.46,-162.04 1200.85,-132 1248.37,-117.19 1272.96,-119.11 1297.85,-76 1302.29,-68.3 1303.84,-62.57 1297.85,-56 1268.71,-24.05 978.64,-14.48 859.52,-11.88"/>
<polygon fill="midnightblue" stroke="midnightblue" points="859.28,-8.38 849.21,-11.67 859.13,-15.37 859.28,-8.38"/>
</g>
<!-- Node6 -->
<g id="node6" class="node">
<title>Node6</title>
<g id="a_node6"><a xlink:href="thread__id_8hpp.html" target="_top" xlink:title=" ">
<polygon fill="none" stroke="black" points="428.85,-56.5 428.85,-75.5 520.85,-75.5 520.85,-56.5 428.85,-56.5"/>
<text text-anchor="middle" x="474.85" y="-63.5" font-family="Helvetica,sans-Serif" font-size="10.00">zpp/thread_id.hpp</text>
</a>
</g>
</g>
<!-- Node2&#45;&gt;Node6 -->
<g id="edge5" class="edge">
<title>Node2&#45;&gt;Node6</title>
<path fill="none" stroke="midnightblue" d="M604.43,-174.59C547.67,-170.26 448.82,-158.97 426.85,-132 413.14,-115.18 433.53,-94.95 451.81,-81.58"/>
<polygon fill="midnightblue" stroke="midnightblue" points="454.21,-84.17 460.45,-75.61 450.23,-78.41 454.21,-84.17"/>
</g>
<!-- Node7 -->
<g id="node7" class="node">
<title>Node7</title>
<g id="a_node7"><a xlink:href="thread__attr_8hpp.html" target="_top" xlink:title=" ">
<polygon fill="none" stroke="black" points="797.35,-112.5 797.35,-131.5 896.35,-131.5 896.35,-112.5 797.35,-112.5"/>
<text text-anchor="middle" x="846.85" y="-119.5" font-family="Helvetica,sans-Serif" font-size="10.00">zpp/thread_attr.hpp</text>
</a>
</g>
</g>
<!-- Node2&#45;&gt;Node7 -->
<g id="edge8" class="edge">
<title>Node2&#45;&gt;Node7</title>
<path fill="none" stroke="midnightblue" d="M676.86,-168.44C711.58,-159.16 767.14,-144.31 805.23,-134.13"/>
<polygon fill="midnightblue" stroke="midnightblue" points="806.23,-137.48 814.99,-131.52 804.43,-130.72 806.23,-137.48"/>
</g>
<!-- Node2&#45;&gt;Node8 -->
<g id="edge47" class="edge">
<title>Node2&#45;&gt;Node8</title>
<path fill="none" stroke="midnightblue" d="M666.36,-168.42C681.68,-161.11 701.36,-149.07 711.85,-132 720.31,-118.23 721.84,-99.7 721.53,-85.95"/>
<polygon fill="midnightblue" stroke="midnightblue" points="725.01,-85.52 720.95,-75.73 718.02,-85.92 725.01,-85.52"/>
</g>
<!-- Node9 -->
<g id="node9" class="node">
<title>Node9</title>
<g id="a_node9"><a xlink:title=" ">
<polygon fill="none" stroke="#bfbfbf" points="1057.35,-56.5 1057.35,-75.5 1096.35,-75.5 1096.35,-56.5 1057.35,-56.5"/>
<text text-anchor="middle" x="1076.85" y="-63.5" font-family="Helvetica,sans-Serif" font-size="10.00">utility</text>
</a>
</g>
</g>
<!-- Node2&#45;&gt;Node9 -->
<g id="edge49" class="edge">
<title>Node2&#45;&gt;Node9</title>
<path fill="none" stroke="midnightblue" d="M685.02,-174.78C765.62,-169.85 944.1,-156.47 999.85,-132 1025.26,-120.85 1048.74,-98.56 1062.93,-83.22"/>
<polygon fill="midnightblue" stroke="midnightblue" points="1065.75,-85.31 1069.81,-75.52 1060.54,-80.65 1065.75,-85.31"/>
</g>
<!-- Node10 -->
<g id="node10" class="node">
<title>Node10</title>
<g id="a_node10"><a xlink:href="thread__data_8hpp.html" target="_top" xlink:title=" ">
<polygon fill="none" stroke="black" points="20.85,-56.5 20.85,-75.5 124.85,-75.5 124.85,-56.5 20.85,-56.5"/>
<text text-anchor="middle" x="72.85" y="-63.5" font-family="Helvetica,sans-Serif" font-size="10.00">zpp/thread_data.hpp</text>
</a>
</g>
</g>
<!-- Node2&#45;&gt;Node10 -->
<g id="edge14" class="edge">
<title>Node2&#45;&gt;Node10</title>
<path fill="none" stroke="midnightblue" d="M604.74,-176.16C530.75,-173.82 368.23,-165.03 235.85,-132 185.75,-119.5 130.55,-95.07 98.96,-79.97"/>
<polygon fill="midnightblue" stroke="midnightblue" points="100.47,-76.82 89.94,-75.61 97.42,-83.12 100.47,-76.82"/>
</g>
<!-- Node12 -->
<g id="node12" class="node">
<title>Node12</title>
<g id="a_node12"><a xlink:href="thread__stack_8hpp.html" target="_top" xlink:title=" ">
<polygon fill="none" stroke="black" points="143.35,-56.5 143.35,-75.5 252.35,-75.5 252.35,-56.5 143.35,-56.5"/>
<text text-anchor="middle" x="197.85" y="-63.5" font-family="Helvetica,sans-Serif" font-size="10.00">zpp/thread_stack.hpp</text>
</a>
</g>
</g>
<!-- Node2&#45;&gt;Node12 -->
<g id="edge18" class="edge">
<title>Node2&#45;&gt;Node12</title>
<path fill="none" stroke="midnightblue" d="M604.56,-175.38C519.83,-171.47 326.13,-159.69 266.85,-132 243.42,-121.05 222.75,-99.05 210.28,-83.69"/>
<polygon fill="midnightblue" stroke="midnightblue" points="212.84,-81.28 203.93,-75.55 207.33,-85.59 212.84,-81.28"/>
</g>
<!-- Node13 -->
<g id="node13" class="node">
<title>Node13</title>
<g id="a_node13"><a xlink:href="clock_8hpp.html" target="_top" xlink:title=" ">
<polygon fill="none" stroke="black" points="914.85,-112.5 914.85,-131.5 990.85,-131.5 990.85,-112.5 914.85,-112.5"/>
<text text-anchor="middle" x="952.85" y="-119.5" font-family="Helvetica,sans-Serif" font-size="10.00">zpp/clock.hpp</text>
</a>
</g>
</g>
<!-- Node2&#45;&gt;Node13 -->
<g id="edge22" class="edge">
<title>Node2&#45;&gt;Node13</title>
<path fill="none" stroke="midnightblue" d="M685.13,-170.29C734.48,-162.02 820.91,-147.37 904.7,-132.18"/>
<polygon fill="midnightblue" stroke="midnightblue" points="905.43,-135.61 914.64,-130.38 904.18,-128.72 905.43,-135.61"/>
</g>
<!-- Node16 -->
<g id="node16" class="node">
<title>Node16</title>
<g id="a_node16"><a xlink:href="result_8hpp.html" target="_top" xlink:title=" ">
<polygon fill="none" stroke="black" points="1086.35,-112.5 1086.35,-131.5 1163.35,-131.5 1163.35,-112.5 1086.35,-112.5"/>
<text text-anchor="middle" x="1124.85" y="-119.5" font-family="Helvetica,sans-Serif" font-size="10.00">zpp/result.hpp</text>
</a>
</g>
</g>
<!-- Node2&#45;&gt;Node16 -->
<g id="edge28" class="edge">
<title>Node2&#45;&gt;Node16</title>
<path fill="none" stroke="midnightblue" d="M684.98,-173.62C760.77,-167.06 930.06,-151.49 1071.85,-132 1073.15,-131.82 1074.47,-131.64 1075.8,-131.44"/>
<polygon fill="midnightblue" stroke="midnightblue" points="1076.75,-134.84 1086.11,-129.87 1075.69,-127.92 1076.75,-134.84"/>
</g>
<!-- Node17 -->
<g id="node17" class="node">
<title>Node17</title>
<g id="a_node17"><a xlink:href="error__code_8hpp.html" target="_top" xlink:title=" ">
<polygon fill="none" stroke="black" points="1190.85,-56.5 1190.85,-75.5 1288.85,-75.5 1288.85,-56.5 1190.85,-56.5"/>
<text text-anchor="middle" x="1239.85" y="-63.5" font-family="Helvetica,sans-Serif" font-size="10.00">zpp/error_code.hpp</text>
</a>
</g>
</g>
<!-- Node2&#45;&gt;Node17 -->
<g id="edge36" class="edge">
<title>Node2&#45;&gt;Node17</title>
<path fill="none" stroke="midnightblue" d="M685.17,-177.03C793.05,-176.56 1086,-171.58 1172.85,-132 1196.02,-121.44 1216,-99.35 1227.96,-83.86"/>
<polygon fill="midnightblue" stroke="midnightblue" points="1230.91,-85.77 1234.05,-75.65 1225.28,-81.6 1230.91,-85.77"/>
</g>
<!-- Node19 -->
<g id="node19" class="node">
<title>Node19</title>
<g id="a_node19"><a xlink:href="heap_8hpp.html" target="_top" xlink:title=" ">
<polygon fill="none" stroke="black" points="275.85,-112.5 275.85,-131.5 349.85,-131.5 349.85,-112.5 275.85,-112.5"/>
<text text-anchor="middle" x="312.85" y="-119.5" font-family="Helvetica,sans-Serif" font-size="10.00">zpp/heap.hpp</text>
</a>
</g>
</g>
<!-- Node2&#45;&gt;Node19 -->
<g id="edge37" class="edge">
<title>Node2&#45;&gt;Node19</title>
<path fill="none" stroke="midnightblue" d="M604.8,-170.79C550.26,-162.29 449.6,-146.43 363.85,-132 362.58,-131.79 361.29,-131.57 359.99,-131.35"/>
<polygon fill="midnightblue" stroke="midnightblue" points="360.33,-127.85 349.88,-129.61 359.15,-134.75 360.33,-127.85"/>
</g>
<!-- Node22 -->
<g id="node22" class="node">
<title>Node22</title>
<g id="a_node22"><a xlink:title=" ">
<polygon fill="none" stroke="#bfbfbf" points="444.35,-112.5 444.35,-131.5 499.35,-131.5 499.35,-112.5 444.35,-112.5"/>
<text text-anchor="middle" x="471.85" y="-119.5" font-family="Helvetica,sans-Serif" font-size="10.00">sys/util.h</text>
</a>
</g>
</g>
<!-- Node2&#45;&gt;Node22 -->
<g id="edge45" class="edge">
<title>Node2&#45;&gt;Node22</title>
<path fill="none" stroke="midnightblue" d="M617.44,-168.44C588.08,-159.28 541.33,-144.69 508.75,-134.52"/>
<polygon fill="midnightblue" stroke="midnightblue" points="509.72,-131.16 499.13,-131.52 507.64,-137.84 509.72,-131.16"/>
</g>
<!-- Node23 -->
<g id="node23" class="node">
<title>Node23</title>
<g id="a_node23"><a xlink:title=" ">
<polygon fill="none" stroke="#bfbfbf" points="517.35,-112.5 517.35,-131.5 576.35,-131.5 576.35,-112.5 517.35,-112.5"/>
<text text-anchor="middle" x="546.85" y="-119.5" font-family="Helvetica,sans-Serif" font-size="10.00">functional</text>
</a>
</g>
</g>
<!-- Node2&#45;&gt;Node23 -->
<g id="edge46" class="edge">
<title>Node2&#45;&gt;Node23</title>
<path fill="none" stroke="midnightblue" d="M629.1,-168.32C613.53,-159.74 589.47,-146.49 571.39,-136.52"/>
<polygon fill="midnightblue" stroke="midnightblue" points="573,-133.42 562.56,-131.65 569.62,-139.55 573,-133.42"/>
</g>
<!-- Node24 -->
<g id="node24" class="node">
<title>Node24</title>
<g id="a_node24"><a xlink:title=" ">
<polygon fill="none" stroke="#bfbfbf" points="594.85,-112.5 594.85,-131.5 632.85,-131.5 632.85,-112.5 594.85,-112.5"/>
<text text-anchor="middle" x="613.85" y="-119.5" font-family="Helvetica,sans-Serif" font-size="10.00">tuple</text>
</a>
</g>
</g>
<!-- Node2&#45;&gt;Node24 -->
<g id="edge48" class="edge">
<title>Node2&#45;&gt;Node24</title>
<path fill="none" stroke="midnightblue" d="M639.73,-168.08C635.44,-160.61 629.19,-149.72 623.91,-140.52"/>
<polygon fill="midnightblue" stroke="midnightblue" points="626.89,-138.68 618.87,-131.75 620.82,-142.17 626.89,-138.68"/>
</g>
<!-- Node25 -->
<g id="node25" class="node">
<title>Node25</title>
<g id="a_node25"><a xlink:title=" ">
<polygon fill="none" stroke="#bfbfbf" points="651.35,-112.5 651.35,-131.5 702.35,-131.5 702.35,-112.5 651.35,-112.5"/>
<text text-anchor="middle" x="676.85" y="-119.5" font-family="Helvetica,sans-Serif" font-size="10.00">memory</text>
</a>
</g>
</g>
<!-- Node2&#45;&gt;Node25 -->
<g id="edge50" class="edge">
<title>Node2&#45;&gt;Node25</title>
<path fill="none" stroke="midnightblue" d="M650.13,-168.08C654.56,-160.61 661.01,-149.72 666.47,-140.52"/>
<polygon fill="midnightblue" stroke="midnightblue" points="669.58,-142.14 671.66,-131.75 663.55,-138.57 669.58,-142.14"/>
</g>
<!-- Node3&#45;&gt;Node4 -->
<g id="edge3" class="edge">
<title>Node3&#45;&gt;Node4</title>
<path fill="none" stroke="midnightblue" d="M603.61,-56.44C577.98,-47.4 537.36,-33.06 508.61,-22.92"/>
<polygon fill="midnightblue" stroke="midnightblue" points="509.57,-19.54 498.98,-19.52 507.24,-26.15 509.57,-19.54"/>
</g>
<!-- Node3&#45;&gt;Node5 -->
<g id="edge4" class="edge">
<title>Node3&#45;&gt;Node5</title>
<path fill="none" stroke="midnightblue" d="M656.53,-56.44C687.38,-47.24 736.58,-32.56 770.68,-22.39"/>
<polygon fill="midnightblue" stroke="midnightblue" points="771.72,-25.73 780.3,-19.52 769.72,-19.02 771.72,-25.73"/>
</g>
<!-- Node6&#45;&gt;Node4 -->
<g id="edge6" class="edge">
<title>Node6&#45;&gt;Node4</title>
<path fill="none" stroke="midnightblue" d="M474.85,-56.08C474.85,-49.01 474.85,-38.86 474.85,-29.99"/>
<polygon fill="midnightblue" stroke="midnightblue" points="478.35,-29.75 474.85,-19.75 471.35,-29.75 478.35,-29.75"/>
</g>
<!-- Node6&#45;&gt;Node5 -->
<g id="edge7" class="edge">
<title>Node6&#45;&gt;Node5</title>
<path fill="none" stroke="midnightblue" d="M520.94,-57.55C583.37,-47.46 694.38,-29.51 758.79,-19.09"/>
<polygon fill="midnightblue" stroke="midnightblue" points="759.4,-22.54 768.71,-17.49 758.28,-15.63 759.4,-22.54"/>
</g>
<!-- Node7&#45;&gt;Node3 -->
<g id="edge9" class="edge">
<title>Node7&#45;&gt;Node3</title>
<path fill="none" stroke="midnightblue" d="M812.15,-112.44C774.26,-103.1 713.5,-88.12 672.19,-77.93"/>
<polygon fill="midnightblue" stroke="midnightblue" points="672.93,-74.51 662.39,-75.52 671.26,-81.31 672.93,-74.51"/>
</g>
<!-- Node7&#45;&gt;Node4 -->
<g id="edge10" class="edge">
<title>Node7&#45;&gt;Node4</title>
<path fill="none" stroke="midnightblue" d="M837.43,-112.4C821.24,-98.17 786.55,-69.88 751.85,-56 669.37,-23 563.85,-14.18 509.96,-11.84"/>
<polygon fill="midnightblue" stroke="midnightblue" points="510.02,-8.34 499.89,-11.45 509.75,-15.33 510.02,-8.34"/>
</g>
<!-- Node7&#45;&gt;Node5 -->
<g id="edge11" class="edge">
<title>Node7&#45;&gt;Node5</title>
<path fill="none" stroke="midnightblue" d="M843.87,-112.37C837.71,-94.54 823.46,-53.3 815.16,-29.27"/>
<polygon fill="midnightblue" stroke="midnightblue" points="818.39,-27.9 811.82,-19.59 811.77,-30.19 818.39,-27.9"/>
</g>
<!-- Node7&#45;&gt;Node8 -->
<g id="edge12" class="edge">
<title>Node7&#45;&gt;Node8</title>
<path fill="none" stroke="midnightblue" d="M826.73,-112.44C805.82,-103.56 772.91,-89.56 749.13,-79.45"/>
<polygon fill="midnightblue" stroke="midnightblue" points="750.45,-76.21 739.88,-75.52 747.71,-82.65 750.45,-76.21"/>
</g>
<!-- Node7&#45;&gt;Node9 -->
<g id="edge13" class="edge">
<title>Node7&#45;&gt;Node9</title>
<path fill="none" stroke="midnightblue" d="M889.83,-112.43C928.62,-104.45 987.43,-91.79 1047.59,-75.89"/>
<polygon fill="midnightblue" stroke="midnightblue" points="1048.5,-79.27 1057.26,-73.32 1046.69,-72.51 1048.5,-79.27"/>
</g>
<!-- Node10&#45;&gt;Node4 -->
<g id="edge15" class="edge">
<title>Node10&#45;&gt;Node4</title>
<path fill="none" stroke="midnightblue" d="M125.08,-57.24C128.05,-56.82 130.99,-56.4 133.85,-56 245.38,-40.41 377.65,-23.37 439.57,-15.48"/>
<polygon fill="midnightblue" stroke="midnightblue" points="440.11,-18.93 449.59,-14.2 439.23,-11.99 440.11,-18.93"/>
</g>
<!-- Node10&#45;&gt;Node5 -->
<g id="edge17" class="edge">
<title>Node10&#45;&gt;Node5</title>
<path fill="none" stroke="midnightblue" d="M125.06,-57.02C128.03,-56.65 130.98,-56.31 133.85,-56 366.85,-31.08 646.68,-17.67 758.81,-12.97"/>
<polygon fill="midnightblue" stroke="midnightblue" points="758.96,-16.46 768.81,-12.55 758.67,-9.47 758.96,-16.46"/>
</g>
<!-- Node11 -->
<g id="node11" class="node">
<title>Node11</title>
<g id="a_node11"><a xlink:title=" ">
<polygon fill="none" stroke="#bfbfbf" points="83.85,-0.5 83.85,-19.5 187.85,-19.5 187.85,-0.5 83.85,-0.5"/>
<text text-anchor="middle" x="135.85" y="-7.5" font-family="Helvetica,sans-Serif" font-size="10.00">sys/arch_interface.h</text>
</a>
</g>
</g>
<!-- Node10&#45;&gt;Node11 -->
<g id="edge16" class="edge">
<title>Node10&#45;&gt;Node11</title>
<path fill="none" stroke="midnightblue" d="M82.97,-56.32C92.38,-48.26 106.59,-36.08 117.92,-26.37"/>
<polygon fill="midnightblue" stroke="midnightblue" points="120.23,-29 125.54,-19.83 115.67,-23.68 120.23,-29"/>
</g>
<!-- Node12&#45;&gt;Node4 -->
<g id="edge19" class="edge">
<title>Node12&#45;&gt;Node4</title>
<path fill="none" stroke="midnightblue" d="M241.74,-56.44C296.57,-45.75 389.3,-27.68 439.7,-17.85"/>
<polygon fill="midnightblue" stroke="midnightblue" points="440.63,-21.24 449.78,-15.89 439.29,-14.37 440.63,-21.24"/>
</g>
<!-- Node12&#45;&gt;Node5 -->
<g id="edge21" class="edge">
<title>Node12&#45;&gt;Node5</title>
<path fill="none" stroke="midnightblue" d="M252.61,-60.16C370.2,-49.77 645.38,-25.45 758.71,-15.43"/>
<polygon fill="midnightblue" stroke="midnightblue" points="759.19,-18.9 768.84,-14.54 758.57,-11.93 759.19,-18.9"/>
</g>
<!-- Node12&#45;&gt;Node11 -->
<g id="edge20" class="edge">
<title>Node12&#45;&gt;Node11</title>
<path fill="none" stroke="midnightblue" d="M187.89,-56.32C178.72,-48.34 164.91,-36.31 153.82,-26.65"/>
<polygon fill="midnightblue" stroke="midnightblue" points="155.83,-23.76 145.99,-19.83 151.23,-29.04 155.83,-23.76"/>
</g>
<!-- Node13&#45;&gt;Node4 -->
<g id="edge23" class="edge">
<title>Node13&#45;&gt;Node4</title>
<path fill="none" stroke="midnightblue" d="M934.54,-112.4C904,-98.41 840.42,-70.8 783.85,-56 686.58,-30.55 568.08,-18.36 510.15,-13.57"/>
<polygon fill="midnightblue" stroke="midnightblue" points="510.31,-10.07 500.06,-12.76 509.75,-17.05 510.31,-10.07"/>
</g>
<!-- Node13&#45;&gt;Node5 -->
<g id="edge25" class="edge">
<title>Node13&#45;&gt;Node5</title>
<path fill="none" stroke="midnightblue" d="M955.6,-112.42C959.35,-98.94 964.26,-72.65 951.85,-56 930.58,-27.48 891.25,-16.58 859.21,-12.63"/>
<polygon fill="midnightblue" stroke="midnightblue" points="859.41,-9.13 849.1,-11.57 858.68,-16.09 859.41,-9.13"/>
</g>
<!-- Node13&#45;&gt;Node8 -->
<g id="edge26" class="edge">
<title>Node13&#45;&gt;Node8</title>
<path fill="none" stroke="midnightblue" d="M915.93,-112.44C871.12,-102.06 796.22,-84.7 753.12,-74.71"/>
<polygon fill="midnightblue" stroke="midnightblue" points="753.68,-71.25 743.14,-72.4 752.1,-78.07 753.68,-71.25"/>
</g>
<!-- Node14 -->
<g id="node14" class="node">
<title>Node14</title>
<g id="a_node14"><a xlink:title=" ">
<polygon fill="none" stroke="#bfbfbf" points="874.85,-56.5 874.85,-75.5 942.85,-75.5 942.85,-56.5 874.85,-56.5"/>
<text text-anchor="middle" x="908.85" y="-63.5" font-family="Helvetica,sans-Serif" font-size="10.00">sys_clock.h</text>
</a>
</g>
</g>
<!-- Node13&#45;&gt;Node14 -->
<g id="edge24" class="edge">
<title>Node13&#45;&gt;Node14</title>
<path fill="none" stroke="midnightblue" d="M945.58,-112.08C939.3,-104.38 930.06,-93.03 922.42,-83.65"/>
<polygon fill="midnightblue" stroke="midnightblue" points="925.01,-81.29 915.98,-75.75 919.58,-85.71 925.01,-81.29"/>
</g>
<!-- Node13&#45;&gt;Node15 -->
<g id="edge27" class="edge">
<title>Node13&#45;&gt;Node15</title>
<path fill="none" stroke="midnightblue" d="M963.45,-112.32C973.31,-104.26 988.2,-92.08 1000.06,-82.37"/>
<polygon fill="midnightblue" stroke="midnightblue" points="1002.53,-84.88 1008.05,-75.83 998.1,-79.46 1002.53,-84.88"/>
</g>
<!-- Node16&#45;&gt;Node4 -->
<g id="edge29" class="edge">
<title>Node16&#45;&gt;Node4</title>
<path fill="none" stroke="midnightblue" d="M1125.18,-112.16C1125.19,-97.82 1122.87,-69.73 1105.85,-56 1082.52,-37.18 639.89,-17.73 510.25,-12.41"/>
<polygon fill="midnightblue" stroke="midnightblue" points="510.2,-8.91 500.07,-12 509.92,-15.9 510.2,-8.91"/>
</g>
<!-- Node16&#45;&gt;Node5 -->
<g id="edge30" class="edge">
<title>Node16&#45;&gt;Node5</title>
<path fill="none" stroke="midnightblue" d="M1130.86,-112.26C1139.47,-98.58 1152.82,-72 1138.85,-56 1103.16,-15.11 942.37,-9.99 859.14,-10.17"/>
<polygon fill="midnightblue" stroke="midnightblue" points="858.88,-6.67 848.9,-10.22 858.91,-13.67 858.88,-6.67"/>
</g>
<!-- Node16&#45;&gt;Node9 -->
<g id="edge35" class="edge">
<title>Node16&#45;&gt;Node9</title>
<path fill="none" stroke="midnightblue" d="M1116.92,-112.08C1110,-104.3 1099.78,-92.8 1091.4,-83.37"/>
<polygon fill="midnightblue" stroke="midnightblue" points="1093.89,-80.9 1084.63,-75.75 1088.66,-85.55 1093.89,-80.9"/>
</g>
<!-- Node16&#45;&gt;Node17 -->
<g id="edge31" class="edge">
<title>Node16&#45;&gt;Node17</title>
<path fill="none" stroke="midnightblue" d="M1143.07,-112.44C1161.74,-103.68 1191,-89.94 1212.47,-79.86"/>
<polygon fill="midnightblue" stroke="midnightblue" points="1214.15,-82.93 1221.71,-75.52 1211.17,-76.6 1214.15,-82.93"/>
</g>
<!-- Node17&#45;&gt;Node4 -->
<g id="edge32" class="edge">
<title>Node17&#45;&gt;Node4</title>
<path fill="none" stroke="midnightblue" d="M1190.81,-60.42C1174.3,-58.93 1155.79,-57.33 1138.85,-56 898.51,-37.15 608.86,-19.13 509.93,-13.11"/>
<polygon fill="midnightblue" stroke="midnightblue" points="510.08,-9.62 499.89,-12.5 509.66,-16.6 510.08,-9.62"/>
</g>
<!-- Node17&#45;&gt;Node5 -->
<g id="edge33" class="edge">
<title>Node17&#45;&gt;Node5</title>
<path fill="none" stroke="midnightblue" d="M1190.68,-57.88C1186.01,-57.23 1181.34,-56.6 1176.85,-56 1063.28,-40.95 929.73,-25.07 858.89,-16.79"/>
<polygon fill="midnightblue" stroke="midnightblue" points="859.25,-13.31 848.91,-15.63 858.43,-20.26 859.25,-13.31"/>
</g>
<!-- Node18 -->
<g id="node18" class="node">
<title>Node18</title>
<g id="a_node18"><a xlink:title=" ">
<polygon fill="none" stroke="#bfbfbf" points="1216.85,-0.5 1216.85,-19.5 1262.85,-19.5 1262.85,-0.5 1216.85,-0.5"/>
<text text-anchor="middle" x="1239.85" y="-7.5" font-family="Helvetica,sans-Serif" font-size="10.00">errno.h</text>
</a>
</g>
</g>
<!-- Node17&#45;&gt;Node18 -->
<g id="edge34" class="edge">
<title>Node17&#45;&gt;Node18</title>
<path fill="none" stroke="midnightblue" d="M1239.85,-56.08C1239.85,-49.01 1239.85,-38.86 1239.85,-29.99"/>
<polygon fill="midnightblue" stroke="midnightblue" points="1243.35,-29.75 1239.85,-19.75 1236.35,-29.75 1243.35,-29.75"/>
</g>
<!-- Node19&#45;&gt;Node4 -->
<g id="edge38" class="edge">
<title>Node19&#45;&gt;Node4</title>
<path fill="none" stroke="midnightblue" d="M307.26,-112.44C299.27,-98.99 286.87,-72.73 299.85,-56 316.79,-34.15 393.37,-21.06 439.43,-15.02"/>
<polygon fill="midnightblue" stroke="midnightblue" points="440.11,-18.46 449.59,-13.73 439.23,-11.51 440.11,-18.46"/>
</g>
<!-- Node19&#45;&gt;Node5 -->
<g id="edge39" class="edge">
<title>Node19&#45;&gt;Node5</title>
<path fill="none" stroke="midnightblue" d="M350.15,-116.38C394.04,-110.24 468.71,-97.57 529.85,-76 548.22,-69.52 550.42,-62.3 568.85,-56 632.32,-34.29 709.03,-22.22 758.35,-16.18"/>
<polygon fill="midnightblue" stroke="midnightblue" points="758.93,-19.63 768.45,-14.98 758.11,-12.68 758.93,-19.63"/>
</g>
<!-- Node19&#45;&gt;Node8 -->
<g id="edge40" class="edge">
<title>Node19&#45;&gt;Node8</title>
<path fill="none" stroke="midnightblue" d="M349.88,-118.47C415.79,-113.55 557.89,-101.08 686.51,-75.99"/>
<polygon fill="midnightblue" stroke="midnightblue" points="687.4,-79.39 696.53,-74.01 686.04,-72.52 687.4,-79.39"/>
</g>
<!-- Node20 -->
<g id="node20" class="node">
<title>Node20</title>
<g id="a_node20"><a xlink:title=" ">
<polygon fill="none" stroke="#bfbfbf" points="372.85,-56.5 372.85,-75.5 410.85,-75.5 410.85,-56.5 372.85,-56.5"/>
<text text-anchor="middle" x="391.85" y="-63.5" font-family="Helvetica,sans-Serif" font-size="10.00">array</text>
</a>
</g>
</g>
<!-- Node19&#45;&gt;Node20 -->
<g id="edge41" class="edge">
<title>Node19&#45;&gt;Node20</title>
<path fill="none" stroke="midnightblue" d="M325.54,-112.32C337.75,-103.98 356.43,-91.21 370.85,-81.35"/>
<polygon fill="midnightblue" stroke="midnightblue" points="372.91,-84.19 379.19,-75.65 368.96,-78.41 372.91,-84.19"/>
</g>
<!-- Node21 -->
<g id="node21" class="node">
<title>Node21</title>
<g id="a_node21"><a xlink:title=" ">
<polygon fill="none" stroke="#bfbfbf" points="308.85,-56.5 308.85,-75.5 354.85,-75.5 354.85,-56.5 308.85,-56.5"/>
<text text-anchor="middle" x="331.85" y="-63.5" font-family="Helvetica,sans-Serif" font-size="10.00">cstdint</text>
</a>
</g>
</g>
<!-- Node19&#45;&gt;Node21 -->
<g id="edge42" class="edge">
<title>Node19&#45;&gt;Node21</title>
<path fill="none" stroke="midnightblue" d="M315.99,-112.08C318.53,-104.85 322.21,-94.41 325.38,-85.4"/>
<polygon fill="midnightblue" stroke="midnightblue" points="328.75,-86.35 328.77,-75.75 322.15,-84.02 328.75,-86.35"/>
</g>
</g>
</svg>
