<?xml version="1.0" encoding="UTF-8" standalone="no"?>
<!DOCTYPE svg PUBLIC "-//W3C//DTD SVG 1.1//EN"
 "http://www.w3.org/Graphics/SVG/1.1/DTD/svg11.dtd">
<!-- Generated by graphviz version 2.44.0 ()
 -->
<!-- Title: include/zpp/thread_attr.hpp Pages: 1 -->
<svg width="286pt" height="151pt"
 viewBox="0.00 0.00 285.50 151.00" xmlns="http://www.w3.org/2000/svg" xmlns:xlink="http://www.w3.org/1999/xlink">
<g id="graph0" class="graph" transform="scale(1 1) rotate(0) translate(4 147)">
<title>include/zpp/thread_attr.hpp</title>
<!-- Node1 -->
<g id="node1" class="node">
<title>Node1</title>
<g id="a_node1"><a xlink:title=" ">
<polygon fill="#bfbfbf" stroke="black" points="98.5,-112.5 98.5,-142.5 193.5,-142.5 193.5,-112.5 98.5,-112.5"/>
<text text-anchor="start" x="106.5" y="-130.5" font-family="Helvetica,sans-Serif" font-size="10.00">include/zpp/thread</text>
<text text-anchor="middle" x="146" y="-119.5" font-family="Helvetica,sans-Serif" font-size="10.00">_attr.hpp</text>
</a>
</g>
</g>
<!-- Node2 -->
<g id="node2" class="node">
<title>Node2</title>
<g id="a_node2"><a xlink:href="thread__prio_8hpp.html" target="_top" xlink:title=" ">
<polygon fill="none" stroke="black" points="16.5,-56.5 16.5,-75.5 117.5,-75.5 117.5,-56.5 16.5,-56.5"/>
<text text-anchor="middle" x="67" y="-63.5" font-family="Helvetica,sans-Serif" font-size="10.00">zpp/thread_prio.hpp</text>
</a>
</g>
</g>
<!-- Node1&#45;&gt;Node2 -->
<g id="edge1" class="edge">
<title>Node1&#45;&gt;Node2</title>
<path fill="none" stroke="midnightblue" d="M127.28,-112.4C115.09,-103.22 99.21,-91.26 86.81,-81.92"/>
<polygon fill="midnightblue" stroke="midnightblue" points="88.59,-78.88 78.5,-75.66 84.38,-84.47 88.59,-78.88"/>
</g>
<!-- Node3 -->
<g id="node3" class="node">
<title>Node3</title>
<g id="a_node3"><a xlink:title=" ">
<polygon fill="none" stroke="#bfbfbf" points="0,-0.5 0,-19.5 50,-19.5 50,-0.5 0,-0.5"/>
<text text-anchor="middle" x="25" y="-7.5" font-family="Helvetica,sans-Serif" font-size="10.00">kernel.h</text>
</a>
</g>
</g>
<!-- Node1&#45;&gt;Node3 -->
<g id="edge4" class="edge">
<title>Node1&#45;&gt;Node3</title>
<path fill="none" stroke="midnightblue" d="M98.27,-122.81C66.7,-117.6 27.48,-105.23 7,-76 -2.94,-61.82 4.61,-42.33 12.76,-28.4"/>
<polygon fill="midnightblue" stroke="midnightblue" points="15.84,-30.09 18.29,-19.78 9.95,-26.31 15.84,-30.09"/>
</g>
<!-- Node4 -->
<g id="node4" class="node">
<title>Node4</title>
<g id="a_node4"><a xlink:title=" ">
<polygon fill="none" stroke="#bfbfbf" points="87,-0.5 87,-19.5 167,-19.5 167,-0.5 87,-0.5"/>
<text text-anchor="middle" x="127" y="-7.5" font-family="Helvetica,sans-Serif" font-size="10.00">sys/__assert.h</text>
</a>
</g>
</g>
<!-- Node1&#45;&gt;Node4 -->
<g id="edge5" class="edge">
<title>Node1&#45;&gt;Node4</title>
<path fill="none" stroke="midnightblue" d="M143.67,-112.34C140.25,-91.53 133.85,-52.66 130.06,-29.58"/>
<polygon fill="midnightblue" stroke="midnightblue" points="133.5,-28.97 128.43,-19.67 126.6,-30.1 133.5,-28.97"/>
</g>
<!-- Node5 -->
<g id="node5" class="node">
<title>Node5</title>
<g id="a_node5"><a xlink:title=" ">
<polygon fill="none" stroke="#bfbfbf" points="174,-56.5 174,-75.5 220,-75.5 220,-56.5 174,-56.5"/>
<text text-anchor="middle" x="197" y="-63.5" font-family="Helvetica,sans-Serif" font-size="10.00">chrono</text>
</a>
</g>
</g>
<!-- Node1&#45;&gt;Node5 -->
<g id="edge6" class="edge">
<title>Node1&#45;&gt;Node5</title>
<path fill="none" stroke="midnightblue" d="M158.09,-112.4C165.57,-103.66 175.22,-92.41 183.03,-83.3"/>
<polygon fill="midnightblue" stroke="midnightblue" points="185.73,-85.53 189.58,-75.66 180.41,-80.97 185.73,-85.53"/>
</g>
<!-- Node6 -->
<g id="node6" class="node">
<title>Node6</title>
<g id="a_node6"><a xlink:title=" ">
<polygon fill="none" stroke="#bfbfbf" points="238.5,-56.5 238.5,-75.5 277.5,-75.5 277.5,-56.5 238.5,-56.5"/>
<text text-anchor="middle" x="258" y="-63.5" font-family="Helvetica,sans-Serif" font-size="10.00">utility</text>
</a>
</g>
</g>
<!-- Node1&#45;&gt;Node6 -->
<g id="edge7" class="edge">
<title>Node1&#45;&gt;Node6</title>
<path fill="none" stroke="midnightblue" d="M172.54,-112.4C190.66,-102.77 214.54,-90.09 232.44,-80.58"/>
<polygon fill="midnightblue" stroke="midnightblue" points="234.51,-83.44 241.7,-75.66 231.23,-77.26 234.51,-83.44"/>
</g>
<!-- Node2&#45;&gt;Node3 -->
<g id="edge2" class="edge">
<title>Node2&#45;&gt;Node3</title>
<path fill="none" stroke="midnightblue" d="M60.06,-56.08C54.07,-48.38 45.25,-37.03 37.95,-27.65"/>
<polygon fill="midnightblue" stroke="midnightblue" points="40.71,-25.5 31.81,-19.75 35.18,-29.79 40.71,-25.5"/>
</g>
<!-- Node2&#45;&gt;Node4 -->
<g id="edge3" class="edge">
<title>Node2&#45;&gt;Node4</title>
<path fill="none" stroke="midnightblue" d="M76.64,-56.32C85.51,-48.34 98.87,-36.31 109.61,-26.65"/>
<polygon fill="midnightblue" stroke="midnightblue" points="112.09,-29.13 117.18,-19.83 107.41,-23.92 112.09,-29.13"/>
</g>
</g>
</svg>
