<?xml version="1.0" encoding="UTF-8" standalone="no"?>
<!DOCTYPE svg PUBLIC "-//W3C//DTD SVG 1.1//EN"
 "http://www.w3.org/Graphics/SVG/1.1/DTD/svg11.dtd">
<!-- Generated by graphviz version 2.44.0 ()
 -->
<!-- Title: include/zpp/thread.hpp Pages: 1 -->
<svg width="1327pt" height="196pt"
 viewBox="0.00 0.00 1326.57 196.00" xmlns="http://www.w3.org/2000/svg" xmlns:xlink="http://www.w3.org/1999/xlink">
<g id="graph0" class="graph" transform="scale(1 1) rotate(0) translate(4 192)">
<title>include/zpp/thread.hpp</title>
<!-- Node1 -->
<g id="node1" class="node">
<title>Node1</title>
<g id="a_node1"><a xlink:title=" ">
<polygon fill="#bfbfbf" stroke="black" points="682.57,-168.5 682.57,-187.5 795.57,-187.5 795.57,-168.5 682.57,-168.5"/>
<text text-anchor="middle" x="739.07" y="-175.5" font-family="Helvetica,sans-Serif" font-size="10.00">include/zpp/thread.hpp</text>
</a>
</g>
</g>
<!-- Node2 -->
<g id="node2" class="node">
<title>Node2</title>
<g id="a_node2"><a xlink:href="thread__prio_8hpp.html" target="_top" xlink:title=" ">
<polygon fill="none" stroke="black" points="373.57,-56.5 373.57,-75.5 474.57,-75.5 474.57,-56.5 373.57,-56.5"/>
<text text-anchor="middle" x="424.07" y="-63.5" font-family="Helvetica,sans-Serif" font-size="10.00">zpp/thread_prio.hpp</text>
</a>
</g>
</g>
<!-- Node1&#45;&gt;Node2 -->
<g id="edge1" class="edge">
<title>Node1&#45;&gt;Node2</title>
<path fill="none" stroke="midnightblue" d="M682.47,-172.35C615.1,-165.97 507.38,-152.86 473.07,-132 454.64,-120.8 440.77,-99.86 432.57,-84.77"/>
<polygon fill="midnightblue" stroke="midnightblue" points="435.69,-83.17 428.02,-75.86 429.45,-86.36 435.69,-83.17"/>
</g>
<!-- Node3 -->
<g id="node3" class="node">
<title>Node3</title>
<g id="a_node3"><a xlink:title=" ">
<polygon fill="none" stroke="#bfbfbf" points="416.07,-0.5 416.07,-19.5 466.07,-19.5 466.07,-0.5 416.07,-0.5"/>
<text text-anchor="middle" x="441.07" y="-7.5" font-family="Helvetica,sans-Serif" font-size="10.00">kernel.h</text>
</a>
</g>
</g>
<!-- Node1&#45;&gt;Node3 -->
<g id="edge42" class="edge">
<title>Node1&#45;&gt;Node3</title>
<path fill="none" stroke="midnightblue" d="M682.47,-176.45C546.46,-174.6 204.49,-166.53 96.07,-132 50.46,-117.47 27.52,-117.73 4.07,-76 -0.29,-68.25 -1.89,-62.6 4.07,-56 30.84,-26.33 306.75,-15.08 405.86,-11.97"/>
<polygon fill="midnightblue" stroke="midnightblue" points="406.08,-15.47 415.97,-11.67 405.87,-8.47 406.08,-15.47"/>
</g>
<!-- Node4 -->
<g id="node4" class="node">
<title>Node4</title>
<g id="a_node4"><a xlink:title=" ">
<polygon fill="none" stroke="#bfbfbf" points="643.07,-0.5 643.07,-19.5 723.07,-19.5 723.07,-0.5 643.07,-0.5"/>
<text text-anchor="middle" x="683.07" y="-7.5" font-family="Helvetica,sans-Serif" font-size="10.00">sys/__assert.h</text>
</a>
</g>
</g>
<!-- Node1&#45;&gt;Node4 -->
<g id="edge43" class="edge">
<title>Node1&#45;&gt;Node4</title>
<path fill="none" stroke="midnightblue" d="M789.74,-168.46C826.31,-161.29 876.37,-149.41 918.07,-132 933.89,-125.39 936.32,-120.75 951.07,-112 983,-93.05 1037.48,-83.97 1013.07,-56 977.38,-15.11 816.58,-9.99 733.35,-10.17"/>
<polygon fill="midnightblue" stroke="midnightblue" points="733.1,-6.67 723.11,-10.22 733.13,-13.67 733.1,-6.67"/>
</g>
<!-- Node5 -->
<g id="node5" class="node">
<title>Node5</title>
<g id="a_node5"><a xlink:href="thread__id_8hpp.html" target="_top" xlink:title=" ">
<polygon fill="none" stroke="black" points="263.07,-56.5 263.07,-75.5 355.07,-75.5 355.07,-56.5 263.07,-56.5"/>
<text text-anchor="middle" x="309.07" y="-63.5" font-family="Helvetica,sans-Serif" font-size="10.00">zpp/thread_id.hpp</text>
</a>
</g>
</g>
<!-- Node1&#45;&gt;Node5 -->
<g id="edge4" class="edge">
<title>Node1&#45;&gt;Node5</title>
<path fill="none" stroke="midnightblue" d="M682.5,-173.03C623.08,-167.76 527.42,-156.15 448.07,-132 405.66,-119.1 359.66,-95.51 332.65,-80.58"/>
<polygon fill="midnightblue" stroke="midnightblue" points="334.36,-77.52 323.93,-75.69 330.94,-83.63 334.36,-77.52"/>
</g>
<!-- Node6 -->
<g id="node6" class="node">
<title>Node6</title>
<g id="a_node6"><a xlink:href="thread__attr_8hpp.html" target="_top" xlink:title=" ">
<polygon fill="none" stroke="black" points="482.57,-112.5 482.57,-131.5 581.57,-131.5 581.57,-112.5 482.57,-112.5"/>
<text text-anchor="middle" x="532.07" y="-119.5" font-family="Helvetica,sans-Serif" font-size="10.00">zpp/thread_attr.hpp</text>
</a>
</g>
</g>
<!-- Node1&#45;&gt;Node6 -->
<g id="edge7" class="edge">
<title>Node1&#45;&gt;Node6</title>
<path fill="none" stroke="midnightblue" d="M706.27,-168.44C670.69,-159.16 613.75,-144.31 574.72,-134.13"/>
<polygon fill="midnightblue" stroke="midnightblue" points="575.27,-130.65 564.71,-131.52 573.51,-137.43 575.27,-130.65"/>
</g>
<!-- Node7 -->
<g id="node7" class="node">
<title>Node7</title>
<g id="a_node7"><a xlink:title=" ">
<polygon fill="none" stroke="#bfbfbf" points="569.07,-56.5 569.07,-75.5 615.07,-75.5 615.07,-56.5 569.07,-56.5"/>
<text text-anchor="middle" x="592.07" y="-63.5" font-family="Helvetica,sans-Serif" font-size="10.00">chrono</text>
</a>
</g>
</g>
<!-- Node1&#45;&gt;Node7 -->
<g id="edge46" class="edge">
<title>Node1&#45;&gt;Node7</title>
<path fill="none" stroke="midnightblue" d="M727.53,-168.37C702.52,-149.65 643.05,-105.15 611.89,-81.83"/>
<polygon fill="midnightblue" stroke="midnightblue" points="613.65,-78.78 603.55,-75.59 609.46,-84.39 613.65,-78.78"/>
</g>
<!-- Node8 -->
<g id="node8" class="node">
<title>Node8</title>
<g id="a_node8"><a xlink:title=" ">
<polygon fill="none" stroke="#bfbfbf" points="205.57,-56.5 205.57,-75.5 244.57,-75.5 244.57,-56.5 205.57,-56.5"/>
<text text-anchor="middle" x="225.07" y="-63.5" font-family="Helvetica,sans-Serif" font-size="10.00">utility</text>
</a>
</g>
</g>
<!-- Node1&#45;&gt;Node8 -->
<g id="edge48" class="edge">
<title>Node1&#45;&gt;Node8</title>
<path fill="none" stroke="midnightblue" d="M682.56,-173.82C613.4,-168.98 493.16,-157.48 393.07,-132 341.98,-119 285.33,-94.94 252.59,-80.02"/>
<polygon fill="midnightblue" stroke="midnightblue" points="253.78,-76.71 243.24,-75.7 250.85,-83.07 253.78,-76.71"/>
</g>
<!-- Node9 -->
<g id="node9" class="node">
<title>Node9</title>
<g id="a_node9"><a xlink:href="thread__data_8hpp.html" target="_top" xlink:title=" ">
<polygon fill="none" stroke="black" points="1087.07,-56.5 1087.07,-75.5 1191.07,-75.5 1191.07,-56.5 1087.07,-56.5"/>
<text text-anchor="middle" x="1139.07" y="-63.5" font-family="Helvetica,sans-Serif" font-size="10.00">zpp/thread_data.hpp</text>
</a>
</g>
</g>
<!-- Node1&#45;&gt;Node9 -->
<g id="edge13" class="edge">
<title>Node1&#45;&gt;Node9</title>
<path fill="none" stroke="midnightblue" d="M792.48,-168.5C835.77,-160.93 898.08,-148.51 951.07,-132 973.13,-125.13 977.38,-119.99 999.07,-112 1032.88,-99.54 1071.98,-87.14 1100.24,-78.52"/>
<polygon fill="midnightblue" stroke="midnightblue" points="1101.58,-81.77 1110.14,-75.52 1099.55,-75.07 1101.58,-81.77"/>
</g>
<!-- Node11 -->
<g id="node11" class="node">
<title>Node11</title>
<g id="a_node11"><a xlink:href="thread__stack_8hpp.html" target="_top" xlink:title=" ">
<polygon fill="none" stroke="black" points="1209.57,-56.5 1209.57,-75.5 1318.57,-75.5 1318.57,-56.5 1209.57,-56.5"/>
<text text-anchor="middle" x="1264.07" y="-63.5" font-family="Helvetica,sans-Serif" font-size="10.00">zpp/thread_stack.hpp</text>
</a>
</g>
</g>
<!-- Node1&#45;&gt;Node11 -->
<g id="edge17" class="edge">
<title>Node1&#45;&gt;Node11</title>
<path fill="none" stroke="midnightblue" d="M795.63,-170.89C846.93,-164.4 924.23,-152.22 989.07,-132 1009.57,-125.6 1012.61,-118.54 1033.07,-112 1064,-102.11 1145.58,-87.15 1202.98,-77.23"/>
<polygon fill="midnightblue" stroke="midnightblue" points="1203.78,-80.65 1213.05,-75.5 1202.6,-73.75 1203.78,-80.65"/>
</g>
<!-- Node12 -->
<g id="node12" class="node">
<title>Node12</title>
<g id="a_node12"><a xlink:href="clock_8hpp.html" target="_top" xlink:title=" ">
<polygon fill="none" stroke="black" points="701.07,-112.5 701.07,-131.5 777.07,-131.5 777.07,-112.5 701.07,-112.5"/>
<text text-anchor="middle" x="739.07" y="-119.5" font-family="Helvetica,sans-Serif" font-size="10.00">zpp/clock.hpp</text>
</a>
</g>
</g>
<!-- Node1&#45;&gt;Node12 -->
<g id="edge21" class="edge">
<title>Node1&#45;&gt;Node12</title>
<path fill="none" stroke="midnightblue" d="M739.07,-168.08C739.07,-161.01 739.07,-150.86 739.07,-141.99"/>
<polygon fill="midnightblue" stroke="midnightblue" points="742.57,-141.75 739.07,-131.75 735.57,-141.75 742.57,-141.75"/>
</g>
<!-- Node15 -->
<g id="node15" class="node">
<title>Node15</title>
<g id="a_node15"><a xlink:href="result_8hpp.html" target="_top" xlink:title=" ">
<polygon fill="none" stroke="black" points="138.57,-112.5 138.57,-131.5 215.57,-131.5 215.57,-112.5 138.57,-112.5"/>
<text text-anchor="middle" x="177.07" y="-119.5" font-family="Helvetica,sans-Serif" font-size="10.00">zpp/result.hpp</text>
</a>
</g>
</g>
<!-- Node1&#45;&gt;Node15 -->
<g id="edge27" class="edge">
<title>Node1&#45;&gt;Node15</title>
<path fill="none" stroke="midnightblue" d="M682.35,-172.91C589.52,-165.98 399.42,-150.84 239.07,-132 234.81,-131.5 230.4,-130.94 225.98,-130.35"/>
<polygon fill="midnightblue" stroke="midnightblue" points="226.1,-126.84 215.72,-128.94 225.15,-133.77 226.1,-126.84"/>
</g>
<!-- Node16 -->
<g id="node16" class="node">
<title>Node16</title>
<g id="a_node16"><a xlink:href="error__code_8hpp.html" target="_top" xlink:title=" ">
<polygon fill="none" stroke="black" points="13.07,-56.5 13.07,-75.5 111.07,-75.5 111.07,-56.5 13.07,-56.5"/>
<text text-anchor="middle" x="62.07" y="-63.5" font-family="Helvetica,sans-Serif" font-size="10.00">zpp/error_code.hpp</text>
</a>
</g>
</g>
<!-- Node1&#45;&gt;Node16 -->
<g id="edge35" class="edge">
<title>Node1&#45;&gt;Node16</title>
<path fill="none" stroke="midnightblue" d="M682.15,-177.7C550.14,-178.55 226.91,-175.92 129.07,-132 105.83,-121.57 85.87,-99.45 73.93,-83.92"/>
<polygon fill="midnightblue" stroke="midnightblue" points="76.6,-81.66 67.85,-75.68 70.97,-85.81 76.6,-81.66"/>
</g>
<!-- Node18 -->
<g id="node18" class="node">
<title>Node18</title>
<g id="a_node18"><a xlink:href="heap_8hpp.html" target="_top" xlink:title=" ">
<polygon fill="none" stroke="black" points="835.07,-112.5 835.07,-131.5 909.07,-131.5 909.07,-112.5 835.07,-112.5"/>
<text text-anchor="middle" x="872.07" y="-119.5" font-family="Helvetica,sans-Serif" font-size="10.00">zpp/heap.hpp</text>
</a>
</g>
</g>
<!-- Node1&#45;&gt;Node18 -->
<g id="edge36" class="edge">
<title>Node1&#45;&gt;Node18</title>
<path fill="none" stroke="midnightblue" d="M760.14,-168.44C782.13,-159.52 816.8,-145.44 841.73,-135.32"/>
<polygon fill="midnightblue" stroke="midnightblue" points="843.14,-138.52 851.09,-131.52 840.51,-132.04 843.14,-138.52"/>
</g>
<!-- Node21 -->
<g id="node21" class="node">
<title>Node21</title>
<g id="a_node21"><a xlink:title=" ">
<polygon fill="none" stroke="#bfbfbf" points="1041.57,-112.5 1041.57,-131.5 1096.57,-131.5 1096.57,-112.5 1041.57,-112.5"/>
<text text-anchor="middle" x="1069.07" y="-119.5" font-family="Helvetica,sans-Serif" font-size="10.00">sys/util.h</text>
</a>
</g>
</g>
<!-- Node1&#45;&gt;Node21 -->
<g id="edge44" class="edge">
<title>Node1&#45;&gt;Node21</title>
<path fill="none" stroke="midnightblue" d="M795.79,-169.1C853.98,-160.76 947.07,-146.81 1027.07,-132 1028.53,-131.73 1030.03,-131.44 1031.53,-131.15"/>
<polygon fill="midnightblue" stroke="midnightblue" points="1032.44,-134.54 1041.55,-129.13 1031.05,-127.68 1032.44,-134.54"/>
</g>
<!-- Node22 -->
<g id="node22" class="node">
<title>Node22</title>
<g id="a_node22"><a xlink:title=" ">
<polygon fill="none" stroke="#bfbfbf" points="1114.57,-112.5 1114.57,-131.5 1173.57,-131.5 1173.57,-112.5 1114.57,-112.5"/>
<text text-anchor="middle" x="1144.07" y="-119.5" font-family="Helvetica,sans-Serif" font-size="10.00">functional</text>
</a>
</g>
</g>
<!-- Node1&#45;&gt;Node22 -->
<g id="edge45" class="edge">
<title>Node1&#45;&gt;Node22</title>
<path fill="none" stroke="midnightblue" d="M795.63,-172.02C865.91,-165.4 989.65,-152.32 1104.26,-132.17"/>
<polygon fill="midnightblue" stroke="midnightblue" points="1105.03,-135.59 1114.26,-130.39 1103.8,-128.7 1105.03,-135.59"/>
</g>
<!-- Node23 -->
<g id="node23" class="node">
<title>Node23</title>
<g id="a_node23"><a xlink:title=" ">
<polygon fill="none" stroke="#bfbfbf" points="1192.07,-112.5 1192.07,-131.5 1230.07,-131.5 1230.07,-112.5 1192.07,-112.5"/>
<text text-anchor="middle" x="1211.07" y="-119.5" font-family="Helvetica,sans-Serif" font-size="10.00">tuple</text>
</a>
</g>
</g>
<!-- Node1&#45;&gt;Node23 -->
<g id="edge47" class="edge">
<title>Node1&#45;&gt;Node23</title>
<path fill="none" stroke="midnightblue" d="M795.72,-175.06C878.77,-171.39 1038.42,-161.16 1182.05,-131.79"/>
<polygon fill="midnightblue" stroke="midnightblue" points="1182.85,-135.2 1191.93,-129.74 1181.43,-128.35 1182.85,-135.2"/>
</g>
<!-- Node24 -->
<g id="node24" class="node">
<title>Node24</title>
<g id="a_node24"><a xlink:title=" ">
<polygon fill="none" stroke="#bfbfbf" points="1248.57,-112.5 1248.57,-131.5 1299.57,-131.5 1299.57,-112.5 1248.57,-112.5"/>
<text text-anchor="middle" x="1274.07" y="-119.5" font-family="Helvetica,sans-Serif" font-size="10.00">memory</text>
</a>
</g>
</g>
<!-- Node1&#45;&gt;Node24 -->
<g id="edge49" class="edge">
<title>Node1&#45;&gt;Node24</title>
<path fill="none" stroke="midnightblue" d="M795.69,-174.89C886.97,-170.84 1072.32,-159.91 1238.64,-131.77"/>
<polygon fill="midnightblue" stroke="midnightblue" points="1239.29,-135.21 1248.56,-130.07 1238.11,-128.31 1239.29,-135.21"/>
</g>
<!-- Node2&#45;&gt;Node3 -->
<g id="edge2" class="edge">
<title>Node2&#45;&gt;Node3</title>
<path fill="none" stroke="midnightblue" d="M426.87,-56.08C429.15,-48.85 432.44,-38.41 435.27,-29.4"/>
<polygon fill="midnightblue" stroke="midnightblue" points="438.65,-30.34 438.31,-19.75 431.97,-28.24 438.65,-30.34"/>
</g>
<!-- Node2&#45;&gt;Node4 -->
<g id="edge3" class="edge">
<title>Node2&#45;&gt;Node4</title>
<path fill="none" stroke="midnightblue" d="M465.11,-56.44C510.52,-46.98 583.72,-31.71 632.6,-21.52"/>
<polygon fill="midnightblue" stroke="midnightblue" points="633.57,-24.89 642.65,-19.43 632.14,-18.04 633.57,-24.89"/>
</g>
<!-- Node5&#45;&gt;Node3 -->
<g id="edge5" class="edge">
<title>Node5&#45;&gt;Node3</title>
<path fill="none" stroke="midnightblue" d="M329.98,-56.44C351.8,-47.52 386.22,-33.44 410.96,-23.32"/>
<polygon fill="midnightblue" stroke="midnightblue" points="412.32,-26.54 420.25,-19.52 409.67,-20.06 412.32,-26.54"/>
</g>
<!-- Node5&#45;&gt;Node4 -->
<g id="edge6" class="edge">
<title>Node5&#45;&gt;Node4</title>
<path fill="none" stroke="midnightblue" d="M355.27,-57.36C358.24,-56.9 361.2,-56.44 364.07,-56 459,-41.54 570.08,-26.23 632.95,-17.72"/>
<polygon fill="midnightblue" stroke="midnightblue" points="633.55,-21.17 642.99,-16.36 632.61,-14.24 633.55,-21.17"/>
</g>
<!-- Node6&#45;&gt;Node2 -->
<g id="edge8" class="edge">
<title>Node6&#45;&gt;Node2</title>
<path fill="none" stroke="midnightblue" d="M514.71,-112.32C497.39,-103.66 470.55,-90.24 450.56,-80.25"/>
<polygon fill="midnightblue" stroke="midnightblue" points="451.88,-77 441.38,-75.65 448.75,-83.26 451.88,-77"/>
</g>
<!-- Node6&#45;&gt;Node3 -->
<g id="edge9" class="edge">
<title>Node6&#45;&gt;Node3</title>
<path fill="none" stroke="midnightblue" d="M526,-112.37C517,-99.7 499.42,-75.48 483.07,-56 474.73,-46.08 464.87,-35.46 456.8,-27.03"/>
<polygon fill="midnightblue" stroke="midnightblue" points="459.19,-24.46 449.72,-19.71 454.16,-29.33 459.19,-24.46"/>
</g>
<!-- Node6&#45;&gt;Node4 -->
<g id="edge10" class="edge">
<title>Node6&#45;&gt;Node4</title>
<path fill="none" stroke="midnightblue" d="M533.57,-112.15C536.36,-98.32 543.64,-71.53 560.07,-56 580.03,-37.12 608.56,-26.04 633.11,-19.6"/>
<polygon fill="midnightblue" stroke="midnightblue" points="634.11,-22.96 643,-17.19 632.46,-16.16 634.11,-22.96"/>
</g>
<!-- Node6&#45;&gt;Node7 -->
<g id="edge11" class="edge">
<title>Node6&#45;&gt;Node7</title>
<path fill="none" stroke="midnightblue" d="M541.71,-112.32C550.58,-104.34 563.94,-92.31 574.67,-82.65"/>
<polygon fill="midnightblue" stroke="midnightblue" points="577.16,-85.13 582.25,-75.83 572.48,-79.92 577.16,-85.13"/>
</g>
<!-- Node6&#45;&gt;Node8 -->
<g id="edge12" class="edge">
<title>Node6&#45;&gt;Node8</title>
<path fill="none" stroke="midnightblue" d="M482.44,-115.11C428.59,-108.23 339.96,-95.54 254.49,-75.79"/>
<polygon fill="midnightblue" stroke="midnightblue" points="255.15,-72.35 244.62,-73.48 253.55,-79.17 255.15,-72.35"/>
</g>
<!-- Node9&#45;&gt;Node3 -->
<g id="edge14" class="edge">
<title>Node9&#45;&gt;Node3</title>
<path fill="none" stroke="midnightblue" d="M1086.89,-60.96C951.37,-50.48 590.83,-22.59 476.42,-13.74"/>
<polygon fill="midnightblue" stroke="midnightblue" points="476.38,-10.22 466.14,-12.94 475.84,-17.2 476.38,-10.22"/>
</g>
<!-- Node9&#45;&gt;Node4 -->
<g id="edge16" class="edge">
<title>Node9&#45;&gt;Node4</title>
<path fill="none" stroke="midnightblue" d="M1086.84,-57.78C1082.18,-57.16 1077.54,-56.56 1073.07,-56 951.16,-40.66 807.55,-24.61 733.26,-16.46"/>
<polygon fill="midnightblue" stroke="midnightblue" points="733.56,-12.97 723.24,-15.36 732.8,-19.93 733.56,-12.97"/>
</g>
<!-- Node10 -->
<g id="node10" class="node">
<title>Node10</title>
<g id="a_node10"><a xlink:title=" ">
<polygon fill="none" stroke="#bfbfbf" points="1149.07,-0.5 1149.07,-19.5 1253.07,-19.5 1253.07,-0.5 1149.07,-0.5"/>
<text text-anchor="middle" x="1201.07" y="-7.5" font-family="Helvetica,sans-Serif" font-size="10.00">sys/arch_interface.h</text>
</a>
</g>
</g>
<!-- Node9&#45;&gt;Node10 -->
<g id="edge15" class="edge">
<title>Node9&#45;&gt;Node10</title>
<path fill="none" stroke="midnightblue" d="M1149.03,-56.32C1158.19,-48.34 1172,-36.31 1183.09,-26.65"/>
<polygon fill="midnightblue" stroke="midnightblue" points="1185.68,-29.04 1190.92,-19.83 1181.08,-23.76 1185.68,-29.04"/>
</g>
<!-- Node11&#45;&gt;Node3 -->
<g id="edge18" class="edge">
<title>Node11&#45;&gt;Node3</title>
<path fill="none" stroke="midnightblue" d="M1209.29,-57C1206.17,-56.64 1203.08,-56.3 1200.07,-56 1056.82,-41.7 606.68,-19.1 476.6,-12.73"/>
<polygon fill="midnightblue" stroke="midnightblue" points="476.56,-9.22 466.4,-12.23 476.22,-16.21 476.56,-9.22"/>
</g>
<!-- Node11&#45;&gt;Node4 -->
<g id="edge20" class="edge">
<title>Node11&#45;&gt;Node4</title>
<path fill="none" stroke="midnightblue" d="M1209.28,-57.1C1206.16,-56.71 1203.08,-56.34 1200.07,-56 1029.4,-36.59 826.19,-21.13 733.57,-14.5"/>
<polygon fill="midnightblue" stroke="midnightblue" points="733.58,-11 723.36,-13.78 733.09,-17.98 733.58,-11"/>
</g>
<!-- Node11&#45;&gt;Node10 -->
<g id="edge19" class="edge">
<title>Node11&#45;&gt;Node10</title>
<path fill="none" stroke="midnightblue" d="M1253.94,-56.32C1244.54,-48.26 1230.32,-36.08 1219,-26.37"/>
<polygon fill="midnightblue" stroke="midnightblue" points="1221.24,-23.68 1211.37,-19.83 1216.69,-29 1221.24,-23.68"/>
</g>
<!-- Node12&#45;&gt;Node3 -->
<g id="edge22" class="edge">
<title>Node12&#45;&gt;Node3</title>
<path fill="none" stroke="midnightblue" d="M748.64,-112.1C761.95,-98.65 782.84,-72.95 768.07,-56 749.08,-34.22 557.03,-18.83 476.4,-13.28"/>
<polygon fill="midnightblue" stroke="midnightblue" points="476.46,-9.77 466.24,-12.59 475.99,-16.76 476.46,-9.77"/>
</g>
<!-- Node12&#45;&gt;Node4 -->
<g id="edge24" class="edge">
<title>Node12&#45;&gt;Node4</title>
<path fill="none" stroke="midnightblue" d="M758.41,-112.35C781.89,-100.6 816.55,-78.47 801.07,-56 785.76,-33.78 757.91,-22.53 733.1,-16.83"/>
<polygon fill="midnightblue" stroke="midnightblue" points="733.57,-13.35 723.07,-14.77 732.16,-20.21 733.57,-13.35"/>
</g>
<!-- Node12&#45;&gt;Node7 -->
<g id="edge25" class="edge">
<title>Node12&#45;&gt;Node7</title>
<path fill="none" stroke="midnightblue" d="M715.77,-112.44C691.26,-103.44 652.47,-89.19 624.87,-79.05"/>
<polygon fill="midnightblue" stroke="midnightblue" points="625.84,-75.68 615.25,-75.52 623.43,-82.25 625.84,-75.68"/>
</g>
<!-- Node13 -->
<g id="node13" class="node">
<title>Node13</title>
<g id="a_node13"><a xlink:title=" ">
<polygon fill="none" stroke="#bfbfbf" points="633.07,-56.5 633.07,-75.5 701.07,-75.5 701.07,-56.5 633.07,-56.5"/>
<text text-anchor="middle" x="667.07" y="-63.5" font-family="Helvetica,sans-Serif" font-size="10.00">sys_clock.h</text>
</a>
</g>
</g>
<!-- Node12&#45;&gt;Node13 -->
<g id="edge23" class="edge">
<title>Node12&#45;&gt;Node13</title>
<path fill="none" stroke="midnightblue" d="M727.5,-112.32C716.65,-104.18 700.19,-91.84 687.18,-82.09"/>
<polygon fill="midnightblue" stroke="midnightblue" points="688.94,-79.03 678.84,-75.83 684.74,-84.63 688.94,-79.03"/>
</g>
<!-- Node14 -->
<g id="node14" class="node">
<title>Node14</title>
<g id="a_node14"><a xlink:title=" ">
<polygon fill="none" stroke="#bfbfbf" points="719.07,-56.5 719.07,-75.5 759.07,-75.5 759.07,-56.5 719.07,-56.5"/>
<text text-anchor="middle" x="739.07" y="-63.5" font-family="Helvetica,sans-Serif" font-size="10.00">limits</text>
</a>
</g>
</g>
<!-- Node12&#45;&gt;Node14 -->
<g id="edge26" class="edge">
<title>Node12&#45;&gt;Node14</title>
<path fill="none" stroke="midnightblue" d="M739.07,-112.08C739.07,-105.01 739.07,-94.86 739.07,-85.99"/>
<polygon fill="midnightblue" stroke="midnightblue" points="742.57,-85.75 739.07,-75.75 735.57,-85.75 742.57,-85.75"/>
</g>
<!-- Node15&#45;&gt;Node3 -->
<g id="edge28" class="edge">
<title>Node15&#45;&gt;Node3</title>
<path fill="none" stroke="midnightblue" d="M171.1,-112.31C162.55,-98.68 149.3,-72.17 163.07,-56 193.82,-19.86 337.78,-12.66 405.58,-11.28"/>
<polygon fill="midnightblue" stroke="midnightblue" points="405.84,-14.78 415.77,-11.11 405.72,-7.78 405.84,-14.78"/>
</g>
<!-- Node15&#45;&gt;Node4 -->
<g id="edge29" class="edge">
<title>Node15&#45;&gt;Node4</title>
<path fill="none" stroke="midnightblue" d="M176.77,-112.2C176.81,-97.92 179.19,-69.91 196.07,-56 212.76,-42.24 511.55,-21.87 632.68,-14.13"/>
<polygon fill="midnightblue" stroke="midnightblue" points="633.05,-17.62 642.81,-13.49 632.6,-10.63 633.05,-17.62"/>
</g>
<!-- Node15&#45;&gt;Node8 -->
<g id="edge34" class="edge">
<title>Node15&#45;&gt;Node8</title>
<path fill="none" stroke="midnightblue" d="M184.99,-112.08C191.91,-104.3 202.13,-92.8 210.52,-83.37"/>
<polygon fill="midnightblue" stroke="midnightblue" points="213.26,-85.55 217.29,-75.75 208.03,-80.9 213.26,-85.55"/>
</g>
<!-- Node15&#45;&gt;Node16 -->
<g id="edge30" class="edge">
<title>Node15&#45;&gt;Node16</title>
<path fill="none" stroke="midnightblue" d="M158.84,-112.44C140.17,-103.68 110.91,-89.94 89.45,-79.86"/>
<polygon fill="midnightblue" stroke="midnightblue" points="90.74,-76.6 80.2,-75.52 87.77,-82.93 90.74,-76.6"/>
</g>
<!-- Node16&#45;&gt;Node3 -->
<g id="edge31" class="edge">
<title>Node16&#45;&gt;Node3</title>
<path fill="none" stroke="midnightblue" d="M111.25,-57.97C115.92,-57.31 120.58,-56.64 125.07,-56 226.81,-41.49 346.98,-24.39 405.48,-16.06"/>
<polygon fill="midnightblue" stroke="midnightblue" points="406.26,-19.49 415.67,-14.61 405.28,-12.56 406.26,-19.49"/>
</g>
<!-- Node16&#45;&gt;Node4 -->
<g id="edge32" class="edge">
<title>Node16&#45;&gt;Node4</title>
<path fill="none" stroke="midnightblue" d="M111.12,-60.6C127.63,-59.13 146.14,-57.49 163.07,-56 335.38,-40.87 539.85,-23.28 632.71,-15.31"/>
<polygon fill="midnightblue" stroke="midnightblue" points="633.27,-18.78 642.94,-14.44 632.68,-11.8 633.27,-18.78"/>
</g>
<!-- Node17 -->
<g id="node17" class="node">
<title>Node17</title>
<g id="a_node17"><a xlink:title=" ">
<polygon fill="none" stroke="#bfbfbf" points="39.07,-0.5 39.07,-19.5 85.07,-19.5 85.07,-0.5 39.07,-0.5"/>
<text text-anchor="middle" x="62.07" y="-7.5" font-family="Helvetica,sans-Serif" font-size="10.00">errno.h</text>
</a>
</g>
</g>
<!-- Node16&#45;&gt;Node17 -->
<g id="edge33" class="edge">
<title>Node16&#45;&gt;Node17</title>
<path fill="none" stroke="midnightblue" d="M62.07,-56.08C62.07,-49.01 62.07,-38.86 62.07,-29.99"/>
<polygon fill="midnightblue" stroke="midnightblue" points="65.57,-29.75 62.07,-19.75 58.57,-29.75 65.57,-29.75"/>
</g>
<!-- Node18&#45;&gt;Node3 -->
<g id="edge37" class="edge">
<title>Node18&#45;&gt;Node3</title>
<path fill="none" stroke="midnightblue" d="M903.24,-112.41C938.03,-101.36 986.68,-80.64 964.07,-56 947.52,-37.97 590.55,-18.52 476.07,-12.72"/>
<polygon fill="midnightblue" stroke="midnightblue" points="476.24,-9.23 466.07,-12.22 475.88,-16.22 476.24,-9.23"/>
</g>
<!-- Node18&#45;&gt;Node4 -->
<g id="edge38" class="edge">
<title>Node18&#45;&gt;Node4</title>
<path fill="none" stroke="midnightblue" d="M909.33,-112.58C942.28,-104.3 986.69,-90.77 997.07,-76 1002.18,-68.73 1002.89,-62.72 997.07,-56 963.58,-17.37 813.5,-11.1 733.57,-10.58"/>
<polygon fill="midnightblue" stroke="midnightblue" points="733.25,-7.08 723.24,-10.54 733.23,-14.08 733.25,-7.08"/>
</g>
<!-- Node18&#45;&gt;Node7 -->
<g id="edge39" class="edge">
<title>Node18&#45;&gt;Node7</title>
<path fill="none" stroke="midnightblue" d="M834.87,-115.38C788.07,-108.06 705.06,-94.26 624.84,-76"/>
<polygon fill="midnightblue" stroke="midnightblue" points="625.6,-72.58 615.07,-73.75 624.03,-79.41 625.6,-72.58"/>
</g>
<!-- Node19 -->
<g id="node19" class="node">
<title>Node19</title>
<g id="a_node19"><a xlink:title=" ">
<polygon fill="none" stroke="#bfbfbf" points="853.07,-56.5 853.07,-75.5 891.07,-75.5 891.07,-56.5 853.07,-56.5"/>
<text text-anchor="middle" x="872.07" y="-63.5" font-family="Helvetica,sans-Serif" font-size="10.00">array</text>
</a>
</g>
</g>
<!-- Node18&#45;&gt;Node19 -->
<g id="edge40" class="edge">
<title>Node18&#45;&gt;Node19</title>
<path fill="none" stroke="midnightblue" d="M872.07,-112.08C872.07,-105.01 872.07,-94.86 872.07,-85.99"/>
<polygon fill="midnightblue" stroke="midnightblue" points="875.57,-85.75 872.07,-75.75 868.57,-85.75 875.57,-85.75"/>
</g>
<!-- Node20 -->
<g id="node20" class="node">
<title>Node20</title>
<g id="a_node20"><a xlink:title=" ">
<polygon fill="none" stroke="#bfbfbf" points="909.07,-56.5 909.07,-75.5 955.07,-75.5 955.07,-56.5 909.07,-56.5"/>
<text text-anchor="middle" x="932.07" y="-63.5" font-family="Helvetica,sans-Serif" font-size="10.00">cstdint</text>
</a>
</g>
</g>
<!-- Node18&#45;&gt;Node20 -->
<g id="edge41" class="edge">
<title>Node18&#45;&gt;Node20</title>
<path fill="none" stroke="midnightblue" d="M881.71,-112.32C890.58,-104.34 903.94,-92.31 914.67,-82.65"/>
<polygon fill="midnightblue" stroke="midnightblue" points="917.16,-85.13 922.25,-75.83 912.48,-79.92 917.16,-85.13"/>
</g>
</g>
</svg>
