<?xml version="1.0" encoding="UTF-8" standalone="no"?>
<!DOCTYPE svg PUBLIC "-//W3C//DTD SVG 1.1//EN"
 "http://www.w3.org/Graphics/SVG/1.1/DTD/svg11.dtd">
<!-- Generated by graphviz version 2.44.0 ()
 -->
<!-- Title: include/zpp/timer.hpp Pages: 1 -->
<svg width="425pt" height="140pt"
 viewBox="0.00 0.00 425.00 140.00" xmlns="http://www.w3.org/2000/svg" xmlns:xlink="http://www.w3.org/1999/xlink">
<g id="graph0" class="graph" transform="scale(1 1) rotate(0) translate(4 136)">
<title>include/zpp/timer.hpp</title>
<!-- Node1 -->
<g id="node1" class="node">
<title>Node1</title>
<g id="a_node1"><a xlink:title=" ">
<polygon fill="#bfbfbf" stroke="black" points="162,-112.5 162,-131.5 270,-131.5 270,-112.5 162,-112.5"/>
<text text-anchor="middle" x="216" y="-119.5" font-family="Helvetica,sans-Serif" font-size="10.00">include/zpp/timer.hpp</text>
</a>
</g>
</g>
<!-- Node2 -->
<g id="node2" class="node">
<title>Node2</title>
<g id="a_node2"><a xlink:title=" ">
<polygon fill="none" stroke="#bfbfbf" points="0,-0.5 0,-19.5 50,-19.5 50,-0.5 0,-0.5"/>
<text text-anchor="middle" x="25" y="-7.5" font-family="Helvetica,sans-Serif" font-size="10.00">kernel.h</text>
</a>
</g>
</g>
<!-- Node1&#45;&gt;Node2 -->
<g id="edge1" class="edge">
<title>Node1&#45;&gt;Node2</title>
<path fill="none" stroke="midnightblue" d="M194.67,-112.35C174.66,-103.95 144.14,-90.38 119,-76 92.06,-60.59 62.95,-39.75 44.38,-25.86"/>
<polygon fill="midnightblue" stroke="midnightblue" points="46.26,-22.89 36.17,-19.66 42.04,-28.48 46.26,-22.89"/>
</g>
<!-- Node3 -->
<g id="node3" class="node">
<title>Node3</title>
<g id="a_node3"><a xlink:title=" ">
<polygon fill="none" stroke="#bfbfbf" points="68,-0.5 68,-19.5 148,-19.5 148,-0.5 68,-0.5"/>
<text text-anchor="middle" x="108" y="-7.5" font-family="Helvetica,sans-Serif" font-size="10.00">sys/__assert.h</text>
</a>
</g>
</g>
<!-- Node1&#45;&gt;Node3 -->
<g id="edge2" class="edge">
<title>Node1&#45;&gt;Node3</title>
<path fill="none" stroke="midnightblue" d="M192.27,-112.49C174.74,-105.17 151.35,-93.06 136,-76 124.07,-62.74 116.67,-43.61 112.49,-29.54"/>
<polygon fill="midnightblue" stroke="midnightblue" points="115.78,-28.3 109.81,-19.54 109.02,-30.11 115.78,-28.3"/>
</g>
<!-- Node4 -->
<g id="node4" class="node">
<title>Node4</title>
<g id="a_node4"><a xlink:title=" ">
<polygon fill="none" stroke="#bfbfbf" points="310,-0.5 310,-19.5 356,-19.5 356,-0.5 310,-0.5"/>
<text text-anchor="middle" x="333" y="-7.5" font-family="Helvetica,sans-Serif" font-size="10.00">chrono</text>
</a>
</g>
</g>
<!-- Node1&#45;&gt;Node4 -->
<g id="edge3" class="edge">
<title>Node1&#45;&gt;Node4</title>
<path fill="none" stroke="midnightblue" d="M221.86,-112.37C231,-99.29 249.61,-74.06 269,-56 281.48,-44.38 297.11,-33.34 309.8,-25.1"/>
<polygon fill="midnightblue" stroke="midnightblue" points="311.86,-27.93 318.43,-19.62 308.11,-22.02 311.86,-27.93"/>
</g>
<!-- Node5 -->
<g id="node5" class="node">
<title>Node5</title>
<g id="a_node5"><a xlink:title=" ">
<polygon fill="none" stroke="#bfbfbf" points="277.5,-56.5 277.5,-75.5 336.5,-75.5 336.5,-56.5 277.5,-56.5"/>
<text text-anchor="middle" x="307" y="-63.5" font-family="Helvetica,sans-Serif" font-size="10.00">functional</text>
</a>
</g>
</g>
<!-- Node1&#45;&gt;Node5 -->
<g id="edge4" class="edge">
<title>Node1&#45;&gt;Node5</title>
<path fill="none" stroke="midnightblue" d="M230.62,-112.32C244.95,-103.82 267.01,-90.73 283.75,-80.8"/>
<polygon fill="midnightblue" stroke="midnightblue" points="285.6,-83.77 292.42,-75.65 282.03,-77.75 285.6,-83.77"/>
</g>
<!-- Node6 -->
<g id="node6" class="node">
<title>Node6</title>
<g id="a_node6"><a xlink:title=" ">
<polygon fill="none" stroke="#bfbfbf" points="355,-56.5 355,-75.5 417,-75.5 417,-56.5 355,-56.5"/>
<text text-anchor="middle" x="386" y="-63.5" font-family="Helvetica,sans-Serif" font-size="10.00">type_traits</text>
</a>
</g>
</g>
<!-- Node1&#45;&gt;Node6 -->
<g id="edge5" class="edge">
<title>Node1&#45;&gt;Node6</title>
<path fill="none" stroke="midnightblue" d="M242.94,-112.44C271.66,-103.32 317.33,-88.81 349.32,-78.65"/>
<polygon fill="midnightblue" stroke="midnightblue" points="350.72,-81.88 359.19,-75.52 348.6,-75.21 350.72,-81.88"/>
</g>
<!-- Node7 -->
<g id="node7" class="node">
<title>Node7</title>
<g id="a_node7"><a xlink:href="clock_8hpp.html" target="_top" xlink:title=" ">
<polygon fill="none" stroke="black" points="145,-56.5 145,-75.5 221,-75.5 221,-56.5 145,-56.5"/>
<text text-anchor="middle" x="183" y="-63.5" font-family="Helvetica,sans-Serif" font-size="10.00">zpp/clock.hpp</text>
</a>
</g>
</g>
<!-- Node1&#45;&gt;Node7 -->
<g id="edge6" class="edge">
<title>Node1&#45;&gt;Node7</title>
<path fill="none" stroke="midnightblue" d="M210.55,-112.08C205.99,-104.61 199.33,-93.72 193.71,-84.52"/>
<polygon fill="midnightblue" stroke="midnightblue" points="196.55,-82.46 188.35,-75.75 190.58,-86.11 196.55,-82.46"/>
</g>
<!-- Node7&#45;&gt;Node2 -->
<g id="edge7" class="edge">
<title>Node7&#45;&gt;Node2</title>
<path fill="none" stroke="midnightblue" d="M157.96,-56.44C131.38,-47.36 89.19,-32.94 59.48,-22.78"/>
<polygon fill="midnightblue" stroke="midnightblue" points="60.51,-19.44 49.92,-19.52 58.25,-26.06 60.51,-19.44"/>
</g>
<!-- Node7&#45;&gt;Node3 -->
<g id="edge9" class="edge">
<title>Node7&#45;&gt;Node3</title>
<path fill="none" stroke="midnightblue" d="M170.95,-56.32C159.54,-48.11 142.17,-35.6 128.57,-25.81"/>
<polygon fill="midnightblue" stroke="midnightblue" points="130.43,-22.84 120.27,-19.83 126.34,-28.52 130.43,-22.84"/>
</g>
<!-- Node7&#45;&gt;Node4 -->
<g id="edge10" class="edge">
<title>Node7&#45;&gt;Node4</title>
<path fill="none" stroke="midnightblue" d="M206.77,-56.44C232.04,-47.35 272.18,-32.9 300.4,-22.74"/>
<polygon fill="midnightblue" stroke="midnightblue" points="301.61,-26.02 309.84,-19.34 299.24,-19.43 301.61,-26.02"/>
</g>
<!-- Node8 -->
<g id="node8" class="node">
<title>Node8</title>
<g id="a_node8"><a xlink:title=" ">
<polygon fill="none" stroke="#bfbfbf" points="224,-0.5 224,-19.5 292,-19.5 292,-0.5 224,-0.5"/>
<text text-anchor="middle" x="258" y="-7.5" font-family="Helvetica,sans-Serif" font-size="10.00">sys_clock.h</text>
</a>
</g>
</g>
<!-- Node7&#45;&gt;Node8 -->
<g id="edge8" class="edge">
<title>Node7&#45;&gt;Node8</title>
<path fill="none" stroke="midnightblue" d="M195.05,-56.32C206.46,-48.11 223.83,-35.6 237.43,-25.81"/>
<polygon fill="midnightblue" stroke="midnightblue" points="239.66,-28.52 245.73,-19.83 235.57,-22.84 239.66,-28.52"/>
</g>
<!-- Node9 -->
<g id="node9" class="node">
<title>Node9</title>
<g id="a_node9"><a xlink:title=" ">
<polygon fill="none" stroke="#bfbfbf" points="166,-0.5 166,-19.5 206,-19.5 206,-0.5 166,-0.5"/>
<text text-anchor="middle" x="186" y="-7.5" font-family="Helvetica,sans-Serif" font-size="10.00">limits</text>
</a>
</g>
</g>
<!-- Node7&#45;&gt;Node9 -->
<g id="edge11" class="edge">
<title>Node7&#45;&gt;Node9</title>
<path fill="none" stroke="midnightblue" d="M183.5,-56.08C183.89,-49.01 184.45,-38.86 184.95,-29.99"/>
<polygon fill="midnightblue" stroke="midnightblue" points="188.45,-29.93 185.51,-19.75 181.46,-29.54 188.45,-29.93"/>
</g>
</g>
</svg>
