<?xml version="1.0" encoding="UTF-8" standalone="no"?>
<!DOCTYPE svg PUBLIC "-//W3C//DTD SVG 1.1//EN"
 "http://www.w3.org/Graphics/SVG/1.1/DTD/svg11.dtd">
<!-- Generated by graphviz version 2.44.0 ()
 -->
<!-- Title: include/zpp/unique_lock.hpp Pages: 1 -->
<svg width="357pt" height="207pt"
 viewBox="0.00 0.00 357.00 207.00" xmlns="http://www.w3.org/2000/svg" xmlns:xlink="http://www.w3.org/1999/xlink">
<g id="graph0" class="graph" transform="scale(1 1) rotate(0) translate(4 203)">
<title>include/zpp/unique_lock.hpp</title>
<!-- Node1 -->
<g id="node1" class="node">
<title>Node1</title>
<g id="a_node1"><a xlink:title=" ">
<polygon fill="#bfbfbf" stroke="black" points="127.5,-168.5 127.5,-198.5 224.5,-198.5 224.5,-168.5 127.5,-168.5"/>
<text text-anchor="start" x="135.5" y="-186.5" font-family="Helvetica,sans-Serif" font-size="10.00">include/zpp/unique</text>
<text text-anchor="middle" x="176" y="-175.5" font-family="Helvetica,sans-Serif" font-size="10.00">_lock.hpp</text>
</a>
</g>
</g>
<!-- Node2 -->
<g id="node2" class="node">
<title>Node2</title>
<g id="a_node2"><a xlink:title=" ">
<polygon fill="none" stroke="#bfbfbf" points="0,-0.5 0,-19.5 50,-19.5 50,-0.5 0,-0.5"/>
<text text-anchor="middle" x="25" y="-7.5" font-family="Helvetica,sans-Serif" font-size="10.00">kernel.h</text>
</a>
</g>
</g>
<!-- Node1&#45;&gt;Node2 -->
<g id="edge1" class="edge">
<title>Node1&#45;&gt;Node2</title>
<path fill="none" stroke="midnightblue" d="M141.69,-168.37C106.58,-151.88 53.75,-121.02 29,-76 21.26,-61.91 20.88,-43.42 22.08,-29.77"/>
<polygon fill="midnightblue" stroke="midnightblue" points="25.58,-29.99 23.32,-19.63 18.63,-29.13 25.58,-29.99"/>
</g>
<!-- Node3 -->
<g id="node3" class="node">
<title>Node3</title>
<g id="a_node3"><a xlink:title=" ">
<polygon fill="none" stroke="#bfbfbf" points="141,-0.5 141,-19.5 221,-19.5 221,-0.5 141,-0.5"/>
<text text-anchor="middle" x="181" y="-7.5" font-family="Helvetica,sans-Serif" font-size="10.00">sys/__assert.h</text>
</a>
</g>
</g>
<!-- Node1&#45;&gt;Node3 -->
<g id="edge2" class="edge">
<title>Node1&#45;&gt;Node3</title>
<path fill="none" stroke="midnightblue" d="M192.54,-168.37C212.81,-149.71 245.73,-114.67 256,-76 258.28,-67.41 260.38,-63.74 256,-56 247.65,-41.26 232.34,-30.82 217.71,-23.73"/>
<polygon fill="midnightblue" stroke="midnightblue" points="218.84,-20.4 208.28,-19.55 216,-26.8 218.84,-20.4"/>
</g>
<!-- Node4 -->
<g id="node4" class="node">
<title>Node4</title>
<g id="a_node4"><a xlink:title=" ">
<polygon fill="none" stroke="#bfbfbf" points="303,-112.5 303,-131.5 349,-131.5 349,-112.5 303,-112.5"/>
<text text-anchor="middle" x="326" y="-119.5" font-family="Helvetica,sans-Serif" font-size="10.00">chrono</text>
</a>
</g>
</g>
<!-- Node1&#45;&gt;Node4 -->
<g id="edge3" class="edge">
<title>Node1&#45;&gt;Node4</title>
<path fill="none" stroke="midnightblue" d="M211.55,-168.4C236.83,-158.37 270.47,-145.03 294.73,-135.4"/>
<polygon fill="midnightblue" stroke="midnightblue" points="296.17,-138.6 304.17,-131.66 293.59,-132.09 296.17,-138.6"/>
</g>
<!-- Node5 -->
<g id="node5" class="node">
<title>Node5</title>
<g id="a_node5"><a xlink:href="result_8hpp.html" target="_top" xlink:title=" ">
<polygon fill="none" stroke="black" points="137.5,-112.5 137.5,-131.5 214.5,-131.5 214.5,-112.5 137.5,-112.5"/>
<text text-anchor="middle" x="176" y="-119.5" font-family="Helvetica,sans-Serif" font-size="10.00">zpp/result.hpp</text>
</a>
</g>
</g>
<!-- Node1&#45;&gt;Node5 -->
<g id="edge4" class="edge">
<title>Node1&#45;&gt;Node5</title>
<path fill="none" stroke="midnightblue" d="M176,-168.4C176,-160.47 176,-150.46 176,-141.86"/>
<polygon fill="midnightblue" stroke="midnightblue" points="179.5,-141.66 176,-131.66 172.5,-141.66 179.5,-141.66"/>
</g>
<!-- Node6 -->
<g id="node6" class="node">
<title>Node6</title>
<g id="a_node6"><a xlink:href="error__code_8hpp.html" target="_top" xlink:title=" ">
<polygon fill="none" stroke="black" points="53,-56.5 53,-75.5 151,-75.5 151,-56.5 53,-56.5"/>
<text text-anchor="middle" x="102" y="-63.5" font-family="Helvetica,sans-Serif" font-size="10.00">zpp/error_code.hpp</text>
</a>
</g>
</g>
<!-- Node1&#45;&gt;Node6 -->
<g id="edge12" class="edge">
<title>Node1&#45;&gt;Node6</title>
<path fill="none" stroke="midnightblue" d="M159.65,-168.32C149.49,-158.84 136.75,-145.64 128,-132 118.68,-117.47 111.7,-99.05 107.33,-85.54"/>
<polygon fill="midnightblue" stroke="midnightblue" points="110.66,-84.46 104.39,-75.92 103.96,-86.5 110.66,-84.46"/>
</g>
<!-- Node5&#45;&gt;Node2 -->
<g id="edge5" class="edge">
<title>Node5&#45;&gt;Node2</title>
<path fill="none" stroke="midnightblue" d="M137.37,-117.36C107.93,-112.59 68.44,-101.54 44,-76 32.2,-63.67 27.67,-44.42 25.96,-30.06"/>
<polygon fill="midnightblue" stroke="midnightblue" points="29.43,-29.5 25.11,-19.82 22.45,-30.08 29.43,-29.5"/>
</g>
<!-- Node5&#45;&gt;Node3 -->
<g id="edge6" class="edge">
<title>Node5&#45;&gt;Node3</title>
<path fill="none" stroke="midnightblue" d="M176.39,-112.37C177.2,-94.62 179.06,-53.67 180.15,-29.6"/>
<polygon fill="midnightblue" stroke="midnightblue" points="183.65,-29.74 180.61,-19.59 176.66,-29.42 183.65,-29.74"/>
</g>
<!-- Node5&#45;&gt;Node6 -->
<g id="edge7" class="edge">
<title>Node5&#45;&gt;Node6</title>
<path fill="none" stroke="midnightblue" d="M164.11,-112.32C152.85,-104.11 135.71,-91.6 122.29,-81.81"/>
<polygon fill="midnightblue" stroke="midnightblue" points="124.25,-78.9 114.11,-75.83 120.12,-84.56 124.25,-78.9"/>
</g>
<!-- Node8 -->
<g id="node8" class="node">
<title>Node8</title>
<g id="a_node8"><a xlink:title=" ">
<polygon fill="none" stroke="#bfbfbf" points="207.5,-56.5 207.5,-75.5 246.5,-75.5 246.5,-56.5 207.5,-56.5"/>
<text text-anchor="middle" x="227" y="-63.5" font-family="Helvetica,sans-Serif" font-size="10.00">utility</text>
</a>
</g>
</g>
<!-- Node5&#45;&gt;Node8 -->
<g id="edge11" class="edge">
<title>Node5&#45;&gt;Node8</title>
<path fill="none" stroke="midnightblue" d="M184.42,-112.08C191.85,-104.22 202.85,-92.57 211.81,-83.08"/>
<polygon fill="midnightblue" stroke="midnightblue" points="214.41,-85.42 218.74,-75.75 209.32,-80.62 214.41,-85.42"/>
</g>
<!-- Node6&#45;&gt;Node2 -->
<g id="edge8" class="edge">
<title>Node6&#45;&gt;Node2</title>
<path fill="none" stroke="midnightblue" d="M89.63,-56.32C77.84,-48.06 59.87,-35.45 45.86,-25.63"/>
<polygon fill="midnightblue" stroke="midnightblue" points="47.54,-22.53 37.34,-19.65 43.52,-28.26 47.54,-22.53"/>
</g>
<!-- Node6&#45;&gt;Node3 -->
<g id="edge9" class="edge">
<title>Node6&#45;&gt;Node3</title>
<path fill="none" stroke="midnightblue" d="M114.69,-56.32C126.9,-47.98 145.58,-35.21 160,-25.35"/>
<polygon fill="midnightblue" stroke="midnightblue" points="162.06,-28.19 168.34,-19.65 158.11,-22.41 162.06,-28.19"/>
</g>
<!-- Node7 -->
<g id="node7" class="node">
<title>Node7</title>
<g id="a_node7"><a xlink:title=" ">
<polygon fill="none" stroke="#bfbfbf" points="77,-0.5 77,-19.5 123,-19.5 123,-0.5 77,-0.5"/>
<text text-anchor="middle" x="100" y="-7.5" font-family="Helvetica,sans-Serif" font-size="10.00">errno.h</text>
</a>
</g>
</g>
<!-- Node6&#45;&gt;Node7 -->
<g id="edge10" class="edge">
<title>Node6&#45;&gt;Node7</title>
<path fill="none" stroke="midnightblue" d="M101.67,-56.08C101.41,-49.01 101.03,-38.86 100.7,-29.99"/>
<polygon fill="midnightblue" stroke="midnightblue" points="104.19,-29.61 100.32,-19.75 97.2,-29.87 104.19,-29.61"/>
</g>
</g>
</svg>
